<mxfile host="app.diagrams.net" modified="2020-09-01T14:52:56.849Z" agent="5.0 (Windows NT 10.0; Win64; x64) AppleWebKit/537.36 (KHTML, like Gecko) Chrome/84.0.4147.135 Safari/537.36" etag="Vc1vxgM4Bc_Ir6-7JunA" version="13.0.2" type="github">
  <diagram id="-aVjLJ5Bpm9a1e2UjWzR" name="Page-1">
    <mxGraphModel dx="1240" dy="643" grid="1" gridSize="10" guides="1" tooltips="1" connect="1" arrows="1" fold="1" page="1" pageScale="1" pageWidth="827" pageHeight="1169" math="0" shadow="0">
      <root>
        <mxCell id="0" />
        <mxCell id="1" parent="0" />
        <mxCell id="CJhXHhptt_YIDlltTQ6f-2" value="" style="shape=image;verticalLabelPosition=bottom;labelBackgroundColor=#ffffff;verticalAlign=top;aspect=fixed;imageAspect=0;image=data:image/png,iVBORw0KGgoAAAANSUhEUgAABCEAAAI/CAYAAABJfsMvAAAAAXNSR0IArs4c6QAAAARnQU1BAACxjwv8YQUAAAAJcEhZcwAADsMAAA7DAcdvqGQAAP+lSURBVHhe7J0HXBRXF8UPltgbShSMRoOxxS52jWAMFmyxfhoFBVsUNRrBFmvUiKAmSOwQsUcFNRYUxW5sIKjYOyrYUBSslPftfTuD2GkLC9y/v3WZ2dnZ3Slv5p1377kGQgMYhmEYhmEYhmEYhmF0TDblmWEYhmEYhmEYhmEYRqewCMEwDMMwDMMwDMMwTJrAIgTDpBLPnz/HoUOHMH36dNStWxcGBgbxjw4dOsDNzQ1BQUHK0gzDMAzDMAzDMFkPFiEYJoWQ+ODt7Y2mTZti+PDhct6cOXNw4cKF+MegQYPw5MkT1KxZUwoSJFYwDMMwDMMwDMNkNdiYkmFSwK1btzB58mScPHkSo0ePRqtWrZAnTx7l1XchwcLd3R1DhgyBg4ODfO/HlmcYhmEYhmEYhslMsAjBMMmEBIiOHTuievXqcHV1TZKYkJL3MgzDMAzDMAzDZFRYhGCYZEARDZR+QakVlIKRHBGB1tG9e3cYGRlh8eLFylyGYRiGYRiGYZjMC3tCMEwymDhxooxiSK4AQdD7yKySUjnIU4JhGIZhGIZhGCazw5EQDJNELl68iAoVKkjDyfLlyytzk4+vry9atGiB8PBwGBoaKnMZhmEYhmEYhmEyHyxCMEwS6devH8qWLYuxY8cqc1IOpXWQR4S1tbUyJ/ND6Sgk5Fy9ehXnz59HRESE8gpQpUoVlChRAmZmZizMMAzDMAzDMEwmgtMxGCYJUMd5yZIlaN26tTIndSDxIaukZFAkyfTp05E3b15ZstTHx0cKECQ81K9fH4ULF0ZwcDB+/fVXFC1alEuaMgzDMAzDMEwmgiMhGCYJUGeYfCCOHTumzEkdqFpGqVKlcPPmTXzxxRfK3MzFw4cPMWPGDDg7O8vypO3bt0etWrU+6qkRFBSEgwcPypKmtDy9r1GjRsqrDMMwDMMwDMNkNDgSgmGSwN27d2Fubq5MATFBbjA3M5NpA+ZuQYh5ehl73ezRKH7efhzXTLsFHIabeS+4BT3WvvHuZtjbb8Zd7VS88PDs2TP5nNkg8YaiGh49eiRTMGbOnCnFhE+ZetaoUUOzneylX0bz5s3RuHFjaeZJESkMwzAMwzAMw2Q8WIRgmBSSr/cSHPH3x177Sri+YRbcIjrD+5g//OW82sipLAecw9LBk7DiUqQy/S6ZUYRYtmyZFA88PT1lKdLkmHmSLwSJESRg0PqGDh3KQgTDMAzDMAzDZEBYhGCYFPJ0aV/Ul1EP+3DmiCFs+jVG8fedWfl6YfYf5bFxzALsD3upzMzckM+FjY2NTKlIDdNNEjBU7wwWIhiGYRiGYRgm48EiBMOkkNeREE3xTf2H8Fx8EHfjgLi7RzHfzQc3leWA7ChY0w5/DQVc+87AEWVuQsisMbNAKRidOnWSAkRq+jhQ6oqTkxNOnjwJd3d3ZS7DMAzDMAzDMBkBFiEYJgkUL15cGismHIFXIyHM7H1R4IcRsIlbCKu6ZqjbcTnQoAZMlOW0fIbi3w7E7z83QS5lDkHGlESxYsXkc0aHtg8ZeM6dO1cnRpKUnrFixQppWMmVMxiGYRiGYRgm48DVMRgmCVDnmqIVAgMDpWliakE+BwcOHJCeCZkBMo/ctWsXVq9e/UnzyZRA243SM3T9OQzDMAzDMAzDpA4cCcEwSYA6utOmTcOqVauUOSmHhA3qtLdq1UqZk7GhUpwUoUDlNHUtDHTp0gWhoaHw8fFR5jAMwzAMwzAMo8+wCMEwSaRz584yJePixYvKnJShdqAziwixZcsWtG/fXidpGG9DIgdVzaCICIZhGIZhGIZh9B8WIRgmiVCFBhrl79mzZ4qrM5AXBJk3jh49Wk536NBBphekdL3pCX3/jh07KlO6p1mzZti0aVOqiUIMwzAMwzAMw+gOFiEYJhlMnjwZ1atXT1GZSBIgqLNO6R1qp7158+ZSlGjatGmGNFykVAwSBOrXr6/M0T1ULYMiL4KDg5U5DMMwDMMwDMPoKyxCMEwyoDSAiRMnyjKR3bt3j69ukViCgoKk8EBCBlWRINTUgps3b8Lc3ByNGzdGv379MtQIf0hIiHymaJG0pG7dujh//rwyxTAMwzAMwzCMvsIiBMMkExqB37dvH4yMjFCqVClpLkmRAB+DxApHR0fUrFkT1tbWshrG2+aNtN6ZM2fKChz3799HhQoVMH369E+uWx+4evUq6tSpo0wBMUFuMKfypZqHuVsQYp5exl43ezR6Y94lbJ7SXU6bmXXHlM2X8PTuZtibuyEohtbyFEGa98x2mxK/LvmIfx2oWLEiIiIitBMMwzAMwzAMw+gtLEIwTAogAYGEhIMHD8qSlEWLFpXRC+SL4OvrK6MY6G8yTiS/BxIriAsXLsioh49BJUA3btyIHTt2yGdaN61H3/0iKIojIfl6L8ERf3/sta+E6xtmwS2iM7yP+cM/ft487DD6GVtp3r7x+GrHBMw6EqW8+zWfNf4Fe/03YWL9Sui9ZB/899qjRg7lRYZhGIZhGIZhMgQsQjBMKkCVIEgooOiFJk2a4MiRI5g3b56MYqDqF+RXQJEPlGpBUQ5JSVewtLSUEReenp6wsbGRfhEkcGQUni7ti/oy6mEfzhwxhE2/xige3/I8wLkjedGiY23tvHzl8X2LL7D7XDiEdgGGYRiGYRiGYTIRLEIwTAqhyATyJCAjSYpeILGBhAYSJYQQMlKCpskDglItCEqvSIrXA0Vc0HrDw8NlREWLFi3kM3lL6BtUvjQhryMhmuKb+g/hufgg7sYBcXePYr7bfqDiQ+zwDpDz8PQidu64hWb1qqLSZzdx8/4rzbzzOLg3XLsyhmEYhmEYhmEyNCxCMEwKOXHiBI4fP44vv/xSmfNpyL+AoiSSGtFgaGiIsWPHynQO8qIgbwnymEiqMaauqFKlivLXa9RICDN7XxT4YQRs4hbCqq4Z6nZcDjRoBqs+I9Di/h9ynlnT33C1xRT8YlELLYcUgGfbhpp5Q7G3xgB0qZZPWeO7UORJ4cKFlSmGYRiGYRiGYfQVA0FDtQzDJBuKSKD0Cop2SCwkHKgRA1SikypkvG1QmRgo+oLeSyLI3LlzYWdnl6z1pBZknkneFZSWQlEhaQVFoowePTq+1CnDMAzDMAzDMPoJR0IwTAqglIpNmzahR48eypykQ1ERlGaRHMiLgvwivLy8pGkl+UWQEWZ6mVdSpEb79u2lUWdaQVEgJMKQEMEwDMMwDMMwjH7DIgTDpIAlS5bITndSR/337t0r30f07ds33isiOVDkA0UAbN++XfpGdOrUCd27d5dREukBfQeqFJJWkPcGbcuUbEOGYRiGYRiGYdIGTsdgmGSiph7QqD9FJCQFGr2nTnNyUjk+BUVnkDhC6R4ODg5S5EhKNY6UQlEYFJGRFukRKdkHDMMwDMMwDMOkPRwJwTDJZNWqVahTpw5q1aqlzEk86qg9iQQkFiSlUsanUEUN6pjTeskA083NTXbY0wKKzCABYsaMGTpPC6F9QFEQLEAwDMMwDMMwTMaAIyEYJhlQ5zpv3rzw9PSU6QcpQRfREAkhjwgSBMg3gbwjWrVqpXPzSjUagn4bVfPQBZRu0rhx4zQ3wWQYhmEYhmEYJvmwCMEwyYA69uS9QIaSZMaYEtTONJXd1FXaBIkC7u7uGDJkiIzemDNnjs6jByjlpFSpUlL4SO20DFo3rZMEIHt7e2UuwzAMwzAMwzD6DqdjMEwyoMgCKomZUgGCIDGAUgrIx0FXUOQDddZJNDE3N5eiB0UppGYayNtQygmlhJBYQ6JNaqEKEPQ76Df5+vrKB8MwDMMwDMMw+g+LEAyTRChygVIbLC0tlTkph0b0yRtC174NJJpQ2gdFXRDkF+Ho6KizzyWBRRUiyJcipR4RtO0puoIElMmTJ8t5JKS0aNEiVdbPMAzDMAzDMIxuYRGCYZKIWnUiNVMnyKeB0iTIaDEtoO9OpS137Nghy4VShYlly5alaieeBAMSBsi4k0QPWn9yS4eS0EBiCUVwkA8H+UyovhYUDUG/g1JNhg4dmmYGnAzDMAzDMAzDJB0WIRgmCVBneNOmTTJ9IjVRK0pQRzotO9EUzbFv3z7p22BjYyPNJFMjdYJSJoYPH46TJ0/KaRI96HOaN28enwpCn0PLfQjaDiRYkPhAERsEiRnvMwKl30Gv0ee1bNlSp2kmDMMwDMMwDMMkHzamZJgkMH36dBw7dkxGEaQ2akWJ9DJbpE7/ggULMG7cOCmyTJo0KVlVJ1TPhurVq8PV1fWdShz0ORTxQZERlNZCESDk75AQVewhpk2bhs6dOycq8oTWPWrUKOmvQdERqZkywzAMwzAMwzBMymERgmESCXVwKW1Bl53b1Ky6kVxIAKBOvJp20rdv30SnntA2okgEExMTrF69+pOlQEmwOHv2LKKiopQ5r6lSpYr0f/jUOt4mYSUQMg/l6hkMwzAMwzAMoz+wCMEwiYT8DWj0ntIKktoxTizpHQ2REEqFICGCIhKoM9+jR4+PCiP03cmTgVIiSEyh6hjpCVXMIMNKElHeF5HBMAzDMAzDMEzawyIEwyQCVRwgYeB9ngSpiT5EQ6jQ7/bx8ZElSQnyrSATzbc79CkVIOg9FPmQmmafRFBQEPr37y//1gdhhGEYhmEYhmGyOmxMyTCJgDri5F/Qpk0bZY7uSOtKGR+DxAbyd9i+fbsUX0gceV+FCxIgKIVjxYoVSe7oUwoHrZciF1Ib8rQg8YH8KSi1IzmVORiGYRiGYRiGST1YhGCYREBpGGSQmBaRCdTxT49KGR+DfjdFgdy8eVNGK1CFi379+kn/CEpTIQHi4MGDyYpkUKMsdPV7SRShdAzaf/S96fsyDMMwDMMwDJM+cDoGw3wCGj2nziuVgEztdIEPoZpgenp66jz9IzlQmgNVz1ArWGzbtk1GcCQVWk/NmjWVKchSoRR5oSvUVBf2iWAYhmEYhmGY9IEjIRjmEyxdujRJFSJSA4o8IDNIGrUnvwV9g9IcVHGkXLlyaN26tYwWSep3ffr0qazAQdA2PnLkiPxbV5DAERgYKL0ryOODqnMwDMMwDMMwDJN2cCQEw3wESjeoUKGCTDVo1KiRMjdtUKMhdB0dkBzU6BASSuzs7LBu3TrY2NhIL4upU6cmqYSpuo3TMtKExIfJkyfHp5Gk9b5lGIZhGIZhmKwKR0IwzEdYv3492rdvny6dVDUagjwT9CkaIqEAQT4RlNJAURFUzcPc3FyWxezQoYMUF5JC3rx5lb90j+oTQVEY9FsoioNhGIZhGIZhGN3DIgTDfACKRBg3bly6ejL06NFDVuWg6hz6AAkL1Gmn1AkSIBJCosnMmTNlRIORkZGMbnB0dEx0ykNal88k8YS+L/luUBQHfVd9TH1hGIZhGIZhmMwEixAM8wGoRCalFyTHcDG10KdoCBITevbsGW/q+CEopWLx4sUyzWHv3r2yNObHvC2Cg4OVv9IHEpnU70rlR9kngmEYhmEYhmF0B4sQDPMeqMNMIfrUQU3vCgr6EA1BHXPypahevXqiq0pQCsu+ffukpwVtSzKCpOoUiScKJ117oM3olTga9gy6NK+h76p+N/qdlHLyaWIRdekULkXFKtMMwzAMwzAMw3wKFiEY5j0cOHBAdvxJAEhv0jsagj5TTb2YOHFikkQZWpY69du3b5eCDpXHJL+Itzv5aoWMhMRd2wLnLeXQp2VuHBjriL8vvlBe0Q2UDrJ69Wrpa/FpnwiBmNub4Th4NIb3nIotV5/oVCRhGIZhGIZhmMwCixAM8x7mzZuHadOmSQFAH0ivaAgSIIYOHYrQ0FAZKZBc3wbajiRkqBUwqJNPHgzkMXH+/HllqQSIO9i7cD42xcQgpkB92C+egx7GD3A2IBBnbz5BjLJYapNYnwgRdQruv8yCGLoYG+ab49rKPbgep7zIMAzDMAzDMMwH4RKdDPMWavWHtCwZmRimT5+OjRs34tixY8oc3aIKECdPnkyRAPE+aBs7Oztj06ZNaN68OSpVqpTAZ0Lg1Uk3fPd7IcyfWRkXN51G/poCq0f8i0Lta+Oz0ycRZTUBM3tWQ34D5S06QD0OyAODIkDif3/cbfj96oD1pZrBaEcQykybhj7fFIIOvwrDMAzDMAzDZBpYhGCYt6DR70ePHklzRX2Cogao4gSZKL5TMjTmIS7u98XxvM3Qo/7nqdIhJjPJIUOGvP/zUgkSNwYPHow7d+5I7wgyAc2TJzvCDntgilMQTO3sYdciOza0HYuomcsxtHp+zW+9jyN//I7/DItg0/GaWDevDT7XkQKgemEQixYtQo0aNRB3bT369fRDI/cZ6PPFY1yOzIsc532xOSAUKG6Gtj80Qdn82eV7GIZhGIZhGIZ5ExYhGCYBH+3o6wFqCgNFRBDixW2c2LYGSxbswguLmojxNcbIHfao/lnKeuVpIUCo9OnTBzly5MCSJUtkNZI5c+bIzxQvQnBolQ8ivq2G8133oPHhMaifS/ldr85jee9RuPTTXHQKHIOZxadgeTdTneSXqREh9P1IKOnY8QfEhB3C/Mn/IN/QybA4PQE/BzbEL53LI2fYXiz2+Ry/zPwR37AQkW5Qed0HDx4oU5mDYsWK6U16GMMwDMMwTEpgEYJhEkCdbzIkTKuUh6TyhkhS6TlGNXXGEzsL5Fx3D5YbJqDUmmFYVWUWnJoVU96RdFQBYseOHbC0tFTm6g4DAwPZua9bt65MyaA0DUqBILNKbTrMQxyeNgjLSv+K37t/g8I54vDkwHSYr6qJbeNeYVzdTtjQdTsu/9EChojBixdA7tw5tCtPRdTtQl4hw4cPR+5sBniV/TL+tvgTRVbNQ7dSOTVLvcJt7/GY8dlQuLYpySka6QBF15CJKxmMZiaohCyZu6omsQzDMAzDMBkVFiEYRoFGT4sWLaqMdmtD8PWR+GiIDX9hyyBHXB34F/53cwbGvBqEBd8+gd/Wsyhs1RH1iyW9I676IFA1jtTs7MRe24F5F8tjUIuyeDs+gESIhIIH/Tb6jeQXQULE6NGjYVjwOfbPm4TRK26jonVblP/HHyU9p6CM52Cs+soKBVweo1vgCHx9fCbabqqLzTOaoaBcW+ryjk+ESRQ8Wv0GzHWHbfnc2oXEY1zctgYrd10EKjTHjz0tUZ6jItIMOp6ePXuWpCouGQGKyKEyt1RphiMiGIZhGIbJyHB1DIZR2LJli3wmXwJ9hjrA1EE/9N91WA6sjw2rTiBHY1v8GDEfP3bpDfsxQXj2WdJPbV0JEIR4eB4nIgw+2OCUKVNG+Qsy+oHSTUiYoNFfEoaWrfJDnX6uOLR/DVxal0eePgPQKtIbY091gkPP71H7mxDcCD2PTW5XYNOnnk4ECILSRG7evCnNOkmoCjr1DF1nt4D/nMXYcfI6Hr2IxMUVY+B4oACa97ZG2zKXMO3HuQiI4tIZaUlmEyAI+k0U3ZHZ0kwYhmEYhsl6sAjBMBpolJHC7akDru8dGOqkU4QApS18Vn0A1jbfgzY2Hrhepid+G9IYhUd0RKOCSTu1g4KCpABBqQapH+4dg/s3zuPAgpHobWODPj9PgLOLC/7YcQ3nL15UlnkXiozYt2+fjEyhcpk0Crxh2y4YfvUdhtnW0uw0E4xy6oivshdDObM78Jk+BbNMe6FzhXzKGnQDVcmg71W9enXUrFkb/93+HDMdq+K21xrsCQnEv78JWA/riiaa181a2mLEd//B1fc2YsICsPfsY3DoWeYgJsAVA71vaieijsHFoips1On3chPeNm3gEhAlp2ICXGDmshtHXGzi52mJQZj3z+hq0xVmmuO+a1cb2Ji5IEBXdWkZhmEYhmHSGBYhGEbDgQMHcPz4cfTo0UOZo9/ER0McOg4ji1+x2+t32Jp/hmPLwzGoXRXkEs9w59ZDTXfm01AFiP79+8t1kteBbsiL5gMnYcaM6ZjQ/wc0s7BAs8pGn2yASBCiiIPw8HB06NABnTp1ks9BQcEoVr8T2pQnwSE3TL4yxJK1JTDVvuFbURACMRHXcTIgEGdvPknU9kgM9L3Iv4JEqxYtWmHp1mB0HzMMHct9DsOyTxAR+dYnvTgL9+Gz4P+cIyIyF08R4DIB6w7twRqrpVj45YbXwkSyyYZ8hUugVInPUapSZZQpVQLFShmiAF+tGYZhGIbJJPBtDcNomDdvnowuyCi51gmjIZAjF8iH8dXp7VhSvBVqPtkGF9vO6Dt7H27EKm/4AGoJShrVp061bqJAYvEyX3V0qFsOxsYlUbZyTdSuXRvVSuVXXgdKlSql/PV+aL+MHTsWFy5cgJGREWrWrCl9I+j7azYASlj+ggM7R6Hl5wl9MGIRdWYZ+nedjPW7d2D1hP4YuvwUolIpFIG2FUWNUNoIGVZSBY2HEUXReXIdbP39D3jtP4L9XnPhtK08zE4sxdEfpuDn2kVgQN/r+lXcieGYCH0k7rY37EwMpLdEuZkr4DTQG2ExAXAZ+A8OeXSV803svBEaryc9wfElixDgsBibH2hOuLjb8LarqlmuKuy8b+BVgAuqWligkcEYHHn2gX3+4F/YlFOjHbKhYLPRmOXkhg2jR2HmLCfM2mCL8ny1ZhiGYRgmk8C3NUyWh1IRKKqAIgEyEhS1oY2GOKSZCsfBVcsRsnsp5u55hbpj3OFcZQtcfG5/MPyfjDhVA07dCRBENMJP/41WXxmhnEVn2PT5BS5bzksx4P79+3KJxH42iS+LFy+W1UHIwJLEC0qjefQsG8qULPSm6WXsOawYuBON3f7Cbw6j8duiaWi6ZwoWnHgCiFjExKaOCEBpIySOkE9Ey5ZWuGPYEp4TGiPm7BEEPa6KwQOiMfvpj5jRtRxyUGRG2E5M/flvnLwfrayB0R9icPfofsS4hSDa3xmFadbdCERGPcb96Owo3tgOztZVELbvKu7EixAFUadvf9R27oe2xTRH4ONT2OQRrJkfDI+FfrhCy9UdDx+xAN3qfYZzN8IRhwic3LNX879CsXbwvDwStVO/qAvDMAzDMIzewSIEk+VZtWoV2rdvr5SDzDjUqFFDfm8SIoCcKPHdVKzftxHuDv/Dt+VLoFz9urjyuzdOvXq3s00eGKNGjZJ/U0lD3QkQRH7UHrkHQjxC0Do3zJjyI4pvGYcFJ6Jw9+5dZZmkQQaRq1evln4RVFK1Zesf8NfQHzDQ1QcXI5TOvXiJqKeVUflL5bflLImajfPh9I1HeHLwd1jOCcBL7Sspho4dqlpAESUVKlTCf5eeodvAnzHUthUq5RUoZFQQuQ00XynqNJaNXY1iY9ri1dotOBv1iVAVJo3JgeL1vkUO+9LIaeaACIPC+MpwDipY/YZjiMXdg+5wCKkGa9NbuPHwA8k9haqhvW0VzR9VYN2tLow1V9lcRoWQV/OvQrteKDa3AbIbFIHZ1jpY9GMNzZmr4Y1ICIZhGIZhmMwNl+hksjQUzk+j6TSyTh3bjIZa0YJG4rUiCnkgXMJ+bw/8ufwqihtFIrv1EsxrUxKaPrCEBAhKHaCRexIgyGgxbYnGzX8m4J9y4/DVDV8pIlA1jORCER0kJFFKROvvGuLr3EVQsL8LHNt9jtPTBmFZ6V/xe/dKyH1/H2b3XolSf/bHowHzkH/RPNiSiWXUdZy6b4iqZQvGb6PkQtvW3d1dfhfyi7Czs0OenOHYPXMiPB+XRel7V5G95xT8+l1xRJ5cjl8m3kTH2cNh9VXKP5vRQukSmfWyRilIFLGV0QRThmEYhmGYhHAkBJOloc5vnTp1MqQAQdD3pmiIJUuWaKZe4vqWX9GhozNOFO6CBT5rsNBtMAw2HMWdBH2yiRMnyuUXLVqURgJEOAJWLsFyL28penh7LcashREoZSjHgFPcoSK/CPJmoNKZ39RqhD+3bsW1dU4IvfgADRxGo9KCb1EkZ2FU+dEbBcaNQ73jC/GPZX+lisYLXN0wDT97ncdTzfZ7cD00RZ4R7/OJeB5dFM3G/IVZfduh84RZ+PW7L5BD0/RmfxaOsELPcXTqKDjtvw22rGQYhmEYhmGyAixCMFkWGkGnjuLo0aOVORkT1aDy4sUb+KLBYCzZthAjO9aGcW4DxH5WHp3NY3EjXBvnTf4JtCxFflA6R9qQDyYlniPA+2/85bEGm/+LRosFM9C1bC4cOXJEWSblkKAyc+ZMBAYGIjLyESpUqIDpLlvRwXkqfvrJBX8vnQH7b3MieFcs7LrUllU0xL1dcJ5vjF97lsR5j5Fo/a0bjkWmXA5I6BNBpUVv3X6AYl9XQ/WyRbS+ENfW4+cZLzByxhRMcR2F1qUKcGOsD0gDSm+EyYk4RAXMgYXBQHiHfThPgkptlrOYg4AoOm605TU/XqrzU3CJToZhGIZhMjd838tkWfbu3Sufzc3N5XNGJWE0RI6iJiiR2wAxERex22MMOnV0xtGL/2LMqmD86eYmRZe0Tj0RD45gwcJrqDZwBuY79UPNsAM4cueF8mrqQ+IKRbiQX8TGjZvwZaPBaFwzDiXyCBjAEFWaF8KBf/fhbMh57PhrGR73qYGrUxzggfIwL2aIQnk1zeKrILg2HYEt95Lf86MID4r8IJ8ISvnRGoiSL8Rx/DFwB+pNG4pmxp/BIH8ZVCv7ZmFRJn2JCXDFQO+LuLAnCFZHf8TVyf8qwsQH2DsCbQcvx3kpRKQULtHJMAzDMEzmhm9rmCwJ5e7PmDFD5u1nlLKcH+N1NMR5PPT7FTVbO8E/PAoPyzdBs3qmuLvZCz8PGQJPT880Tj2JwZ3963GkZX/0bvINyn/zPQb/2hz7vYPwSFmifv36yl+pC1X+2Ldvn/zNP/YfhB+tvoOv7yGU7zkVE2rfxYY5i3HYsC6K+m3FxRwGeLBvL3aXL4XPs7/EtQ2LsMWyE759o+Rn0qHoDKo8Mm3aNOndQZEosZEGqDz5N9hVKcQ+EGlF3A2lbKYBDMq54NhREhluSrFhgJsLWtB8E3t4hyaoWPJoP1wdlsHB7QieaCbjS3fSciFH4FK1ESwaVYXt7ggUdt4O76ob8dP0XdrSnXFX4NHCRCnTeRheNuW0n60+LObg+CWv1+sLXMslOhmGYRiGyTLwbQ2TSYlF1MWtcBk9EQsP3NZ0hd/kxIkTOH78ODp06KDMydi8jobwQJH6v2Dv7vnoXSknIh4cxKwVD3Fu11TU/H4IOlhbK+9IS+IQFfVC2QcCsdGajl6unKDuvRqNoivIo8Fa85vDw8NlxEuLFi3Q4QdrRJesj3FzZsKhvSV+mjsPM1098Fffeiio+V7Zww9g4Z+5MbSfZppWksKoCPoOY8eOlZEZFIny04RFMDd9imt33q3NIaLOY+uCyRg+fDIWbNWWMWVSgbsB2BQzGaHR/nCWdTdjcTciElGPHyHGsA5GOlvDOOwMrt5JIEIU+RZDNfOd7etrjoNYPDjqCw8KhwjzxkJf8vBoivE+J+HRjFZYDGYj3DAef8KsyxbNlfVzNB7pAGvjYOy7+kizbBt4hV6Fl/Uw7XPpazi1P8H6Aqvhby7RyTAMwzBMFoFFCCZz8uo0PAb4wLBNTTyY7oBxM0ZjYFcLVB21W45qUtQARQ+kfWUI3aFGQ1y6/QBFXx3HYmeB7j1/xLp/5sKxQw3UGzoKBZRl044cKNH8R1j5zIGL114c378eLk6H0FzzfaiDT0JQWkDRLuQXQT4NRkZG0i/C0XEMInIYorJRLs0SuVAkbzY8qWqEO6sW4fpPA9FSRkFQVMQCrGnaAoZrrNFm9EocDXuG5GgDFJlBfhXkE2HesiP+He+AlWcfv17Xq/NYMXAKDhQ2R+/eLVHmymz8OOsYopSXmRRQvDba55gIk5xmcIgADIy/hOGvzWH1238QD4/DxSEE31sXxrkbjz9gEJodxepZwtZY86dxK3RrUAzZcimpOyrZSqLZ2Flwty4OxN3DQZe/EPJ9D5ieu4XH7xww2VCoVvPX6/s6AH24RCfDMAzDMFkELtHJZEpiz3qi60//onSHynjgHY02c2zRsIwJjIvlR3BQEGrWrCk7hGlnzpg2UGQHeRHM+KkRxu8qhun9G6NLq3qIDTTCN3N+Rvt6tRRzxDQkNgYvws/Ab8t+nIsqhKrNrfBd5aLyO1BoenrsB/JnGD58uBRBXpfSjETw+TsI3zEPc86Ug90vfdCy1BlMNd+A2gvN8M+wU2g7vS5uLb+Aas6jYGmYXVlb0qCysJMnT5YeHgvseyKsxQSMtPoauU+4oLLbV9jn0RHGlKdBERgWi/DFemc0CAnCo2/qo3L+5H1mVoKOKS7RyTAMwzAMo79wJASTCREQJo3h4NAFVXIXQPGCh7B83V6cexgL6sKtWrVKpi5kNgGCoNQDioY4+9QUvm59ULVUKXxWpy/6ezugUbbr2OO6ANs/4vSf+sQgbNNw/LAlF1rZDsHIoVbIu20+/r36QvpyEHnz5pXPaQmlr5BfhJoiQRUsvP89iCpVqqHpL/OwZnJ9hO/cB18PN1wY/j8U3LIMx3M/wq3ICrBbOATFV1jjpy23kxURkdAnYqDbCmTf7oTjd2KQrYAhyoZGIPKNlQq8uLASwycch3ZrMQzDMAzDMEzGhkUIJpMRi6gzy9C/61RsPXcd14/8h4edZuGPLiXxLDIGjx4+jE/FyIy0atVKVmOwsrJCDbP68N4fiOWT+6JFg2/RoqsdRs4ZgzbGaRkHEY5T+1+gS+MySmNTEGVKhWJT0H3cvJmSMoYph7waKEWC/CJIvOnUqZOMJDl06DByl2qM3kProYBBW9ibHsH4C9bw2TgBTWLDcPv8ZsxcUxFdDL3Qss1YrDx6Gy+SqEaoPhFkmjnhL3f4zBmLl180x6ia6zFhxjrsP74XXi5/Ylc9UxyfHYwfFgxEbYqCEE9w/dK9dzxOmOQShQAXG7gEJCbp5Qku7pwDGzKTJHPJVEmfeN/nc4lOhmEYhmEyNyxCMJmLuEtYO/IgLBbMx28Oo/Gb+ww03uSK/QW/Q4faRWUURJ06dVCrVi3lDZkP8jwICQnBsOGOKFemqB5UYHiOqOdqD+o57t2MQInCeZTp9ImESAj5Rdjb20u/CApzpyoWFPZ+8fJTfDusG0xjCqDP8FYwLfgF6rWvhUfr1qLg6Ga4N28/6vYxR54Dv6Hv4g34s0UnjF7pj/sxiVckSPygkqlk0Nm9xxCY1K2Ek0vXYeve03hcuy/6Zt+JF/1HoWvZ3JqlXyLMdxZ+XhCA+6lRCZL5ABEIcF3+Tqc/7uJ6DJn+BDYBL2W6h0iskWTUMbh6BCZBOOISnQzDMAzDZG74tobJXMQ9xcP7FVC5NHXaNOQwRuW6wMPIGBn+T6H3o0ePliPRmQ36fUOHDsWjR49kNMSu1X9gydGHyqvphREa9TKD3+9/Yo3fPvitmQvnA3XRte7rsqj6Yg5KAgSZV5IocPHiRWle6ea2CLmqdIBtPfq+Aq9OrcLYCx3RN88OuGx6iugYQzSwn43pRfzgWaMLvgufjc5LziBWu8pEQakh3t7emr8MYD1jD4a3FshdvTP6tCiHXNF5YFQot+YVivBZg7HzDTF+siVKvArBwY1+uBjFakTyeIWw3ZNhYVAAZg4hECHLlDKdg7HKZwlGDrOGWUUnbF9nDxPNfBO7dTh5+hRKDLFFM+PPlHUAMQEuqGphgUYG/bHEfZCy7D84sKSrjJYwsVsOn3lTMMyuFio6b8E6WSaUynZexu0En48H/3KJToZhGIZhsgx8W8NkLrIVRPFSx7DH/z5iEIcXN3ZimW8VNPo6L3x8fOQiVKoxs6EKEGR2uHHjRkyYMAHDp7vj4ux1uPp2PzXmIS7uXoOVR+4ly9MgaWRD/tpDsPL3Rog+448z0Y3w+8ohqJ0/G4KDg5Vl9AsSBVavXi39IpYtW4aWLVtKkeD58ycIf5wPfey/xKEptzH08Fx0yRmAzft2wn2KL0rleoIbt+NQqkieJEefkBBDn2lu3hwD/lwP0zs7Nev4HN+NGoLc8x0wauZ4DJkWip5z2gG+c2DX2gq9BvnhFmsQyeQuDns+wpDQR/B3Lg2DYg2VMp1nEVq0HqxqO8P/fA8827IdsoqmxzqcKFAJd+Z6YHfYKyAuDMfmuGLjjZdA3fHwEeNhuN9XWXY9gkv3grN1FYTtu4uiTc1R29kf53u+whYPOuaD4bFwIzYsff35KNYOnlyik2EYhmGYLAKLEEzm4cleTHO8BPO/BuOzhR1QxKAQqgwOhPn8n1C/YDbMmDFDVkKg8PuMg0BMxHWcvfboo+Hc7u7uUoCgUXzq0JI3RJ06tZE391p4HgqXy4gXtxHgPQs/tf4Rvx89he1j/sGpVzqWIWKvYcfqIMR8WQGVvzJHlx9rIdr/FML0vPOs+kWQeaXqF9G06fe4mr0Ceptmh0GVp9i7/RxyW3RFvQsrcern+RjwaiP8q03Cgq6myWpY6TMpEoN8ImxsbODoOArRhRtijIcT+rZojz7dDbF58A/o1vckvh1sgzJdm6KG5rgWUVdw4lKCUp9MIiiOeu1jYG9SRBsJ8eC/12U6Q6JRuOhsmFn5wKhdS8gqmtZWaNSwG+YOeYnfTHLBILsl/kJt1PsiF3IZFUJeuT512RYoe3kZHEKqwdr0FkJeFURRh7aw2lYY7WyraJaoAutu36FFh9ef/2YkBMMwDMMwTOaGS3QymYSXuLrcHg5wxLpeX2s6gTGICn+KHIaFkNtAW5KRcv3VvP+MgcCri6vw04RDKIAIFBo0B5O+Lf7OKLubm5tMMyEBgkbxVWj0njrPDl0XYOBfplho4YwndhbIue4eLDdMQKk1w7Cqyiw4NSumvEMHhHnDZjQww/1LrOxyEu3+qY5/G+6BxZGRuPGvt4xOWbx4sbKw/kJlNamiBZmaUolEBwd75Ll3EusjKqHejfPI3qsrTHyG49ecY+DZsZTyruSjlhA1MTGR+/eLkgVwdu9p5KhZA0Uur8H4QfPw5BdvrOwEbBg6Dic7OWH8d1+kbelVPYVLdDIMwzAMw+g3HAnBZA5encOW5Qdxev4MzFqzHxcjBPIX1QoQhFoRI0PdvItQ+M5ZgjjLfhjy4+f4e+YcuP+zBbuPBONmlNZ1gNIFSICg1IGEAgShjYYwQ3GzSJQuWglNGhdDJYuB+HXMZ9hw8AmqDVqEyd8WVZbWIWc2Yf4UV6yJuICD/+7B6Zfa2aGhoShSpIh2Qs+h6BKKUiAR6/79+6hQoQbm/hsMm4amaDi4F+oVzI6c+Qogl7J8SlF9ImgbUURG0MlrqGzRGOUL54eRWQtYVqqK5jXz4Iz7DHhVd4RDMxYgGIZhGIZhmIwBixBMJiAOTw6uw9L6C3Bk2yjUfrUf0zr+gJ9ctkjjPjIZ3LRpE9q3b68sr+/E4UXYWRzceQ7Fhruhx41xqOFogGnjfkCFws9x/UoEcuTOJkfLKWyfUkyoo/o2FN4/evQYjHR0wJNHuWE5sD42rDqB3G1mwL2dIcIfPAey67h2htG3GLdwKNp93wO/DqmHwgbF0WC0BUw1PWaq4JHRIBGLPDd27NghK1oULVpUCkHPn0ejhNVvcLUqqSyZckj4oHQQMhmtWbOmYl6pISYct8NroPSNBXA42RIz7aohv9yNsYi6dAqXFIGKSTxkMGnmEpCIChZUUtNCRlsYWEzW+kOkCC7RyTAMwzBM1oNFCCbjIyJx8/p95Njhib9P5YO59a9Yum0xfqpTGgXyZpNeCSRAvB0poJ+Qa/9M9B62GIfPn8S2aeOw6osRWG/3HD57olDuu86w/bExrh79T6aXkABB5SU/hGrCuWrVanxWfRB2TvsW2c6sxE/ftkBv+25obTsX+8OU0ARdkKMYyteuDbMmLdChY0d07NQLA3+sjfwBrvC9GInSpUsrC2YsLC0tpUCg+jc0bdoUvjv3Ineu1G1SSUiidBXaz5RaM336dDyProAh/7bD4zVHYWxWDoWkkCQQc3szHGzX4eqTh7h04gqiONEuBcQhKsATHm+IAyql4ewfCn+r4/A8fFeZ9y4xmmN8oPdNZSopcIlOhmEYhmEyOeQJwTAZlzjxMshVfDtgvbh85m/RxdpLhCqvEOHh4dQVEzt27FDm6DmP/YTj12OFX0SMdjryqHA2Hyy8bj8QZ7b6ijORMeLChQvyNzk4OGiX+QSaDqyoU6eOePbsmWaDbBfDytiLf65HabbcK/Hw8GzRrsdqcTVWWTiNiPb/S1Rr+aPw8vJS5mRc6BibNm2a3Cft27cXgYGByiupy8GDB+Vn9O3bV9y8eVOzEW+L/1wHiw7O/4mIyCCxoFt34ewfJm56/SwamH8v2o/fLK5ojpesRlIua7GhvmKMubF8j+nM9WKRJf1dRdiu3Cic5HxzMdNnpbA1hoCx5jy8FS78nc3l8jCfJPxCI8Utr8HCWDNtbLtG7F88QDj6nRF+jgPEYi8XMcArSPN3bc3ytYXjzhPCy7aKdv1el8Qtv0nCnNaj+Qzn7SuFtamz8I9WvtgHoHOezn+GYRiGYZiMDI+tMBmc57gccASRt47Db9t/uFW1NBLWvli1ahU0HXA0adJEmaO/iKh7uHPvIe7UqoavC2bXzsz3OUoV15ymBoVQufX3KBgRhp49e0pzusmTJ2uX+QQ9evTA8ePHtSVKXz7Fo28t0OTLfDBAThSp9wN6xP6HwLtpGesdg/s37uDU9pXKdMaGqq2MHTtW+kUYGRnJ1AkyECQzy9SEInlu3ryJkydPan0igu+hgf1M/G1XAv7TnXCy61T0zbUFI+3voe/CNZjf/AG2b/+P0zM+SAzuHt6K20OOItrfGYUNjNB4pAOsjYOxL9QQTa2+h7P/BvR8th8esvamNxbuuI44ioTwOwj30hdxIvQGjm5Sy3h64VKtDsBvg/HbmbpoVCqnZm4BVOrUB9aWlqiX5yw2cYlOhmEYhmEYTsdgMjgiO0p3W4Ldru1RFJrOlvd8uK45iGuajtfz58+laSOlK1BYuz4jok7hb0cnbIsqgdo3V2P53pt4EfMYV7YsxrwC5qhXPIfs1FLnkzwCqFJDYn8TdZIpnJ9KlD7PXhBfXj+Ly0+UjqlBAZQxL44r69bjyIPUFyJirx/H/pCnNNyb6SG/CEqdoCol5ENSqlQpWdni4cOHyhIp5x2fiA3bUTAiEL7GQzG9/hXMdDiD1p7fwX/CIpwvUgCn//TF1TuazjKX8HwPOVC83rfIYV8aOc0cECHu46DLXwj5vgdMz4XiVeHncDDrj21GFrCVtTdboVtDY+1Fs1B19J7eCefG/oOYb7+PL+PZsHxddLUqjboj2uFrueB9HP5rDpb5+uLo88pozyU6GYZhGIZhuEQnk7GJPeuONj03o2Kf3ujZ+XtUy3MbBzYHo1Db9rixe5PMow8PD5cdcb0l6hQ8BttiTpnZODSpCfLe+Q/uTlPh7B4Os9HjMGVYG5TK/kr6DhDbt29P8u+hjjCZKHp5/YMGhS5g4LziGD+rFm5tXoW/N0Siif1g2LSrDqMcqWtUGRe2E7/+tAnlpk1Dn28KKeVFBWLC7yFnsRIZrGRq4iEBjCJPSPghRo8eLauVpKYYppZmJYHJzq4n7vgswBaTfrCvb4iYG3vg6rgYYsQYlPUcj79D8qHWwMlwtPpaMbHMvHCJToZhGIZhGP2GRQgmwyNe3MYJvy1YO38FznzTB78M7AzzsgXxQ4cOaN68+UeNG9Ofhzg8/VfsqNkD9Y4swLovR2CWdU0USSAGUId26NChMgyfKiTQaHhyoE4rVXLYt88X930moJXLU/QZOQg/tq6CPCH/YfPxvGjVox6KpWonVeDVmUVo+8MaFGpWF9XLGSFf1U7o+E1OfFmqVKYVIVRI/KGUIBILyByVysSmpkGqr68vWrRoITumTk5OWnEq7jb8fnWAl9kYDLg/E22DusHftSbOL1iLhxYtUTqXCWp+rQpCmQ8WIRiGYRiGYfQbFiGYDIuIOo+tC5bjUIGWGGrXGMaIREjQAZwwqA+jF+dl9Qj97uRqS3EevWSAbxpWRjHcg7/7ZEwN/QHzxzeHcQ6DVBMgiNfREF7o2M4KLzTd0BdXD8LbfQmW+x3Dhe8W4bxTMxRUlk85cYi6+C9mTtgAg65D8GPF7Ih8Hoecn1dA7uehqFChQqYXIVQoPYOqtDg7O0shIjU7krRu8gkhVqxYgXI5gzFmixHsKu/GsPWG6GV0FLvKOMK1VxEcGj8cf57Lg5pDZ+C370pmynw8FiEYhmEYhmH0G/aEYDIoUTjlMRVbDM3R6MF8DBs3BaPs+8Kmz38o+HURLF26VHb29FmAiDqzHD8PX4qjWyeiy7wgvMxRHGb9f8e0Chdx4OozudScOXNk53XRokUpEiCIN7whou/g0LgOsHG/jjJ2ozGkTg2M6GqWigIE8Qp3rsWiufM8TOpohvKVa6J29a9hUuAz5XVI34SsAB2HM2fORGBgoBQNSIChcpup4RdB66YUHfKJoPXuupQfToNNcHrVURjXsUC7yfMwoUleXF3+G0Y+7o2lC37ArcUHcTtLyM9RCHCxgct7S22+SUyAC8oZGEgRo5xLAD5uz3AT3jY/wztMu9T7y3HGIMz7Z9h8tEzn+76f9n1dbbrCzMYGXbvawMaM/SIYhmEYhsk8sAjBZExiL2Lv0vMIO30cx84/R9laLWE3bh42B07FF3cuy447hb/rJwIxz2/Az20RIqz6wq5NDcQ9iMRLesmgEL7pMRhdy+eT6RPjxo2TRoc1atSQ70wprytlBKDp5A3wcrKFeY6TWH69NdrVLAjx4h5uhctvkgrkQplqxXH5n8X4+8AVhAaswuhO/8PUI/dx//59uYS+G4amNrQfN27cKKNR6JkiUyjChSJeUgIJTGRWSiITpWe4zfNB6z/c0O/pQgz8+woMQlZj/L4iaB06BMXLz0KODtVRPJN7Q3yQqGNw9Qh8r8hQ2Nkf0ULg8sjaiC9U8ZHl3+QpAlwmxAsTyScb8hUugVIlPkepSpVRplQJFCtliAJ8tWYYhmEYJpPAtzVMxkM8xhnPlQj+eQH+7FkdJU0Av+Xe2HPuIZDdAOvXr5cCRGrm3qcqIhTbfxmHgGZj0PzwMDQYBUwd2eiNKATVdJAEiNT8HdRZnTZtmoyGiBZxmo5WFE5v2Y7iNpXxZKMLbFsPwJzDoYhTlk8Z9+DntABhFcsham4n9FyXDV0WrMecliVx9+5dZZmsCVU5oSoXnp6e0jyVTEfJ3yElkKBD/ic7duyQx87QEb+jQo9xWNK9AAL8CmPkrDHo2uRbOO/dAff/VcTreJTMyCuE7Z4MC4MCMHO4jvubrGWEg4ndcvjMm4JhdrVQ0eUIQrztYSLneyNUc9BHOJghJ0VCTF0ABxMDGJiMwII/JmuXd/bC4hYmmvVUhZ33LQhsQSeTnDCwmIw98ZVlBJ4d+lW7zlF7EIkYXJ77P810G7gcPw1vu6rK+y/jdvz3e7s6RjYUbDYas5zcsGH0KMyc5YRZG2xRnq/WDMMwDMNkEvi2hslwxF3ywsjNNTCmpxnK1LbCgBmz4Vj0Cs7djsT9Rw9l9IC1tbWytD4hEBNxHWev50WL2dPRKHgN/qs5EnO+P4+/159BlBIeT51RteqBLoSUzp07y2iIEydOAE+OYdWMA9i9yAN7XtXFGO+1mNWmbCo1DK/w9NE9XDwWiKvPDFHeBLhx4hzuxGh/aJ06deRzVoVEAzpOqXqLubm5jGDo0KGDTNdICZaWltJrg3xEWrZqhwfhudFx+hA0KRaJG6ejkT9PVmj27+Kw5yMMCX0Ef+cvUaimDZytqyBs310UbWqO2s7+OD+yJPw3bUeYZukwjzXwvRn9OhJibHt0cbCFZa/GUiCSyzt8j6YjHWBtHIx9Vx8hDm3gReu3uorA+0rJWxgg99et4WDdBb3qmcjzKH+vxTjrVwfnTh3GJo9gzZxgeCzciA1L1e9XGijWDp6XR6J2fPgFwzAMwzBM5oVFCCbDERf5EPcbVUZp9eh9dReXTtdHr161sXXVKtm5pXKI+oXAq4urMGDgTCwaMxhTj+WB5fgZ6Hl/Ddbn64COeW8j5GkcDh06JDujJEDoqqoHeQiQXwaZJCKbCb5bvAH7ti2Aw/++RfnCOZWlUoHYZ4gt3QGd2rRApyHDYPlFTkTfvY7QKG2cBXW8GW10CvlFkHBAkK8DGRCmxC8ioU8E+W7QcQV8jgbWnVDBMHPHQGgpjnrtY2BvUgRmDjfwONATDiHVYG16CyGvCqKoQ1tYeUSgbvuWMNYsbWxthQZG2eMjIQz+NwfOIzzgu9wft/MZapd3P4T9Ln8h5PseMD13C48FRUIUQdvTzWD1pbpN4/DYfyVGLFuH5UcpoigHShQugPyFiiBnoWpob1tFs0wVWHf7Di06qN/v7UgIhmEYhmGYzA1Xx2AyHCJsMwZ1PoI2a8ehtYlAyLpfYX2pM9aNqIU2TZvK0WW9K8spbmPLoJ7wqjMbvxp5wmJhbkzo1RhffVkUuP0EJVo0x6OTR2RFD10KECqqOWJqp3u8QUwAXPpdRjePbij1lv8AdbIJ6nwzb0KCwfDhw2W0Ch0LdnZ2yfbOIK8JMjel6KC0OK70Aa6OwTAMwzAMo99wJASTgYhF1MWD2HWvBsa5fInNP5RDtmxmGHyiIeYPq4+DPj6y40bmi3qFeIJrh26i/PSl6HljHGo4GmDauB9QofBzXL8Si0rtLVEwIkx2PKmDQZ1OXfNGNISuuH8Dpw8swC+9bWDT52dMcHaByx87cE2NXGfeC4lC5BdB5pWUlkPpAGRemRxIvBg7dmz8uvr165diE0yGYRiGYRiGSQksQjAZh5eBWNBzLR4VLgLDL2qg7ejF+O+aP7bM6ILK+bNj2bJl0nSRwtv1BnEXB37/GVP2h+J5TAl8N34xtto9h8+eKJT7rjNsf2yM2Du3pVEhhc5ThYO0qhhBgsemTZuUUH3dkL35QPw2YwZmTOiP9s0sYNGsMoyUVqd+/fraP5h3oGOAjgnyiyCfCDKvpOegoCBliaRB66LyoOQTQaLGrVu3lFcY/YNLdDIMwzAMk7lhEYLJODwNx63CeRDp54QeP61ByIuzWPSjO05qbs6pI00dajJd1B8EXp5YjuE3O8JpTEdUN8oF5DBGPfspGFcjDo9exMnOIHUQTUxM0lSAIHQdDRH7MAL5TGIQHhqK0IcxKPC5CUqWNkI+A2Dv3r3KUszHIEGNIhnIL4L2V82aNWVIfnLMK6k8KEVUvOkTwaScOEQFeMIjIEqZVlBLe1Ja0kBvaYCZOLhEJ8MwDMMwmRu+rWEyCLGIKfgdpi7sgOKft8acNTPRp1FZ5M71GXJqOrUkQOhVrnTMM0S9iMbDGyEoZ14FRqonwpO9mNDaGwYtvkfZ7K8wefJkOZtKcqalAKGiy2gIA8PqaP5NHE7t2YM9fh4YUb08GozeCSrOSWkzTOKh45r8M8jDQ/XzoGMmqeaVX3zxhRS7KGKI/EdoHYxC3Hl4xJfgPIfjLhbSX8LAYg4CIo7DpZzmbwMTWLgcwmVZXpNKeNrB48Q+LBg5BnZmVhg1oaN8zxulQGef07RemtWH7cRYC+36bTyCERHggnK0DirfuWM5l+hkGIZhGCbLwLc1TIYg7uoqdOn3LyLL1IK5RR2U/ew69m19hR4r+yDHlYtyNL93797K0ulM1Cl42PfDELf/kK1GQ+Rwd8eWK4/xIuoyts9agtsDvseXr55j6NChMjyeRqepc5ge6DIaIptxbbTv1AsDBrbBVw/voeDYjdj3hxVKKK8XL15c+YtJLOQXsXr1aunxQOlHLVu2lMdPUnwe3vaJoMgK9onQkM0EjeNLcD5AHJrAKzQUfnXv4EZkHNDcC6GPV6DuuTPYJ8t/RiN6cyXM250DTay+h7P/ZozvOeDdUqAjKiE7YvHg8FbcHnIUInopqs7bjosxn2lWeR2PqXznU3Mu0ckwDMMwTJaBRQgmAxCF01u2o0SnejA8MRfNpuzHk2wFUMq8ORoY54Kvry/at2+vuyoPSSTmgi/cPu+Fie0K4MzZ7GhtbYyjY1qhWtvfcaLmBCzoaoqfhw7FkiVLsGLFinQTIFTIyFM30RBkJOqNMT3/wG2rGfD45TuUzp0tvsNrZGQkn5mkofpFkHklVYIhvwjyeUjq/qN1UGQFpcZ0796dfSLiQnEwvgTnTTyUlWTzoBClUankLQSjnIVhZlMEc01yImfbcxjUpiKKGD6Hg1kfzF2/6N1SoEuvIw7ZUayBFUrOrQeDnL1xelBLlJeCQzbNKosg5yMfLtHJMAzDMEyWgUt0MvpP7Fl4tOkL72od0eBOIAqM+Av/uzkFXa5a45+epWFctKgc1aVOVfqi6XSf3Y19MV8gj+98LL9VFHVrf4Wnu33w2c+LMbR6PrkUhcDTCLROy2MmETI9JFFg8eLFypyUEouIw7Pwg+V85Bs+HrY1CiNbPmNUrl0LeHhDphOoPgdMyiDxgFIsKJqF0msosiUp25XeT6U7Q0NDZTlPfTkmkwuX6GQYhmEYhtFvOBKC0XM0HfsLZ3Hj8/x4dGQfjj++j/VTHeEw+zH6tqkE3y1b5FKtWrWSz+mHwKuLq/CTSwi+/KosavedAY8/xqJ7oy/wGT5H8YLaOGt9FCAI6rhSZEZyDA/fTzbk//oHuOxdj0nfl5QNTVzEJQTeeG3elzdvXuUvJiVQJA35RVD1i/v370uBZ/r06Yn2i6D3U4qHubm59ImgNA+GYRiGYRiG0RUsQjB6jbjnA4efz6HhuL+xfsVUWFfIi/KtO6DDUHt8bxwnO/Vz585NF1PHNxCh8J2zANGN6+Dz6yvx85B/cT32GUJPhcF0zGR0LZtL5u6TAEFRG/o22kzfh1JaSIhIHV7iZsA5wPQblMybE6UatIZlzfIoZ1JAeV3b+WVSD6p+sXHjRuzYsUM+Fy1aVAoKifF7oPOHhAxPT0/Y2NiwT0RCElvdgpYr1wYuARHa6TBvzbZMSlUMFS7RyTAMwzBM5oZFCEaPicKpNauBobawLF8SxqWqo13XxggKL462HWri1IEDssoCeRqkOwYlYeW8FD2vj4Zp91DY/tUOufcuwdqcTdG6fCH8d+iQzN0nwST900bej2pQmTrREPcRuGo3bjx/gdA9/+JkZBQu/Dsfe0JfITg4WFmG0QWWlpbSL0IVFMgvgnxTEgN5TLBPxPt4gVMuE+Ad9iklYCsc2v4Cj/NPlOm3+UA5zzfgEp0MwzAMw2Ru+LaG0V9iQxDgcw03/byxKeA2XogYPAwLRYH8uUAVL+fNmyc7zoaGhtrl0wERdR4bJ3ZCOQMT1BuyHQX7uWFjxwvwcHXClPXF0KWpsRQgKMydBAjKvddXUj8a4iw2zXeC65qLuHDQB3tOf6hjxqQ2FNlAgkJ4eLj0+2jRooV8DgoKUpb4MHQcUNQOQYKZLsq36hevEJaw5Ob5MAQkLM8ZJR0qtchoB7VU5zE8ue0NOxN6nz28Q6OBwr/Dz7sKlv80B7tDX9AbcO+95Tzbwnn7qtfvDVzLJToZhmEYhsky8G0No79krwzbbbuwuOdXuLvWHo3b9pNeELaWX+OIpmNEFR3IpC3deHUeK35yxc2WrgiOu4Edw3JhnrUvjMf/BYdajTHEuSdyhl6WAgR9T30WIFRSLxric3w7biaGtmuNHr/2Rb3CeVC8QXdYmGrTZtJ1v2UhSKCjcpxkAkrGozVr1pSpFp+KcFB9IqpXry6PX1WUyJzcxeGEJTe3XEbM2+U5ExJfqvMGrh31hQflW4R5Y6HvbcQhBwqZDcaq8cBvZj9iGSLg/95ynhvQ89n+1+8NrIa/uUQnwzAMwzBZBBYhGP3GIC+Ma1thgNM67J03CD8MtUfbr3JJAYJG7dPPJT4G93wXYNTLWmhWtQRyG+REkRqt0LX0eZy/nw+VW3+PghFh6Nmzp+xwU/WCjEDqRUPkQrHyNVDbrAladOiIjh07o9fArqhdOLuswlCkSBFlOSYtoPOEKp+oqRalSpWSfiof832gaAp6D0XwUCoRmV1mTp+I4mjwRsnNctBqAW+V50yILNWZHcXqWcLWWDNt3ArdGhRTLqifwbjZcMx3t4UxPlTOsz+2GVm8fu/XAejDJToZhmEYhskicIlOJmMRcw8Hjofj24aV07/ChHiKEN85GPpPKUxz7YkKjzdjSK87GLJzIAqG3ZKh7DSSTAJEuhtnJgEKv6fRb12V0KSReIKMEJm0h4QEHx8fzJgxQ06PHj1aVpf52DGqHhMkqE2cOFGvTUW5RCfDMAzDMIx+w5EQTAYiDk8Ou+OXBWtQp06d9BUgCIN8KN3CAfN73sO0IeMw+bcDaLigF8q+eh6feuHk5JShBAgi9b0h3qV06dLKX0xaQ8cjCWTbt2+XvhEU5UAmlB/zfqBj4ubNmzh58qR8b2K8JRiGYRiGYRjmfbAIwegfry5i65JN8A95gjeik8UtbFwciePLpsjR27QnFlF37iHqjUHWXDBuNgKLHL5Dg6ET0KlUNgwdOlSmHFAefXqaZqYE6pySN4SuqiOYmJgofzHpBR2bJJapES8U6UAj7R/yA6HoB6q6QdE95C2RsX0itGUwbbxvKtOpAJfoZBiGYRiGSRQsQjD6R84SqGz6GNvH/w+dRi3EVlkZQ+DVqc1YkLOoXITCx9OWWESdWQnHyT648fQtozpkR/5KDVA+WySGDB0qR4upg6bPIeufgrYvRZts3LhRmZN6kLjB6A8kQFBqTGBgoBQgKlSoIP0fHj58qCzxmszrExGFgLdLcEYdg6tH4JtC6CfhEp0MwzAMwzCfgm9rGP3DoCDKWlhj3Pw/0CfbZgwzq4o6E/fgfEh23PdfLTtAaZvioOk4nFmOwT/8DaMebVA5/9unzWOc+XsWBjvPhceSJZgzZ06GFiAI2r4UbTJkyJD3dkaZzEeNGjWk6OTl5SWfixYtKsW094kMFEFBnizjxo2TkT8Z8xiJweW5/4OJAUUvPNZMCzw79Ktm2gAmo/7FvgVTMMyuFio6b8fOsS2k14SJjSfOHJiJqhYWaGRgC+cJVpp5v+AXix/gciKSS3QyDMMwDMMkAr6tYfQK8SIMp/Z4w33aQHz37TBsz98BM3fvwTbHbxFpWBWXTwWgQ4cOytJpxJPDcJ0eiv+tHA7Mmoi/T4YnGB19iTA/Dww/FAdfj5npb5aZiqjREKtWrVLmpB5VqlRR/mL0DfJ8oLQLNdqhadOm7/WLoOOcUjko8qdly5apUNY17cnfazHO+tXBuRuRmikD5P66NRysu6BXvfKobmGO2s7+ON/zGVbcHoBQEYnNVXdj641ooO54+AgPODhOxIiQTThhNQYDaxXQrINLdDIMwzAMw3wKFiEYPeIZzq0dh97tbOB0+mtM2rwJC8b1RUeL6iiVP4cM43dwcEjbKIO42zi4Mxb/W+iIVnXaYvziXoj+cxh+87uFGGmUuQg9l97DTo8p2LFjR6YRIAhdREPoymOCSV1o31O0Q3h4OMzNzaVfBIl/bwsNlMpBBpfkE0FpHL6+vsor2iocSYGWp/VT9MXbD5qf+mkfOVCicAHkL1QEOeV0HB77r8SIZeuw/GgoUMAQRR3awmpbMViXXAgTgwJoe7oZrL7MiVxGhZAXrxB2zAdbMRguA82QX66D4BKdDMMwDMMwH4NLdDJ6g3jxFM9y5Eb2+yfh9+8/WPTPfdTpbY0fOzbB48unpRke5a1T2HiaIR7j4gYXOG4pJ8twfpM/O0TUKayedwlmP3fE/SMH0LhpUzlqrFbEyExQx49GwsmoMjV+n+o5oKvyn4xuoP1GppWbNm2SQiCJUwlNV+k4cXd3l4IVnQuWlpZy+U95itD7Dhw4gHXr1sVXY6HoGxI+VBJ6iFB5yt69e39Q7KOqHf3798exY8eUOZkLEoLc3NwyfLoXwzAMwzBZGxYhGD2BjOHaovPemhjR90d0blkTJRCGE9uDAPOW+Gf6GNkR0oVR4vuJRUxMNuTIYaD5m1IuXPDTyi/ihQiCQtRphDizChAqNBJNYfk0Kp7Sah+qCPHs2bM09vVgUgM65ocPH47jx4/D09MTXbp0eWM/UiREixYtlCl8ND2JjqsZM2bIv0nkonOJjo33HRckVpw4cUKmiVAbQNVVSAxJuG5VMCNPlitXriA4OFh5JXPw6NEjFClSRJqIMgzDMAzDZGRYhGD0AKXyxB9A/3Hf4PaOtZi/+CK+GTQMA7s2Qc6IMJQqVSpN/Rbirq6E9W+PMXi6HRoY59LMeYaLHvaYVngyPDuWkiOuFJkxbdo0jB07VvumTEpqRkOo242bnYwLHQ8+Pj5SmKKoBYqKIB8J9bWuXbtiy5YtcpoiF6iaRkIoJYeOIypjS+8l75GkCFL0GWrUBa3fyclJimNUqUONgKhbty46d+4s/85McPQQwzAMwzCZARYhmPQn7jw8rGYi51/z0esr6vC/wvUVg/GTf2NMndQTh1fMx7Jly+QoqM5Hz8UzhJ0LxOlb2WBc8BzmzAhFN9fhsCz1AgcnDcXO5q7oX/a57HRRHryrq2uWGNFPrWgIdT3c7GR8yCdkwYIFskJG+/btMWnSJPj5+cl5ly9fVpbCG6k3aiQFnTuqeJBc6PNHjRoljTHHjx+Pdu3aSVFk0aJFaZuyxTAMwzAMwyQJFiGY9CcmAC7198DiiOoO/xhHpg3GwZYLYFv2lSwVSGUD1dFWnRF3G7t/G4sFjyqicdlnCNh6H/Xs6+HSorW4mT0vPu88EcMsDNEriwkQBHX4aD+kNPWE1vPgwQMe0c1EUIoN+Tkk9G74999/ZWqFmhJB564u0pcoKoLSL8gUlgSI3377LcuckwzDMAzDMBkVFiGYdCYWMdGh2D50KA62mYNJrUsDId4YYX0ZvTY7ImzXxlTzI/g4cXiy+1eY+TbH8d+boZBBHKIC/kRb1y+xcmEzZH+RGzninqFVy5Zy6TSJytAzyBAvsREp1Dm8efOmMgXZGc2fPz/KlCmjzOHQ8swGGVGqQgQJAlQ1Qz1nKQWDUqrIR4LSelIb9dikSBs2bWQYhmEYhtFvuEQnk67EXV2FLv2Po/r4YTDe0BNG2QqhyuBAmM//CfULZpPGdTRyqlsBgojD04go1Kr5FQqSF6Xm1Mj3uQmKa/4yyF0YBXMJjB41il6QHZ2sONrao0cPaUhIfgBvQ6PhtF2oI0r5+Hnz5pUj4eqD3jNv3rw35hkYGEi3f8rlJ0NDLt+ZcaEIl4SREHScqKaT9BpFQpB/ii4ECMLOzk5GJ02ePFkKYAzDMAzDMIz+wiIEk45E4fSW7SjRqR4+D/PHyqJTcCPyDDbMHIaOlQvhv0OHZGeGOqq6RERdxcGDV/GZ6de4uXAN9oY9RUzURWz5ay0KtK+NgppOzdChQ2XueVYeaSUhiMLeq1SpIqdJNKDRZ9o/JCrQ36VLl5bh8eQDQBUwKNCKHmROSFUN1GmKbKFlBg0aJNf166+/ypFyWhcJEtRxZTIOdGyo+1Z9kOkksWrVKlnNgrwgdAWJgpQeRefo+0QyhmEYhmEYRn/gdAwm/Yg9C482feFdrSMa3AlEgRF/4X83p6DLVWvsHFoDXTUdUgrZ12VJOvFgH363Xwl0HYR+7Soi5vgKOI2bCfcndTFa0zEe1r4ipozShpknNNjLyiT0ACBDQhISzMzMUhytQqLG7t27pdCzadMmGQFD0Re6j4JhdIXqJZJWlW3o2KEIjKyYLsUwDMMwDJNRYBGCSV+oGsUJX6xfsRzet4ui9INYNF8yD/VibsjR9cDAQB063T9BgIstllT8E/PalITMwhCv8OJVDuTOpQ0SolxzKgWYluVB9RUSCWi0mcQHBwcHWR5RV6IMmRjS55AYQWH8AwcOZDEiA0Lnz65du2QUTFpAqRhUTjZh2VCGYRiGYRhGv2ARgtETYhAVEohdJ3LAvENNTHd0lCPuuum8xCLq7G7sQ0m8dHJD9NQ/0a1UTs18MqeciA4Xu2HnwCqYzwKEhDp269atg42Njc7Fh7cJCgqSpR9DQ0O5Y5nBoOOGvEHS+vyhtCASP44dO6bMYRiGYRiGYfQJFiEYvUMN4Sb/AUtLS2VuaiHw6uIK2M14hVGunRG31gG/XGyDBb82R/F7e+E8fBsq/zELOQO3yqocunLzzyhQ9AOZ/VGuPXk9pIcYQ51ZyvOn/UEiCH0fDrXXf0hAqlmzZhpUtnkTOmbJX4Sqs3ClDIZhGIZhGP2DjSkZvYOM7KjEX5MmTZQ5qYgIhe+cBYhuXAefX1+POX61MaRKAMaYN0Tb306hpvM0fBHqLzu85EmQlQUISolQIw+o3GJ6RYOQ4EDfgzqVFB1D4fbU0WT0m1OnTsmombROoyHhgbxKOBKCYRiGYRhGP2ERgtEraNSbUiDs7e11M9ptUBJWzkvR8/pomHYPhe38XqhjXBCVJ2/F7r9Hw+h+MBo3biwFCPoOWRUSIGg7kAhDlS30wY+BOperV6+Gubm5FCVIkGD0l+DgYN0IiYmA0oUohYdhGIZhGIbRP1iEYPQKtbxemzZt5LMuMMj/NdpMWISNHS/Aw9UJU9YXQ5emxrh965bseNPorZ2dnbJ01oNy6mk7UC6/vgkxJExRtRQSR8i4lMQSRn/Jnz+/8peGmDAcX/orupjXRV2rQZi99SKiPpIMGBO0EA6bb2snngbArbMl7NXpT0ClYkNCQpQphmEYhmEYRp9gEYLRK6i8HkUh6HzkPccX+G7SX3Co1RhDnHuiUESoHF0nAYIqQGRVzwHq1JMBpb6bcZI4QsfJ8OHDOTVDT3kzUuU5zi+fgiXiB8zfcRj//fMLvjnhhN/33FNe/xDPEOQ2A5uOHoKP+Uy4lNryWpj4CCYmJspfDMMwDMMwjL7BIgSjN1AH+Pjx4zowo/wABoVQufX3KBgRJgWI6tWrZ2kBgowEKQLCy8srQ1QDISGCIiJo37EQoX+8WUHlIS4FGKJN6+oolis7cuQ3xXdtayIoeC9cHTbjbkwQ3By8cXRFP5iZmaHR8M24E6e8FZEIWu2Nu0tXYsdDzUwRis3DLTXLWWL45gs44dYLnTtbwcxesx7lHQzDMAzDMIz+wiIEozcsXbpUVj9Iq/KPBHlQULUFYuLEiVlWgKCKJP3795fRBdSpzyhQ2gyJR7QPaV8y+koeFPviNg4cC0UMTYoIBB86ic+N8sLgwWNEPn2ChzE58Hn97uhd3xAvA2/gbnyqRgHU6N4RxXv/iBaGmkvWk3PYceChZv5DHFh1ELdFblQbugz+bm1RXPsGHDlyRPmLYRhdQyLw9OnTYWBgwI80enTo0IHTERmGydCwCMHoBRS6vWTJEulqn1ZQp3Xo0KGy/KS3t3eWLuc3atQo2ZnPaF4YJBo5OTnJfeju7q7MZfSBwoUL4/z588qUIerbO6D2gV/QoddA9OvSG3Ne9cLvnaqhTOFl+J+NK04hBveOrMbSO6aobxyGW49ilfe+RcFKaNGE0rU067SqgWIGuWBYMLf2tQTUr19f+YthGF2yceNGef189uwZqOo7P3T/IG8kilxk8Z1hMgcZWcglUZSiqZOKgaYx+4g1GMOkDXTyUUk9uplJC1QBgoQPKv2YlQUIEmDIiyMjCzHU+NWsWRMXLlxI00ga5sOox9UbpTLFCzw4sxPL5v4Nv4eV0fv3sehSLq/yYupA53bevHmlr8mXX34pU6xIkPjqq6+kmWlWjXZiGF3h6Ogo/ZS47U1beLszTOaA7mH/+uuvDJsSTlFZFM1O1fSSAkdCMOkOpQKMGzcOgwYNUuboHho1JwGCOipZWYCgbU8dxdGjR2fo7VCjRg2ZykM3ZYx+ULduXenx8oZBpUFuFKvSFiMWrsXapePROZUFCOLEiRPyuVKlSnJkliIy6BgnkYrEiX79+sHNzU1eNOn4ZxiGYRiGSS+uXr2KVq1aZdhBEvKRoz5VUmERgkl3Vq1ahTp16qBJkybKHN1CHZAhQ4bofQWItIC2PVUSyEg+EB+ChJRNmzbB19dXmcOkJyRqUXrV+/0ZciBfvlwwUKZSk8DAQClIUYUdGiEcO3asjMagiCc65yntaNeuXTKUuWjRolIsoUgsOm7Y4JRhmLThJrxt2sAlIEpOxQS4wMxlN4642MTP0xKDMO+f0dWmK8xsbNC1qw1szFwQIM11GIZhUoEwb9iUU9uVKARQO3RkN1zeaWuo3eoKG03bZWPTTdsuuQRovb6SAYsQTLpCodPLli2TVQ7SQgGkzyIBYseOHVlegKBRYNoW1GHLDFCn09PTE/PmzVPmMOkNRTdRyde0ijigqAs6pnv06KHMeQ2JInTOU1UVSvsKDw+XggVNX7t2DS1atECpUqVkfiNF1FA6Ca2Pc64Zhkk9IhDgujwJIkI25CtcAqVKfI5SlSqjTKkSKFbKEAX47p1hmHdIavuSVPKgcMlSKFGsJCpVNdW2S4b5ki0mcDPGpCs+Pj4yZPt9nYbUhsKvqUNEFSDSrAyoHkNREDRSnZnEmDZt2shoCHYN1w/oPKNjjI61tIDCAUlUo/ScT0GiFS1HAijlMZI9EnmKUIlaglI4yENCTeEgAZNTOBgmK/EKt73tYULmazbeuB22E2MtTGBgUBU2HsdwwMVCa8xmMQcBT67B266qZrocbNYfUf6uCjvvw/CyKacsNxsHDnhg5DBrmFVciCvxZYjf4sG/CUYls6Fgs9GY5eSGDaNHYeYsJ8zaYIvyfPfOMMwbxCEq4G+lfXHC9nXatsvEzhshx11Q1cICjQz6w919gLY9in+0gcupp8o63iYODzYMRLn4aIdiaDZ9FpxmLcTokdO17ZJtRRYhmIwJ3dhPmzZNdgh0CXUeKPyaBAga+czq0OhuZoqCUKHjiPYxGeQw+gEdY3SsJcc5OSnQOe7s7CyN2pILpW9QahI5z6spHBQ1VbZsWRkZoaZwkBM0pXVxCgfDZGbu4uimHHALjYbwbIdsh7fi9pCjENFLUXXeLtyIbQKv0FD41b2DG9f8sSlmMkLFZXg2CsUmj2DN+4PhsfAQwkQbzXKP4G91Ekdz1YFVbWf4nx+NZtVz4tyNcM1tfgRO7tmr+V+hWDt4Xh6J2jmUaYZhmE+SDfmrf6u0Lz3wbMt2hGnmhnmsge/NaKDuePiIeWhdJA+sva4i1GuY8lwOp58Yomqe67hx9xUQdRZ7tt7RrlKzzmI/LMDlkbWhi+aIRQgm3aBOA41ad+7cWZmjG6jzQ50H6gyxAKFFNe+rVauWfM5MUAeRRsS5c6gfUKQNCUP9+/fX2T6h9dI5Tuk4JCTQOU8pFeT1QOKBmlqRVCiFg6I5yFdCTeEgXwkSKqgsrJrCQb4SCVM4GIbJDBRHvfYxsDfJCYNyf+BWXSuUnFsPBjl74/Sg5vgyOy2TB4WMcgHFaqN9joly5LHcis/QxraK5rUqsO5WA4YGW9DJpAjMttaARcViMCw6G2ZW/yB7m14oNrcBshvQa3Ww6McayEmrfCMSgmEYJpFky6e0Lz4watcSxppZxtZWaGCUHbmMCuGDVuDZy6Ld5IKY+0UuGBTogK0NRuLHWoU0L7wdCZG6cIlOJt2gEGciqSVdkgJ1TqjDQGZ0GbX0jS6gzlnBggUzrShDQgTtdwq1Z9IftSQu4eTklKqRT+o5TvucxAKCPq979+5S5FQh/4fEpGkkBfocipYIDg6WBpwUiaFCERlktlutWjUuDcpkarhUZPrA251hMgc0gEHQvUxGhVI7kiopcCQEky7QaCGNVvfu3VuZk/qwAPFhqCQqjRxnVmi/HzhwQJli0hs69+gcJFq2bJlq0QIUTaWe48OHD1fmaj9v0qRJypSWe/fuKX+lHvQ5CVM4VF8JNYWDUjbU0qBqCgd9Z11FhDAMwzAMw2QEWIRg0gXKpdalKSKNUKqKIgsQb6J2AGl0NrNSv359KXLRccDoB6oQQZ1xOvZI+U/u/qH3UYeehDTVWPLtc5yiHigFi8r/ku8MpU5Q9JWuBQASJdQUDvKVUFM4mjdvLlM46DurKRxqugincDBM5oBKbZYjo8oocp3Ulte08b6pfTFZcIlOhmH0BS7RyWRw1NKQugqVpw6KGvpNN/gsQLwJhY5TCGdm3i5qeCqNSjP6Ax1z1DmnChRUfaJp06byHE1sxQlajpan9+3atSu+xOaHGD16NObMmSM/k5a9f/++FADIEDetBCpKPVFLg5JY8uzZs/jvHRERgU6dOklRhkIZVV8J8rRgAY1hMgrkSu8Jj4Ao7eTeEWg7eDnOSyEipXCJToZhUomoY3D1CHxDNIgJcMXARAulqVuik8JHGSZN8fT0FHXq1BGam3FlTupB69R0sOX6b968qcxlEuLg4CD3QWaHfqems6tMMfrAtGnT5IOgc5X2D52rdCmi85amNR10ceHChfjHwYMH5fFKr9NytDwtl5z2g95D66L1tG/fXq5fH6DvQb+Jto26PdRtMnfuXLkNwsPDlaUZRr+gtlZfzqXEEHvLS9ga0zk2QHjduiH8xljK883YeqkI3u8kTOX5ZyWc/e+KW16DhTFNW/8jTih/G9t6iVuadVjL5YyF+TQPMdXcWPO3uXBaPlXUdt4uDjt3EOZjtgr/dcOE9bo9wt2SXq8ibL3+E+utTeXnxT/MZ4tjF9drv5PxYOF14h9hbeos/KOVL/wBMtp2Zxjm/dD1nx6pT6x47DdG2245bhJ7na1km2PqtFzMqNJQmDesInrNnCQGeJ0T/s7mSns0S+zbMlrb7uEr0cXhR2Hq7C8+0RzJ9yYV1lKZNEUNo6YoCF2MxE+cOFGG4S9atEg62zPv8ujRI+TPn1+ZyrwULlwYoaGhyhST3tDoPnmRVKxYUU7T+U8pU/v27ZPpCuTr4OPjIz0UKDJAfVD6Avl70OsUQUApDvQ+ej9FDVB7ktioAXoPtT1kJmlkZCTXTykR6R11oPpKqCkc9P3UbUIRH7QNqDSomsLBpUEZJrnE4O7R/YhxC9HcMS9Ax2z+8Lw9AKEiEpur7sbWGwZo7nUdj/3q4NyNawlKdDbAtU2vS97tuB4NWHshNHozrLzD8GXL7+HsvxkjKuXSLFEMZiPcMB5/wqzLFiDb52g80gHWxsHYd/UR4kAlO6/Cy3qY9rn0NZza7wsPuXJvLAyshr+5RCfDMCkmG/JXsoKDdRf0qlce1S3MUdvZH+dHVEJ2NMV4n5PwaFZEWfZ1yeGQ5wJ5rZ2xzssdUycs4xKdTOaAOhPHjx9Hjx49lDmpB3VGyJ2ebt5T2wU/M0EiTZUqVD4sc0Od3ZCQEGWKSU+ok08lOsmjQfVqUSFhIGG6ghDinQfNp9ffPq+LFy8uU7soPYMMHxMLCZS0Ti8vL1l6k95PHXt9gb6fuk3U0qBqCse1a9fiS4MmTOEgXwlO4WCYT5EDxet9ixz2pTXnjwVcblWFTcmFMDEogLanm8Hqy880y2RD3kJFkBNGCUp0rkLeNq9L3jUsrrklX9YJJjnbYuv/vkUVo+dwMLPF0hvR8lOQrSSajZ0Fd+viQNw9HHT5CyHf94DpuVt4TGOGb5ANhWo1h61ceSt0+zoAfbhEJ8MwKSYGdw8vx4hl67D8aChQwBBFHdrCaul1xOUyRKG8b8sAVHIYCDt1GleWOaBLJ2esmN+XS3QymQMypaNRP3KST01IgKDOCAkQujK7zCxQx+XChQvxvgmZFeqYUdnE1D7WmKRDHeW9e/di+/btHy3PSUIAmTomFup4UzSDCokcSd3f5DNB/hQkYNL7yUciNUuI6gr67WppUNq2JO4S5PdCpUFNTU1RqVKltPktMU9w8+JVPMxZEhXKGSG3gTKfyRJwqcj0gbc7w2QO6H6VeHuQJiPBJToZvYZGKqluP100UxPquJAAMXfuXBYgkkhMkBvMzcxgpnmYuwUlXel8ehl73ezRKEnriMHdzeNgv/m2Mq0bKOWEqw6kP3R+Ugd/6tSpnxQgaIQ/sSaVb0PVdpLTttB3IuGCIg2oM09pD+oNgT6jpnDQd1dTONTSoPT91RQOtTQobV9dpHCIqFPw6G+NX1f7YMvi4eg2eCXORMXg1cWtmLvjGmKV5RiGYRiGYVRYhGDSDBIgqKOQmqo9CRvUcSEBgkKVmY+jdsqLFSsmn4l8vZfgiL8/9trXeCvn6zGCFv6DoA+qCi9xecMsuEV0hvcxf/i/dx2J4SmC3GZg890PfVAcngatxoqgp4gJWgiHRIoXZcqUkccck36QoPDrr7/KEpkfi3CgzjGdxwQdR4klb968sgQnRTDQvqbp5EKpHuRPQW0JVaygzntGErEohUMtDaqmcFBkGAkVVBpUTeEgX4mEKRwp4xnOrZgBX4uZcP9tDMbNXII5DXbhhwVHcX73Svg/zYHstNiTvZj6P0+cJUUiJhzXb0VJRz6GyYgkuwxnmDdsbLylr0Ti4RKdDMNkTliEYNIEutlVw51TCxIgaLSPBYjEowpADx48kM/E06V9UV9GMRxGgFtnGdFg1nkeDh9eiamLndG3+Wysde2Fzp2tYDbQFTM0z/ZTRmmm52D7oSKw6dcYxeNbkle4u98ZnWkdjYZjxaUL2Gxvrl2n+ui8EMEvX+LI5Paa6e6Yuv8O6FYu7sw8JSqjF9xOnMCK7o00f1ti+Pod8Jjqhj/62mDexVeaJaPf/Izzh+BmTu9rhM5uAXgqvwdkOUbqoDLpx6hRo+Tz8OHD5fP7IB+DyZMnK1OQRoyJhTreJBzQ+0ngTLie5ED+FNSWULoSQakeaVnOMzWhCA+KDCMjTrU0KP0uSjchEpYG7devn/ydSS8NGofnUTlhVtlEER9zo3TlbxB3+gyOH86JplWM5NyYS/5YWaIESmSPQMAfNig7citusQrB6AMxAXAZmFAY0Byjrss/3clP1TKcH4NLdDJMloTapsQKjlEXsdPFBiaa6zld01PFw+G9n38T3jZdYWPTRvPophVHU/BZ3IwxaQKFAlOHMLXSJWjklDo2FH5tZ2enzGWSw+tIiGrIDjNM3LoVs6s9wIMv68G8eG8s2TUA5bPlRrWhy+C/wB5Dfm2DO/+GwvxXW7Rs9Aieiw/iruY+LO7uUcx3W4K1ayNgs/UIjvxlitU7bmi6KY006/TCxPottM8lbiPsxWeoP3ETjixphMOn7imjojlRZ+IG7JldDVdu50P9AT1RP9dDBN4pjIbmNdF7iScGlSfTsHAcS/gZvrcRV2citu75HdWuhEKp1I67d+/C3NxcmWLSGhppVyvVUOf+Q1AaQZEiReIFIxIrk9IRpnXTY9KkSfLzqK1JKSTWUTQBGVfa2NhI40rqoGdkaBslTOGg3E0SJdQUDkrZoMokFE2ipnCQ0PvxFI7c+LJWWRxY64uLEa8QE3UJ29cdQr0WxRF+ugIqf0mVAqIRdvkKqjf4GtkPL8LIc1/A9sRJXIrUNBqx17Bj7g5ckzkbL3Btx3LsuPaCJhgmxVDEQlULCzQy6I8l7oPkDbqJ3Xqc9xur3KyXg82GO5oln+DQKDPNtBmGL3DDyGHWMKs4HSuc2sDCQjP/RydM0DzbjLLXTM/BiWdxKOy8Hd5VN+Kn6bsQSjpE7CmtmCFFjXU46T1QdgZeP9rA5dRTrZmlgQksxu7E7VvesDPRvGZiD++QI3Cp2ggWjarCxn0RbOKNKbOhYLPRmOXkhg2jR2HmLCfM2mCruSbTawzDZCmijsHVI/CtTv8LXFw7GdMf9kRArNbMO3HVLOIQFeAJjwD1rjkx5EHhkqVQolhJVKpqqhVHDfMlW0zgZozRORSSTZ4N6ghcSqGbYrqRpvJ1rq6uH+3gMJ9GjYQws/eBNhs/Nwoaajr7BnlRuOBq9O21BjdFLhgWzE1KAwK2/Af0/hl9anyOcj+MgE3cQljVNUPdjsuBBm3QqWtheFrVR/3BV9C9xZcfaGS0kRDaZcpqQ7Yl2ZCnYEHkEPdxZOE/uFOzDoyvhOFVoZdY2vdnrLpJvZWiqJvwMyxLaj8jT0EYJj0XhNEBdI7SSDtFKX2qUg11jKlTTMaKnp6e8VEISYU+hyKtKP0jtSIXqJ2htAYSs6iDTmkMyfWs0Edo26spHOQroaZwNG/eXKZwUKSZmsJBpUHfTeHIgWIWIzCn2VVMqFsURcwn4lit37CwqykKFriAoNM3EBZ2Cjs3PEbTEqcwZdjfyFfMGAVK3sD1O6+Ae4FYteU2oqWR5X0ErvLBtadXsWOeB7x3B+DSgwhcZWGCSQl1x8NHjIfhfl+lvOY/8Lsdq5SfW4Jx33+umZsXX3fqA2vNudCkaRNY1XaG//mhqJQ9r+bt2yFWOsDR5UeEzLwOK5c+qCUd5d8qw0ncjUBk1GPclwUycsPa6ypCvYYpz+Vw+pamXVLLevoGIvhwgrKcJKYrJfM87frDk0t0MkzWJO42do9tAYOcZnCIiEHI312lkGlitxw+86ZgmF0tVHTegnV2VTXzq8LOOxCn9xlp+lkWMI6/4Y5CgIsiolovhLu67PrdWNLCRPv3qs2YN3IM7Mzawnn7qteC6M3rCT4/Dg82DEwQWVEMzabPgtOshRg9crpWHLWt+IH7/ERA1TEYRpdoOhY00C2ePXumzEk+N2/eFHXq1BHt27dPlfVlRWjb7dixQ5nKvGg6wGLatGnKFJOW9O3bN0nnqKbzK9uIwMBAZU7yUNdD+z61oXOG2h56eHl5KXMzN7T/aJ9QG+7g4CC3rfqgadoO9PqzZ5Ei8swa8bNVOzF4zTnxUsSJ6NDDYtnUn0Xv3iOE88ZdYuVP3cXUXRfE1eD9Ys2obmLY9lDx2G+MqDj1sHhBH/bYTzhWnCYOX18vrOsME/M83cR455XC3bq7mH/6jNj+l7vw8vMXF0IjRbT8doy+QMfChQsXlCn9IdrfWdR29tccLy/FLa/Bwlhz3BpbzxPrp7ZWjmMr4Xx0j3AesFAssTbVTNcWjjv/E+6WxgKW84SXk7Vw9o8UIvaW8BtjJcydjwrNVIL1aog8rTlGGwrrdYeFl20VgYbmwtx2rQjyGiasva6K0ITPSxYKa/m5VYS1+2nx+JaXsDXWTBvbCvfgvcK5trPwp5WGeglrU+Xvj6Cv251hmKRB19L4+wo6/629RGi0v6ZNmCn2n90unK01bYumTTh6RGl7aBnlWgzLBWLH4h7CfIyvCI3VNFehB8VszbXTy7mLcPS7r11f/LJumnuZ2cJa0+6YOu8XR5ypjXukWWSA9nUYC8vZrqJX/Od/uh1SofcnFRYhGJ1CN7F0054anQJaF3VuaH0kRjDJQ+08ZHayyu/UN1TRMSk3x7QsvSc1zmva50n9/MRCbRAJW7R+aouyYjtE25W2MW0HaotpW6jbY+5sF7Fz30EpBr1B3FMRdjNcEQ9ipfhQRd4AdRTDtt+Rc2POzBfmw7aJ65rXjM1HiWV+J0TI7Z2vhYlW44XnCjcxYdhScSLkgFjq7iV2n7nHgoQewJ3h9IG3O8NkDuiaGn+/GntdK2jStdX0d+G9qIuAeQ9hbTlMrNu/UFiSULDET6yXy2gFzcjIc8LL0VL7HmNrMfvoBXFUCgwkoqrr0yy75F/xl6WpMLfuISxt14j9izXrRhexZP+a14LomeAEn+8ktq8dIExV0fUj0PJJxYD+07yRYXSCah5JYb4pqVdP4dVDhw6VIcIUEkyGdEzyIAO64OBgGQKfmaEQ8jlz5nDZ1jSEQvXJ7JDSKsgQMbGo5TlT43JEbUX37t1hZGQkDRl1Af1OSs2gihz0W7t06ZJl08Io9ebGjRuyxCmZiqoVaerUqSO9JciMtnLlym+22eIlop7exNa+djjcdjaGWX4F7B6FgU8HYdYrFziLruheMALRRR5htm95LG13AE3+NMTi6V1Q19QYL7b9jE5Hq8L2pS+CWy3AHy2KKytm0gM6F8ifidJ7mLSDtzvDZA6oX0NQCmhGhVJGknoPl+w0DoZJDGpFjJQIEAQJEGQ6xwJEyqlWrZrcL5kZ6hiRx0ClSpWUOYyuoc6/elOcFAGCuHPnjnxfapDaJpXvg276V69eLQUIMq4k0SOjG1cmF2qPSeijqiJqaVASJGj62rVr8aVB6QaFjg/pK3HpBrJnK4QGw8ei4cs9WDByDgJMf8KcVvlwZq8Bmn5niZY/dkeNyDP4rFpx3DtxBvXrFsZtn0WYt+8qbpy7hi9KGsOwYDY8ekoVc94mDi8eXMHJk1fw4IWuqxcwzHsgg8pybeASEKGdTlZ5ToJLdDIMkzlhEYLRGXRTTqNiKe1ckEs7dSjIMI0FiJRDI9XEmwZzmYuzZ8/Kko0pFb+YxOPu7i7P94kTJypzEg9F5lCFjNRCFyaVb0NiB4ktVN2Doi7IuJLMG3X1eRkFOudo+6ulQWlk5MKFC7LSCDFjxgzZBuXN9zl+W7IeL3J8jnb9W6DZV1+icgljNPhlDFqXy61ZMhuKNLDHnFYFcNU/AiZlasLCZgxGNY9BkG9ulLnvhXEXO2Jiu7euCeIxziwfgdZ2f2LLlnkY1LoPZuwn078YRN08iwAWJpg0Yysc2v4Cj/NPlOm3SYw7PZfoZJisi1aEtPG+qUxTicyf4R2WXipkJinRSaMhFC79unwRP5L7oE66Pt74rlq1SnYEUxIqSL+NKmuQAMFh9akDdZ5IGDpy5IgyJ/Oxbt066fDPpA0kONJ5Sh3N5AiFe/fuRf369ZWp1EGtxkPiiC6h30udbSp1SZEAVM5TVxEYGRW6BqilQakKBwk3amlQuheglL2iRYuiww898e/R3Ti1yxe3boUhf+lqUpho6DAR31LExKj52H/2NPbmbou+44bB7vJJXHrypqAQd8kLIxaYYs66PzFu3Cz88+9ktP4iFuc8hqLjryuwe8s82HcbieVnHkPE3cYBDx9cfMVZqUxCHmC3UrJz1K5AeEtn+XKwWX9c6xqvue8ysfHE+ctesJH3YSawcDmGJ7cTlNwMjQYK/w4/7ypY/tMc7A6lCi8xuLd7MizoPSZ28DixDwve504fuJZLdDIMkzrIssEJo7Bei58xAa4YGC9wJIbULdGZLsaUZOZFzunvmFcxSYaM0sicSNNJV+boB7SP6fBKyfdSDe7izVqYVEN1+s+MqBUS2LArbVDNZ6kdSg70/pS2FR+C2o60PBbo2KPtQJ9Jz1nRuDI50Haj/U9tft++feX2o4d6XNF+VPdhXOR1cezMXRErIkXQnz3EwM23RJx8RQtVLqipVtxQINPLb7utEFeiack4EX1lhehe508RdJNcw8uIDssuatanWe7KRjF9w2URo5l6fv+yCAq6LO4/p1eYj0H7KHO1ty9F6FE3YW05RngdXKF1qqfZqmu95tjzJ9O37SsTuNhrDdy0x66xsFy8XjhJZ3nNuvwmCXOab01VOIYJr9BopcLGB9zp3c/J4/FTZL7tzjBZE7rGve7rPBcX3MkwEsLYdq04sV5tGyzFGL9jYr2s5KOZNp8kfLf/LqqYm4uG6CcWL/lJWwFIGk4OEI5+Z4Sf4wDhfvaQcO7vKmZR1R9UEbYrNwonc/rbXDgtnykGeF153UaRMeW5UE37Zq58hovYvrK/zowp00VL1dx0ypERDpVOOTSqTSOId+/eVeboBzQiSMZktWrVUuYkDTK0pFzruXPnZmijFn2FzOLIMyEz5rHTqHpKI3CYxEPmn4QaeZBUaFScoJSG1IbaDjoW0soDha5pNNpPngh0HJIXgmo49XHi8OTwn+g/fw3m/LIqy43M03ajSDc1hYPuETSdq/hjqlOnTjKFg0ag+w+finP+23Eq6DLK93HBuJr5ESuX0pLDtA7abFuJtecfIkZzDxXz4iWin0fhqVlFlM5hoFnCADlKV0Sth2dxPugsTvZtgcKzVuHQk1e4F7QTex8+xNl30jmu4PIOD3h470bAxTBExWSt/ZP1uIvDf83BMl9fHH1eGe1zTISJ5tgrtyIvepZcqPm7ANqeboY2prmAZZ1gkrMttv7PHA0aWsJW0wuAcSt0a1BMGR38DMbNhmO+uy2MURhmNkUw1yQncrY9h0FtKqKI4XM4mPXHNiOL1+/9OgB94iMhGIbJWnwGk8Z2cLaugrB913AvLjesvUIQ7f89fE/c19wttIFX6CP4W11F4H3N1a/uePiI8TDc7yujHcI8vHCpVgfgt8H47UxdNKZ2yqAI6o10gLVxMPaFGqKp1fdw9t+MEZU0r+E+Dns+wpDQaERvroR5Wy5rrp1NNJ8RCr+69/DU4i9cHlkbOeR3S2UUMSJNIeWWFFy9JYm1UVNGtFTA41Um5bMPH05Qh1qFVPgu1sK6dhfNs+Zh3UWWX3lTQUt/1JHo5H4nGhGj9+ui1j/zGjoH9fo8TAbqqLw+nQ+ZGYqooXOVnpOLug5dQdeblH7H5EDHohrNRZF/Hx2xjDwqnL/vIcY7tNQsP0COlDJvQtuP9uHbpUHrVS0rKhuZiFod7IXrCl9xLzpaRF7ZIf4caClMkV+YDvxXhN7dLAY2HC28LoSL6OgIcWXzr8Kih6fYMc9aDNt+WZx37yt6LNsvfBy7iJnefwnLhq4i6KU2viIu8po4efW08LLuJsZr9ue8Cb+KxVs3ib/cvYSf/w0RmTAMI4vCI/LpA293hskcvNmPUyIhZFnOIWLJ4n7a652MUjijuRZpIyGMrZeK4P1OSl/xpbjlNVgbCaGZfy4yXEZrOfrd1/YrZSTEu6U5F3u5fCASYrzmPuSR5nmcWLJEd5EQ6VKikwzxyGhQb0sEUv5M/T2wODIStZMg/VBujf2NH7CgYylljoaoY3BdmxODbGt+QEUi0xF7NLnaD+dJaVI+u7EbYH/QAkcSqk9PdmPs5B14eTUXjL9+ivuxL1FhgAsKB2+TL+tLxACN/NHIVXgyynKqJf7Is0BX5fUYLeq21tzEZJqoAcrFJzPCffv2ZdmSiWnFw4cP0bJlS5ibm6eoLaf2gsrGUvSUriDDSFp/ehwXCct5UmSXnZ3dW98hCiddbTEhqhqyn8iN1lVPIqLNfIys9RQH5nojums/NCuhkzGIDA0df+fOnZNRJ1S6me4piJpmddD5hw6oWLEiqlSporRtsYi66gcP51lw3RmNRj8OwqiRNXG6nwvg7IpuhQ5jQiNbrIrphvkLCmHUwW9xeFx90BiRRHPtHVVlHowWT0DnumWRzdcBA8/Uwf9wEH4VOqHZ2fOIrV0T31Qsh/JflUKR3FkrYZ9LRaYPvN0ZJnOgRkxyic6sTNxtrelQTjM4RGgmQxOYDJ33xSj591jsuuClnW8wEOt2OKGqhQUaaf7e8CAWeOSTwKjIDwcWTMEwu1qo6LwdOxMaGkUch0vVRrBoVAPDjnzIGfkuNthQiSfl9YLNMF2aEk3ByJmz4DTLDbblyUVcfyCDTHI/p5vtpAoQVFaxZ8+e8qLq6uqqzGV0Bd24ODg4xN+8Z3To2CMBgkoDsgChe+g8JyZPniyfkwsZpOr6JnrgwIHyWdcmle+DfhsJIF5eXtK8k4wrX6dBCby6sBaTNpeD2YmTMB/fF1ZVi+L0jQd4csQTE04boeTV+bD//V+ceRStvIch1BQOOt/VFA4SJH4eYo+IiIg3UjgcHcfANygK3w5wwunTW+E5uTMq5y+OBr9o9kfJnJpraz30dmyAu9WroWK1eu+kc7y4dAL/1q+Bz2/7Yt68bfjv8FWULvMVTMvkxomwomjdzwK59o/H4EmTMKDx0HR0Ls+gvGOcllSiEOBiIfe1gYHF63umd6DlJrxn/yR0nI9D1HlP2Mh7vI+t6xNwiU6GYZiPwiJEQu4eheftAQiN9odz4Tg8POoLD5lg442Fh/LgBwdbWPaqiTwB+xHjFgIhFuCHYtmVfBzlb8LaS7OOzbBaE4hcTcxR29kf53s+wwpat4jE5qq7seUiOSU3xXifU1jVrQbynLuBu3Gai9/J/diqXLOA4vjBcwtG1s6vTOs/J06ckF4DHTp0UOYkDhIgSAGsXr26FCC4E5k2kOBD+fKZwRuCKmIQXbp0kc+M7iDVno6bRYsWpfhcpUiB1K6M8TbUYSV/ARIB6PPSA2rfKDqMIkeonCeNYj58eB9PHmZH25Hm+KrHJNhWLwRDk89x+j9PuEy8joE/l8DmSYdhbHIVbj9NwD9nH8scBOZd6DhUS4NSZA6NyFCUF4k/hQsXlqIZbfe8efOiX79+cPtrKW6+eoTPIh5q3p0LX3X/C5fc2uCLIo3huLwtHv3ZHRUNCqLi8M0IvHQWT02+Qg0La0z4xRS3/Ixhmv0CjkS3g9fAujAq8znyPCqDvpP+wlp/N3Q0zqKRKxT56RGo6TanAkleV2k4+0dq9vueT98zfUL0iAu9gjsjjiIyMev6KFyik2GYNCLuPDzaTMBuqhgVdwPednbwkH3N1CSTlOjUS4rX1hoQyUiIbDCsl8BkqHwI5o/wgO/yQDyv/S1y2JeWKvnscy+Ry6gQ8mrXoCXeqOhbVCxiiKIObWG1rRisExoaUQRDLkMUypsNOSq0weRiC/FF9uwoYLYdDRZ1R62ctKK3IiEyANQxodH1pJTpoxFsGs0inJycWIBIQ2iUlqJWJk2apJdlXhMLiVhkZDp16lQ+fnQMbWsaZZ42bZrs9KUUSlPIn1/3Qmtam1S+DxJDqIO8Y8cOaVzZsmUb7A8rANsWlvix4zfIDwN8VtIU5WdtwE27gfjazxWH/vcrHGyGYe70Ktjw02qcS+jCyHwUat9ov48dOza+NOjBgwel2L1r16740qBULnz6TDecOnEIt6k06FeWGDp/By6LSFye/wOqNhqCpd++gO+C3/DH2oPY+U1r/M96IH4Z0Arl82cHXt7GuWNlUP4L/YpMTFueIECN/Jy5Ak4y0rMKfhjcRnOvZAATO2+EHHdBORmtQPc1VxBfBnMPjbxE46pHV2XZ5fCZ9/4o0jMHZirRpwOwYv1oaRhpMmofohACB7MCmuUs4HLsAFzKqRGpvtgqP4emh2lv0CVxiNw9Vnn/ITzHScztUREGFn/iktkA/JZ9ITqN3YmwGLqZ5xKdDMPoKxEIcF2OgLgyaNzxHnb4P0TcZT94FPsRnT8RLZ8lS3SSkU5mM8RLT940NEk/aL/SIRUYGKjM+TRk3ta3b19pNMbl7NIH1cyRDN8yIuoxRA9G99B2JqNF2u4pRW0z6DktUD8vrU0q3wdtPzrn6PvQNo1v/yJPi39mbxTBp91Fh+9nC/9IpVjfi8Niak1n4f/qgfjPZZSY/u9p8VCWnGSSC5ko0/Xq7dKg9KB7FLqu0jGT8Fh/XSL0NVQCtLFaxjELohokastO+otoMkKrMkb4PY4WkRe2C2frKgKmzuLokT/FAK/r4rHfJGFLZmhqGcyze4XzgHXi0hvLKut6qyym0/Kpooqjn3is+dzY0INitnUX4egVIPbLUpeR2i9Enz9A857HfsLR9m+xztFSWDuvFF5+gZrlxguvkCPy9Vvx798tVlpbC/cLIcLP0VExhiVTNmvhuG4pl+hkGEanvL8fd1/THtXWtAm1hePOU8JvjKVsI6Tx5KNjmja2oTBvWEX0mDlB275o2s1jN7zEgAHLhO+iAZr3nBBetpr2lMpyep0Vx5ythLm5Zn3dJ4nBxprljccI371/ZL0SnUzmhLwFaKQxsaOjNPI+dOhQaSpG4d1JiZ5gUg+KHFixYgXGjRsnjR0zGpTnT8cQRdEwuoUMJFVT4dSIOLl//758plKWaQGNjFMEB3mHkLFhekLbj0boNZ0IuR1oG9D2fZ7dFF2HW6F4ZBQKGj7A+eCrCAsLQfBazbavVx6GJ5dh3FFDlLm1CH0oMuIZJ4cnF4pMUVM4yFdCc08Un8JBUAoH+UqoKRy0f/47eQumJXK8OfKTpyy69qiJz5XJrEq2Akrk59LriJORnjEIPegOh5BqsDa9hRsP6VjNhryFiiAnlYVTy2DeovmxuJtg2ZBXBd8bRWr1ZU4l+jQGdw8vx4hl67D8aBji4iMhysFmwx35fTQfBCPcxaljp7HM4Ud0+m07bryke2UiFg/i339Xc7ddBIULFEAho5x4tG2wZj1FYDa7AOrVa8QlOhmGSQcKolKnPrC2tES9PKe0dgHvpPSfxMrh7WBV2xn+50eiTulv0bXQn7BcVQFdy1zFJo9gzXLB8Fi4Fzfj8qLu+O0QK/rDWtoLmOEL2UhxiU4mBbxfQUtb1LKcVF4zsaijgEl5D6M76Bii/ZGUSJb0Ri3vmJG+c0aF2m3a1jRqnFrQMUdROGkJtVX6FvlDI+0Jy3lqj+c4EX0vUHg5jxC9rW3Fz85bxIVwf/FnwzLCfPwWcTXylYgMuyR2O48Va648166ISXUoQkUtDUr7hvaRup+ojDS9ltWj+HhEPn3g7c4wmYP39+NClHKcH4iEkJFWmsVizwl3S2MBS3dxITZWPPYbL6womir2enwkhLX70dfRYhTRRdexj0ZCcInOVIZckQdjj8VfaWP0SMZHFScC/6zQfF5hrTPyaGCGZ0eQ2J0saB3DNgFXnwNfaabzAFWHeuCrG9rR6/Qs7eLm5iZHiRJbAo+WJ5M4ys8lh3NGP1D3Y0aITDl06JDM6eZjSPdQ1FL37t1hZGSUqsaxZM5IpO214HUZYRr1pugIfYH8NqjaCF0fKWJj+PDhCbb1U1zwsMeQ8O5wrnYOf+4og2mzvsejhfbwLD8TTs2KKcsxukQtDXrlyhUcOHAgvrpQnTp1pOkomay+Lg2aNeBSkekDb3eGyRxwiU7m/bzXRVkxAflkqNynnJGTSL7CKCmdkSuiahkyBvkchgXS34WbOigkKCS2NCILEPoL7UO6kaaGkDpE+ooqQHh6evIxlAZQygsZSE6cODHVBAji0aNHssOW1qgmlaoI8n5i8OJF2sZDk/BHaQFkXEllPamcZ3yKVFwE7t7LCcPwB4ipNRAes9vD2OAzFPk8H07v9YLHtIFoVt4Gy6++1C7P6AS1NKiawvHs2TMpZlH1FSJhaVA1hYOqD2Vk49+MxYfKcCYWLtHJMAyTFmQBEeIVwqQbcQGYOYRori8hitNxVdh5B8JPdWfeFfjaAXndVrhIZ+eqSm7hA2yzKad5TXNRspiNAwc8MHKYNcwqOmHHzgROx+fDNBe/NrCw0KzTdjeevOOMnND9eR0CvQZq1xn/0Fywjp9O8P0OwythdYyCzTBdOiNPwciZs+A0yw22n3A+1SUU0UI38XPmzJHTbdq0kc8fgzqPJEBQRQbuPOonNBJLN9iUo077S98gxZgECC8vL/k9Gd1CHSg6Z2l7p3Z0DI0ilyhRQplKWyj6goQVdQTiNQIxEeex/U97/PD7IaSShJwkLC0tsX37dlnquEWLFrKdvRUq8O3ouZjbPSc2z/XGPr9/4DrKGv8bvQXBN16hdJtx+PfsbJTzngSPs0+VNTG6hkQ5GokmYYuOKRoJIlGChKSyZctK0V0tDUr7k6apXdVnkVc/SOxgT2JI2rq4RCfDMBkOLtGpj9xVDDcewd+5NPAwKIFRx3Hk/kE1/TiLTTGTESouw/MHuinWGn5o/ybawIvWYXUSR3PVUUxAeuDpirfNPBTjD49mKIgcKGQ2GKvGA7+Z/YhlyI7ije3gbF0FYfuu4V5cblh7XUWo1zDluRxOnzqc4PudQ9W/t6RN+kgyoBsvKndHhoYUiurv7//R0R519JoECLUkJ6N/0E017R/aT7S/aCRPH6Bja/r06XKkkaJoMnLYWkaBtnn//v1lyG9qb2+1E1amTBn5nNZQ+0UpD2Q+GG9SGfMQF7e7op9lT/xTYKCm7f5W046nDzTiTsaVgYGBspwniYLe3luRv3wbTHSshZcPC6Cu3Z/YsW8WLFAS31QvCZxchomHvkajEmcw95dVuPgqzbMtGQ10bJGQpJYGDQ8Pl21W8+bNpYkutau0P2VpUE2bRkIYifqMCnXO/1YGe6ZjhZMyuPPDYJjLQR97eIccSVCG8whC48ttUrlOzRqu/o0WclnNPZjPkk8PHPWYDHtZIvNX+NfiEp0Mw+gbnxBTs2W8Ep1ZoBkrjnrtYzQXlyLaSAjDGmhvS+G/VWDd7SvcmK+4Mz+v/NoBefY5xEpn54SbZws60Tq21oBFxWIwLDobZlY+KG6d0Om4HHJodpBRoYQ7PaEz8pvuz7cev6fge6FqCb5fafj3SRAJocccP35c1l3/EKoAQTf9LEBkDGg/0Y0zjdxRWHF6VhOgG3TyJKAQdRpl5CiatEGNctJF5ZEHDx7I52LF0s/LYODAgfJ5wYIFmv/DsX+KHSadKIkeA+riathTZM9hAPHiIcKfvqetTiOoegN57VDqEQlwdB5cCjWAZZfWqF/eCLnzFUaJm/fw6PkpeIwIwv9mtESUxxQMnb0fweHp972Z16gpHNSmqikcJC7RdERExBspHBT1QqJE1k7hyIb81b9VBnuGolJ2ZXBn+TCMc7aGcdgZXL2j6eQ390Lo4xWoey4UopIVHKy7oFc9Y3ljm614Y4yUy55FaNF6nx44SugYn8MYdYfPwnTDFfhj497XA1SNbr7pUH/lJWCt+Q7Rm2G1Zi8O/+cLD8q3CPPGQt/biHtnICoC/gld6HfnQBOr7+HsvwE9n+1//d7Aavj78kjUTv9sW4Zh0hIZwaBGw5/DcRcLeV14Mwo/gTD7oxMmaJ5tRtlrpufjcZPv8XitD/z2HcM33xfBrjfW9bbgOhZ7omigIlrJGFDEUSnOqp87CztWDUC5+GiHYmg2nSLxF2L0yOlacdS2YvLFBDKmTGvIzZerY6Qe73dVTRvoEKIHuYR/CHIOJzd6qsOesN46kzGg/afW0KfjLC33IVUyIFd6+mx65uMn7VArj9CzLqBjidaf3qjfg65L0c9faB2goy+IZd3ai1/dF4pR7dqLUTuuiWfRcXL59IS+o3ouUpsrz4fYUHF4xUaxaUFv8b3zURF+3l106uQsFk/qqXXCjrsj9v85T/iFfcrbmklPaN/SsUjtHF0vaR/Tg/Y37euDBw/K9lAf0UmVhnjH93nCy0nr6h57wV1YwlxYW3cQtms3C6cBXiI02l84D1grgrwGyO1l7LhF7HUeL9YdXPR62XV+YrFc10JxcNfbLvBvO8aPEutW9Nduf+PBwivkkuIwD2E600f4JnSov7Re+x4YC3PNuff4lpewlfX3NesO3vvavV48FufcbTXv+UcEveFCf09ccO+ieX8XsWT/mtfv3b9CWJuq7/0wXB2DYTIH1PbTI74doods+6hKRajwc3TUtEVHlDYlUtNudRGOfvc174wVkf6zNW2KlaYde6SZvq9ZtraA+WzhH98+qetS3qO5Zzg621ZYOnqJs/upOsYR4WU9TPM50SLa31nUdt4vjsjqGMrnauYnBvqcpMIiRCYg/uBNB+igo5ujt6GbY7p5otdYgMgcUGeU9iU96HjT5f6km2268abji0rh8Y1W2qKWsdRlO02dLX25DtAxRg8tVBozQKz4+XtRZ8BfYtveDWJOb0vRfdmFT5aoSivo/KNzg/aRbH/j7or/3JaJI+HnxLJuXcSfQY809zLDhLXXNfH4Pydh3tdL3Ip5Lh6F3RWPnscqa2H0GRJ/ad9SO0jHpryRVPY5nTvUHutLaVDuDKcPdF/F251hMj7x/bh3ymqqpTI1z7eC3xFmRewt4TfGSoqgmikNXKLzk6RPic6kERPggvp7LHBkZG18PCIuDlEXd2LBtJFwWEZeDuZw9t+cch8HclauvwcWRxKE5OmoRCeFfJ44cUKGh4aEhEifh7chJ3nKc6XyY5THqhrUUYg+hZq+DYWSkhkXoblpSnTpTka/oWPFx8dH5tETZAxJZmupZVhIx822bdukzwgdc5qbW069SAcoJJx8CHR53lKKT/Xq1fUiPYuuSRUqVJDmmx3bfIW53d2RzaYdTK6uxe+zgYGr2yFsih8qecxEx5KfKe9KX6jtpfOQ2ms6T6g6Q5G4S1i1Pz/ad6yMnEd+R4P10Whz6i4q/9YB1+dMw464ksh3H2g4fiYcm33xiWsbo0/Q/qbr86lTp94oDUrQ/ldLg5LXRFpfayl9hLyDMppRcPHixeX1hfxpyLsjIxEaGipTYClFkWGYjI1qkJ2Rvc4ofSOpkkKy0ziyHh9wMY67iLVD5uKhzXbEysiSxLopJ8P5OZVLdNKNN5likWs3+TXQDQ7dyJAYceHChTcegwYNQunSpeWNBt3kUMeTTpoP3ewcPHhQ+UsLGXMxGR/a39RIUud06tSp0mRNPR5U1/ekeEfQzR+VIKTjkMQtVbii44durliASHtof1DHdtGiRTrtzFAnysTERJlKX0hgnTt3rtakMqo0hvzdGXfH/Y79xh1hb/UYYdnqY8iURngRoT85+iT+kpBP5woJRi1btsSG/bfxY8dvkB8G+KykKcrP2oCbdtYouHoe7vb0xM61q7DZZzpq75+OmYfTz+OFSTq0v8kfRC0NSjd7dG0m4YygY5eENLqeq6VBk9oeJxe6JujzoNKHGD58uNw+rq6uOH/+vDI3Y0Bt1urVq5UphmGYDAhFQqQ1mgun3qZjxIb6ijHmxjKsxHTmerGIQl9QRdiu3Cic5HxzMdNnpZK7N1h4nfhHWFt7iVDl/RLKUazSUJg3rCJ6LV4Yv+y6/QuFpQx3GSRWbnPWhr6YzhA+awcLY83fxrZe4lY0hdZocw5hOk7M7El5Ptogmw8RH8aTSNTtT59BzzKcNwlQCKinp+cboflvkzB8lEJH6TOZzAmF7tMxoB5T6oNCRWkePeh4obBidfpD4cX6mvOcVaBzm/YJ7Q9dQvuZPkef2gVKL1KPRSEiRdCfPYSt13URfXWLcPa6IF5qF9NL6LvT91bPO7ldI0+Lf2ZvFBeeHtdcj8YIv8exIjbsnAgMfSriIu+KsMgY5d1MZoHOX2pH6VhI2MbS39T+6lMKhz5A1y06X+i853RRhmHSi6T245IKeT2Ykk9EJKVjRivpmiHaF5NEiPCy7qLp91ppHl1FF83ftZVUDbrWJBWOhHiDGNw9vBW3hxyFZoehsIERGo90gLVxMPaFGqLp+1yMTxRAkzsemLubnJBfIezYYrhsvKx5kUp8BsDJ8ET8souDS+OX97g1P9uyHXIRjzXYcfSg1n052h/OhQujWSqX6KTRkQoVKsi/NTeqcvQiqaPNFHpPozE0Gk4hwDQCQyMvask99VlzwyMjIKhMGan2TOaERujUkTBNmwLNTa48tlq1aiUja+gRHByMJ0+exE/T8UPL0PFBYbB0jFBJu/el9jBpx+TJk2UaDI0Q6hJ9qIzxNhT1QdE9lAp08WIoqvcehHKbNmFnuCFqfXYa/yyYhWmjfkKvCTtwR3mPvkDfnc4hOqfu378v2/hl3ifQdqAlyuctharfncO+kw/wLOIo5jTrjYVX86JE/uzKu5nMAl2b1dKgFElG7StFylD7TFFrLVq0iC8NqlbhyEqlQSmdkFL+6HfT76dt899//8HU1BQTJ06U0XwUCZYW0SMMwzBJJuoYXD0ClUoVSWTvCLQdvBzno+KUGW+TmAj91C3RyZEQbxGruhtrNo02EsJUmFv3EJa2a8T+xe9xMT73SERe8BKOSvSEsbWbOBpyMN4VOX59mmWX+Li91615/3olEoLclh9fjXdiTs1ICFL5VcWfRkNSExrVpP1J605qVAXDMPoBtSHU7lD7rGvUz9JHqJ2kkWMhnourm13FVOeZwrFTK+G40l04Vm8lJuy7I9K/TsaHobZe3b70OwIDA0Vc5Emx7KdOolu/TqJOtxXiyjuVPuJEdOQDERr2SDzX5x/HpAg6Nuj8puODrtnyPkN50HFPEWt0vGS2qAC6R1GNjtXfStEitB3Gjx8vVq9eLX97wm1Cy/D9DMMwaQG1RfT4OGQUaSXbJ9OZm8VaxXTS1uusOKaZb25eW6CLg+istGHah7ZyzyNZ9WK7OOzcQZiP2Sr81w0T1uuOxUfeG1v/LQL2z3pPhP5acWL9AJ0ZU7IIkQn41MGrChB0Q6rLUEz1Is8XbobJWFCbTOcu3YinBdRWUJukj6jb4nWbqpbAMhYNpx0Uj2UnPVo8f64vtTLeD7X1tI3pt1CHK/zBbXH/YrC4cP+FsoTKCxHq5yTa1bYQXXq2E+btnYRf6NvLMJkVOt7VFA4aSKDjhR5qCgddzzNqCgfd+6j3JfR76HeSIPEpSIhR30f3qrSNGIZhdEXiRAhtWoVMf3inlKdSfpPmk0XAW88h6vtkNQ0SHkyF9ZKF2mUElfy0Fs5H9ysD6JRyYapdN7oI9wvPlU//OLR8UuF0jEwOhR8OHTpU/k0mRqlVxeB9kMs9pWCQySUZYjEMo/9QG0GhyZoOK7p06aLM1S1kglu2bFllSr94w6RShmUbIHeRz1H8e0e4Dq2HvI/PY/ufP6GZ7T+4GkPXXf2E2noyMKQ2mULzW7bqgOMnT6Fg/pzKElpE2FaMHfESI3fvxNrl3tg8zRALui7CyVf6+9uY1IOOdzWFg1Lj1BSO5s2byxQOup6rKRxkIJxRUjgoLbRp06ayggT9HjoHEpvyRwagdD9DqYWETG9atkz+zTAMk15kK2CIog5tYbWtMNrZVtHMqQLrbrVhlC0PjArl1i70MbKVRLOxs+BuXRwoVBM2JRfCxKAA2p5uhjYVi8Gw6GyYWfnAqF1LGGsWN7Zuha/9h6GcS0DyUkA+hSJGpCkZJhKCDCaVtIpPIU0/pGpkKcb43RIprsT+vs8mRauLtbCu3UXzTMYgXWSqxscUNNrONLqRGPU/tVBHEDLq6AnDZCUo+iGtz1f6vMSo/ukFjaBSu0mjw1qTymHC+ehVccHnD9H7e2sx7d+9wmdqdzFw8y29Ts1QofZ/2rSpcrvXq9pQ/LUjMD60Mn5kRZnWGk8NE163rgivwWPF5lD9jvhgdAudCxQZ8Ha6Aj1oms5jfUvhoOgN+n50/qbG90rt9TEMkzVI7H0V9Zv0+Z7oU9Dv1KaxJg0D+k/TuKYppKJTeTa9L+kUEwCX+ntgcWQkaquVMMkUZG1ODLKt+UaN9ZgAF9TfY4GDFntQxfUrHPDsKFWkd4lCgMtM3PhxAjoaf6S85vs++8lujJ28Ay+v5oLx109xP/YlKgxwQeHgbfLlt+vLksESGVGRmq/LCIj3QSOrtJ8p+kKXZf4Yhkk+ZNJGZVE1F7932g9dQdEFRYsWlaWAacRRX1HbzwsXLuDrrwph35TuGBs5AIsndMQ3RXJChHnD9pdoTFnZDaUMlDfpObS/+/ftjeMBJ2HRYxzc/hyNytkO4efmh9Fu1zg0M8yBmNubMKRtIFqNjoD9nu/hP68NPjcQiI2JQ7Yc2ZFBfiqjQ+jaTmbDVNaSIgyOHz8u51M0VfXq1WWbUqlSpXQxGqYoTIre8PT0lAbIqQVFVlAbSeWoKWqEYRgmIRRVeuDAAfj7+0uD67dxcHCQEWZNmjR5o19E7WnPnj1lWfRt27YhIiJCeSXjQL+B2tuk3keyCPE+4m5j96+2+O53X8D0d3iPOoGO/dfB2HYZ3Cv8g9ajtsJ05mb8fn4MunoAtl5bMP/Ldahs5oArsMQYPw9MqXAUA+p0ggcGY90/1bB0S1nMb3EAP13vgIkPN+BCmWg4dnHS9Na3Y0+9zbDo9BetCMcX1sOFCepnj8PMBkEw+HnNRytkUHgkkXDn040+1Y2n6hVp1blICJ2MFAqZXp/PMMzHUc9R6jRQ2H5aQe0/hTenhziaVKjqD1WbWL16FbJfdEcL15JYsbgjSmbTXCYueqDVhHxYsjrjiBAE7fd169bCxqY3vrdqB7fZM1D44kJU/Pkkmjcqigc3v0CfKRY4M8oPdde6oGPJz6T47tLxH1Rc4YQ2hrF4gc+QOwfLEYwW6qDfuHFDCouU/rBp0yY5v06dOrLTbmZmhsqVK+v8fFeFAroZpnSK1IbWT6kpqS1wMAyTsaF+GKVwEtQ2kBBrZGSEvHnz4tmzZ/JBaWFqWhf1jaiCHNG9e3f5TO0mDQhVqUJpFhkL+p3Jat9JhEhr9D4dQzX0kCkRM8X+s9uFs3UVAVNncfTI+0xB3MXZYzTfV5x2HyAsnf8Tl7wGaF+DsbB0/0/sciTnUmvhfuG+8HceL9YF7ROzrbsIR6/dYmVCA5CDaxJ8duJSQSiE5+0wHgrtSU5oTGpCJlD0u9IyFYRhmMShGtGlZRoGobYLGQG6VtF31bavESLYfZjo5viXWL1sjvi5XRcx7b8HIi76hXj+TrUJ/Yd+m2pcOfePCWJZr+bCev5/IvT5S80l8CfR8M9A8VIuGSXOu1uLbzXTT+8dFe4DLUX3NdcyRBoKkz7QNV9N4VCPMfWhpnDQ8ZfaqQ10z0Ofp0vU1Az6fQzDZG2oDaM2je6lqF37VJtGr9NytDy1VUuWLJHtCf2d1vdi+gAbU76P4rXRPsdEmOQ0g0NELB4cdIdDSDVYm95CyKuC7zEFqQtjuSUNUbH3GAw4NwfuMWawla4erdCtYSXU6/odPqtrg87lyTgkDo/9V2LEsnVYfvQVardXDUCs0LBq3QSfHYHdfdrAJSCKVp5oKApiyJAhMvQnPSETKM1NAbZs2aLMYRhGH6CQZQoXnDp1appHI9y5c0eGbWcEVJPKTp06adrVWHzTZzrm/FgZ+Qt8g54LFuOnosfh2u9/mLArVDemTTqEfhtFwGhuiDDk5ymYe+Yu6sTcQIFcOVHUtBKyHTyGcxEv8Sx4FUavqYhfvtyp2W9LEBT+Cp8XzsNpGcwHoTQMSrWiEUE6xjT3mjKtiY41gkYMKRqKRs8o2ohGB6lN0hrBJg8aiQwNDYWrq6syRzc0atRItgmTJk1S5jAMkxWhqEIy/t+7d69sfygK61Pp5/Q6LUfLv3z5Ut4LrVmzRraT+h4ZqhO0WkTaoveREBkMUtXooUJ/p3cUhAqNepLixzCMfkCjlHRO/mJtrpjpah7G1mL20VARSxFYpso809/E+kW2slY0RYH5Rz8WF3xnC2tj9XVncfjwW4a8MoJrmlg+w1y7jPIwnbZerHXU1qMGyohve/wsImVZKGU580nCL1Q77v4GkReEr7O19jvQeigKLfKc8Ipfl6Vw9DqnrMtS1sOOlG9UzBVDw9/5zv7PE/7GBN/V2FYsXv/b622iLH/oidak8vU1K05EPzonfP7oJ77/3wQxf8E0YdN4vPB7nGI74nSDjgn6ffSb6Tk8PFSEHl4qHK2qCNPWg4Xj4P+JTj27ifYDncTMAZ2kIbKIeyD+cx4j3M9EKWthmMRDo350f0ARWXS/op5z9DdFctJrb48M0rJ0//g2NLqojkSmBXS+0HelqAhGH4jVXCqUiGV5HJlr2qjHmnlewtHcWDvPfIzwuvBYayJvPlv4R1J7HS1CvYYJa6+Q91xr/MRh9fqkWZ/T8qnKtaGKsF68RkxVryHK67JNjCfBtU15mDotFzPed91Rrn3yexkPFl63NNfByNPC3bqh9nsxegtdK6ndSW5EF72PIiDokVXhSIhMCI0q6IsPAxmwkGkVGaIxDJP+qHmLjjYWKOzsj2ghEBvQE/dHjcTSSy+hmQn/aAFxeSCKXI7BCP9Hmr9HoubV9Rgy/QlsAl7KkU2aZ5aTFvfHc//vsdbzKO7KNX+GSr/sgebuDtamtK7n2FZiG7aUmIDQWIE6tfKjauhe/LY7XLNsaTj7h8Lf6jg8D2vf/ZoXuLh2MqY/7IkAzfvoMy+P/AZX1zpjk7IuETkLFTYNU9b1Cnsd7DDYIxhq7FjcVa93vrM0+o3/jUNRKTt9h0cIdcuJGdda4bwIgZe1lWZepFy+YYE8MmLE2dlZ24492Y8pbafiSL76aFHoAg4d3AffcjVQqUDGvZzSyDV5NFHOKo3qtGzZHodDC8Bpy2lc+mcY2vZywoply7F02Be48m8xfGXyGaJOLMM4/29gXj6vshaGSTw06qeWBiVzS03HXh5/dO9CpUHJFFYtDUpG1zRySMtRBMXbJcDJDI5Qc6x1DZ0vFA1BbQKjB8RdxNohc/HQZjtiqZ0XezCyZijWjtiKEk4BmnmxiJxfAZtaz8CeqDhg7wi0Hbwc5+lvycv3XGvqIqe8PmmuA5r1jaiUS3u9DJ2suYjeRMvz0Qj1GgBTeQ3VfN4bvm35UXtkwmugZn0jKiH7O9edN699eSqcwayeY+Dy23gsD/lMzmP0E2qD6Pyndim55vv0vokTJ8r2jtaTFcmyIgRVszBLTN1TqlJRzgAGBppHORcEfPQNMQjz/hk23tra0vK9A70Rpp16TZg3bGzeMz8h9F6ztz6P3tfVBjZmXTXPmodN13dSNSickcxNmjVrpsxJX+gkc3BwkDcXDMOkL1TxgS6c5MJsWOh15zGbcQN0ssqBh5GxQIQDzHJSe7cUBYb0R3bX/hi7OwRhwadQYogtmhm/eXMU4WCGPGY70dWmHoor897kPoL3FUD7/9VD4ZfPcfxEMCy//xJeJ0I0LWYIHMxMYLa1DmwavP1uep8RhgyxUNLdiNfrkvPyV0Sr9mWVdWlu6vxmo+ry0Ziu+b5xlPZ2/vR7v/Pr3+iKc7H0HYrAxD4aY9t8/UbVIxXqLFHYJIVgP89ZA/YTK+Dof5H4ZsRsjLEohqpNKqN4JshPoFDzffv2yTB6SkGhUPlLoQKN65VGboOcKFyuAsqZlMOXhc7CY0QQek7ugK+kQeVDHHYZA4+zT7UrYpgkQh17Ov7UFI5nz57JFA4ycCPoeFSrcFD1Czc3N/k3sW7dOvm+5HYGkgMZbtK9FplVMunM3bPYV8IWQ5qVfN2poXlFrfC/usaaedk0l4pmaN/oFAJvRqOw83Z4V92In6bvQqjUIcLfc60h6NpQQHP/b4HZ517Ka11Ok4nA2Jao8JHidh/knevOm9e+XFZjsbDXU+w0GomFQ6rLeYx+QvdRJESmNIWC3k9tHA0OUXpHViPLihDvEoeoAE94vM9/IV69/D97ZwFWRdbG8T+KXdhid8e6oOJaYMeu+tmJXWu7dmGvit2uYrdidysGKii2oKKIAoqBgooS57v/4Y4iYhM3zu95hsudO3fuxJlz3vc9b0Qql/m17aMQ6joH3VXDxK+QwgzZcmRBhhyFUSJ3DmTJkAnpUn3aE968eVN51aXYIisrK8XSJ5FI4g8Ky5xdnDhx4melMcN9z8LxUFrkzaK4Nnzo78pkr4D+8wci3ZSluJm7OPzmLsNR3/f8As7PnIPtXu80mx/EVYc8cL34CG+0+/uUVMhVwh87NpzDRa+IfvD6hWdo/HtOjcJPw8EpOOT0wEWfqN/OiOJV/DUD/TH4agTFcN/TmDntKKDdF9ch6Bb27bin3ZeGNOUxYF1fYHxTNF31HmkKl/jsmHf4hkTjCREI4eOAjoVTcy/RQmMqlY59+44gk/VgbPuvD2rnfwXnjUDzijnwxvMg5gxehcvv6GWrv1CRY2UBKoCsDMKZZ3rXRQhI5qg4qRLCN8zG7r96olmhFJp1EWOh3en8KPXMAb3+3YnrLzTXWCL5BdgOmbeEnhH00jlw4ID2kwgePHig9GmceGG1NRom4hLKWGXKlMH58+e1ayTxRuaiqOK3DHOPPtL0Ru/he34Jph0MRgm/Pdhw3lezTtNH3TqKHadLonQOzRiHDLAcMA+jMBuWTZmzLH00Y81OeEXnCSGuYmXH4vhyvbqvEHXc+WzsS4fCHRfhwMBymlFToqvQI5KyQKdOnbRrfg3Vg+vixYvKqzFhdEaIcN9DGG6TFYksByHAfwfq0sMhay9s9TiLRQOHoZPlX7Dfvw6dsmrX+2iEqQ/Wy7FYNMgSJiaWGLLnsHb7ehgyupHiKZG10zb4iWCsapxT874Whh97oun6VJ7j6BDtd08HAnfmolXWrLCZdhq3t/ZCVuX7W/Eo9BGODq8Fk+gSU6auiknTp2D6tnEYOHU6pkyfh45KosuPPH78ON4TUkaF5WYoJEgkkvhj7NixitDcv39/7ZoIL4ZEmr4nocUaZBw/BA2zagQ0tb8zaYPBTfPBJFU5zMj+G4r81gxze7/D+KxJYJKwJubDAuWyJ9HsRU3IOw2TPunzVMxg0X0UGviNQ8UihZQ1AW2XYFTV9Mr/SFMK7Sc1xs3hsyOMBR9IioLNRqF32DRkTchj/A+oXBMNtfviOpNU/8C9weyP+9KQwLwahi/8F7bmmv/zNv7smMtmjnyOfXH01edHHB2fJKl89VopUSke34DT43QIPDAMbSbcRMHOf6JYEsNI2cjzXb9+vZJMsF27dko5V7drT2BVPTvePkmEdE/vwN3/HfD+iuIV0WJ0fhwb7wzzrJ6Y134w1mydjq7LrmlUAokkZmBbpHGM7vI0TNAQ8PTpU+UzGsviGnpfODs7a99J4o0EBdFsbkeEjS+DhCZJYDH/vWaoaITuc+vBb4iFZl1CpOrhjgZ7h8ImpVbtSZANVYdPh4MtvRCSRDPWWCL7B0+I/Oh4NCDie79C1HEn0th37Km+pTY2XujZTT0rpjyvuB/2JfRCNDo0nXmcE3+JKT8moWESGIuJW8U+JRENk8r4CRfN//YuLzTbRCqvuWSLmPKhVOY74XNunrCtyQQ3PtrtmfxGLeE5RezfFGn/TETTzVE8cJktujne/fjdU2s0rw7C/cURMbjjYrE0Bkp0MpETYeIm9X+WVrs0t7GwsLBQlj96LhUuftEkf4tleL95fkzmJJFI4h72EXwG+SzGJzyOLybNjZwUU1ny6VxiLjUBXsT4xfGkm0hZprOYte+m8Pe/K1yOHBRHXDzFCz0s2fk1mCCQ58z7wjHm2TNf8cRlrRjSc5nYv6S9qGF/XJyZXU/AopdwcH4oXvs7iX+rtxcOLkfEtF72Yue1p5qrJZH8PGx37D+iJoHjOj6TH3klbh9bIHr+ESH3WFSZKy7FUuPjbxtzUjmJFj0YuyQ/hqqnRiczcT2ffYWQS2JuFW1foyyNxdxLP56smUlu2XaMDRP+0Zx4nOLh4aHMjNOSHdeEP9qKLmUaY5mvppsYPAp5pzrB3NYMpg2mYFDASBTpBCw92RhnmrfAMnSEwyFbPG9gjUF3+e3WGNTkLOy3pMXgIzvQ6X5/FOoUhkkTgeGHksI2cXpUbhqMzl2WAOba7859huZdHmKiVznU3NEajVeZYfDm3vDblQqTHXJhba+7qFbzJOo1ng/YrsDRuZVxo399NF52TXOAIzC1vBtM+m2IkvTmU3g9mbiJZMiQAXXr1tUmpnwNt3lDcKriFPT6LREen5yNngvNMXltG+T/AR+YULfFGOb9J+z/yqZdo+G1KxZvS4RObUpGG0MdFXqKaB5m5fjUmQuJRBL73L9/XwnDmDJlihLHHJ+oidw0g7jyqo/QZbJly5YRSfIyJsf9RNmQ8915LLDbgKDylVDg9RWcDa2DoT3+QKafiRvWYTgDNGvWLOX/fv36oWLFInBbewphv4Vg+bRX6DzpDzzZ4YRn4VdxOlMndH65DMtRBVbeTrhepjfs6uUFnaElkh+FfQflRnpzMYaaLsycQWRCN3ojqPJk+J01aD3UFz3m90XlzDGZ3O8l3BbvBzo1x2/a55q/Tc8oitEMDWEeC4lEov+ochOhvMKcUPQOJNRnLl26FCmsNRSPdw1Dc6/WONzrt+/SiaJCPY7eXPGgkscvNELENaqFSRJzqKVeeEt79+6tXUtPiJ4frXK02NWdK1wf7BT9OEvwx2Cx0+OIGKv8P14c89gRsd5ioNj5yEXMrdFANG5QQ/w9Z6oYuNNF7OxZJcLS13iG2Di9tfJ/lTmHxNHxLZT//+i5TngEuH74Xs+dDyN+VwOPi/ed1kP+Lxe5yEUucpGLXOTyM4vqgUCZ4qM8GSL8dg7/RPYgYX7HxPjGf2jkFI1csvq6CLg0V1RRZi3biLmu18XOfjU0/1cRPXec1/5fQ/TbeU/47ByoyDYWFq3F9I0zRGP+H8mzgjINj4XwGKIeo1zkIhfDWS5duqQ86/z/Uw8J9jsDRZW5l8Q7n0j6lff5j/rQ6pWip9KXqMsfovFcF42WFkHkvsSYkIkpDQAmSWG8btq0aRVrnbW1tfaTyLzH4zOHcLpgDpheOgmnd5pV705hnXMy1G1TCQVqlUDSy84IGboDLi72+CtTQs0Gluizej9mV1KTtVWA3Z4jWGp9F37Zf0fm9ktxuNlbOPq1wh6XE5hf+DQO3OGOI743L7LnhBZ6aGjanWJFZHw1YcIprpOLXOQSs8vKlSuVZ8zb2zvaz2N+CcPbgJd4Gx7dZxxjI2bTo/tMnxZeT6JRgDTv/bC/b2c4uL+Ej9MuOPm8Q4jLNNReeBWh0XzXUBb24Q0aNPhwHTgLrBHG4H9mBRyczsChYVNMPeKM/bN6o/+2q7hg3xQNpi7FzA79sOHu28/2Jxe5fG1RvafY5tiHsILG55giY5EieLZyHU4+ZjLax3BdOA+LNu2BX7tNcHGeisLrj+JOWCKUsduGYzNK4u4NFxwI6a2RYY5jXjk/HHB6rtnPczitOwkvkRhWdjvgvNQKR/yyoXLm9lh6uNcHT4hr165F/KOBnhjRHbdc5CIX/Vvc3d21TzYUXYUlhCMn9I7e6ykM/i6R9KujfhCqPlQjLTSdCfbssYOV8joUWW75fCgnbqxII4Q+8YUSnZ6enko2cw6CpUqVwq1bt7RfIH5Y0bkKLC3/QKNN6TBwaB0UL1MZlZhPLklZ1Mv/ECscnHD7wFUEl7JCoskNNNs2wbzLb4FEZkidLHITOY2x9aqh8/FiqFgkI1Kv6Im2B9OjaZZ1qGdZBT1vVUCt/JodR/ke3YwIa37zf7qEly5dGr1791bWcx3dGll3l//LklcSya9D4yQTClJBjLtqOY+wt89o7PV7hhtbt8M1IBi+rkfh6vv+Qz+QMWNG5VWf4fWkgUdJUvncBBb1s2PX5lPwvLYG9accw6tSvbCtczHQlGuoUCBj4kr1OjBExcPDExnKt0P7fO/wxCwZnvkmxO89Z2FykfOYOCkQJfNlRerEt3DxvrGLXpIfhQmuaXxgGBRLeUZGDfMiCfI3wPh27zCn3h+wLNsWy1EGDRvXQ5aVzWBpNRi3WlZFfuXBTIBkqVPDNHUR1Eo0VyPDWMJ6U2LUqJRO81k6WNUrjcwm7+E8tgGsOp9DnYr5kS71enRuuwZ3IuWyVY0jEonEcEiePPkH4wP1K5YQVuEzT73rcxIio2Uk/apsOph8pkdFDytRMdTM2DC6nBBxStB5zNmUCH93LB0pRigArnN2AX//D5g1FV6tR6OR+XdGEL06iuFjD+CdZxKYF3gN/7B3KNRtGsyu7VU+ppcBlfl9+/Z9YZYgfqAyRKOD2tQOHjyIkSNHfqj5Te+NL1XP4Gf08MiZMyeyZs2qrKMwQmjUiKnstBKJIcFyivSOolEyTvuCUFdMszoGmzN/4nLDFci2pj8STbHD/U6zUMjfVSmjxxkEQ3hu1WtMz7OpU0bg+vIxGO9hif59/4ey5slhGDUyvg+O6WrMPkvAsgJLskSBuLx1GbYlKY986+fige3/8KrPFiSd+S8G/VkYKY3pAkliDbY9xlLHR78yadIk5XX48OHKq0QiMXxYstrJySlGZSv2JalTp1YMHsaE9IT4JsHwWNZMSUTCEpoPLkxDfs3/JiYsnfkIrtNslM9MbGbiwp2DSvlPE5MSaLfsLJwWjUPfTr+j8JDRqMltsvbEun1LMbCvLSwLz8HNMM3uw30iSnJy/+1W4lbABUzLz/2zfOcurGv3YyU68+bN+0WFPr64cuXKh9kCCu65c+fGgAEDUKlSJWUdE+apLlB0c6YbFF19OYOr1s9lTXA++Jxxo8DBhZZKXreyZcsqiTm50AgjvSokxs7MmTOVVzs7O+U1znj6GA/D56B5jW5Y4HYN+zesw363TMidJbFSPpiWfkMxHPI8eJ2pfLtdvodiHWdiw+TWKGdkBgjChF0UyNhnc6aaxpnT526jVLOhsKtgisCag9G7ZmFkNKuA+nWkAUISc3AygsRHjX22dUtLS+07iURiDJQsWVLRs54/Z+jWr8P9jBgxQpmsNTakEeKbJEbWip1gb1scvic84ReeGNUd7+PlkTK46RWo+bwSHH18cKSsD66c2I1Hvc9BhKxAiQWnkaSSNSzsXXBrVBsMsreFue8N+KQvh3oW9nC51QdF6BL49BxWPuoGHxGIXSWOYrdHMDQ/AJ+Xa1D2ZghsVu7+amWMqFA5J/Q+0BVoMVS9Fyi08xjpusv1hNUyaJwgdHOmQEtXX3p2cKHHDBcO+DRUcMaDhgouzCfBTNn0lCDMkk1DBWdc+TsUUBQjkWbp0qWLYqiYN2/eB2MFDRVc1N+XSPQdPvsc0CZMmBCHYRhaMldAz4W7cXTLBmw+PBaN8uVCiaaVkCdFAuXZjD5fjf5Ct3AaWO0G98TS415K9ipjhv31/v37lfvMPpj97YsERfB3x7JInSAF0mV5hZdvIvmySyS/CI2B9JiM6xr77GfpzSmNEBKJcUH9hH3OokWLtGt+jXXr1im5bqKGmRkD0gjxTd7D55QDBj0oCdt8D+H1PFSzLgGSp0kbqdRYMqTJqFks6yLb3HIwSdQeV/+ujcJp0yH9oL9Qd+5mTBv0ADVszXDzQQjM0s+AZb3V8KIslqEc2mVbjKwmqfDX1ar4U/VsSJ4GGRM9xd7InhDfgTogM3ZSF6CFjxZDKysr5T3dFtVkeSqqVwONBPR24OD+NQsjz5GGCi41a9ZUBF81JwYX6VUhMVb43HTt2lVRjPlsxC0C7y4uQcsVD5A0gznyFC2NUondsdUkM3IkBF68ePHBGGlI9OnTBzsPnYHbxDFwfhVZwX6HpzdOYPfWvXDyeA6OHMYAY2fZD3MMOn78ONKnT6/0o0hQEK0WtkFeKXVIYpj27dsrhteYmpn8Hqg4sJ+NHCsukUiMAz777HOoH/wK1C2YH0/1Fjc2ZE4IA0AR8DRQGSdqzgXODMS36zOVfR4fvRgiwweXM2X0ZChatChu3LgBFxcXnD9/Hjt27FC2oWWwevXqirGB28TGrC49INRM96wLHBQUBB8fH8VQQSInvIqMzFUh0UVoPKPix9nouBeOQ+G7dSCG4h+sbBThIh3usQyNd5bC5oEWSGRiojzvcW8ciX1WrVqJdu3ao8m/x7F2aBUkxmt4rB6IXoezonn1zPA96ozQNuMwslr2n6ohrq+wf3VwcFCELPaZFLTYn0skMQ0TXlNeiIuYasqwnLzgJIdszxKJcUKvalXH+Rn9hBOb1NtsbW2NLheEijRCGABRjRAU/BiTyzAFdV18EPk46J7LmQMKCurDygeQHghRlSXOZty8eVPxYLh8+fKHHBeMJ+f3CxcurCj8cTn481gZBsJFzYpL93JCpU9NshkZHq/qfq56gmTOnFmpDsDzjnNXeYlBQ+NjrVq1lOcmcimpuINGiD5o8rArjvX5TaOIh+LJ7sFo/rAjVv5phlw5chis0B7R11VA/kSmqLPaCW0znMYQayf8eXwUKqVOALw6idGVd6PC0X9RK50h18yIHo75NJDRwExPuKZNm0pDrSRGUSc2OKkQ22Mr2zKRMqxEYtwwoSQnWRlq/iPhFPT4ptcqk4fPmTPHaMdDaYSICstgDgUmr2wEc+2qXyMIrtMaYyDGY9fAskgJb2xtN13zA9O+vyqGCo+t7w7A8y2QV/Ne02ZL9FmGvF4HlY8jGxxomJg8eXK8ekNEPgYqH3zgqKxzNqxVq1bfrShRwOf3meCSdbkjeydwX1TwmZCTMxPx+SDzOFWvCrV+uOpVQVd01ZgSFelVIflVVIs6jXTxmqk96AqW9R6NE/lqo0pqD+w4khZ9Fg1B+sc3lKRL8ZHBPq5QlaBDJ06heoHHaNc+ACP2dURBJfzgF/p9A4H9Iys3MQyOBtr//vsvnoxlEkOFIZ0kNoV6znyy9HFcGDskEonuQ48INaSC4Zlf6xc4ycoJWW7PEqCdOnUyahlfGiGiEsUIEeo6B728/odFWvfijyU228Liu2RJGiH+guWgp7B1WI/5HdPgYHTCaLTlPKPwHSU6VVQvhPhSSqgUUYGO7H7NY2IGaxoROCPGcAs+tL///vsPP4RsQ1T0b926pVghI5f7ZNWNfPnyoUiRIjoZr6l6VbAuMCsGEOlVIfkVKHzTa0gXQrBEsC+unr0Iz/eZ8HuF35EzZULFIEnlMx6GmzhFDYc5cWQm5pceCf+pczGoZna8uboWg4eGY9jBLsgXaoqUKYzTEEHY/1FJ5DjAcp7du3eXcfWSGEGVezhWxoZ8qRoame/EGJPISSSS6FH1Wo5rqh6SJUsWpRqgGupNIzy3oe4zZswYaYTXII0QUaERoslcPLjnDgzYjm02zhjqVQXNznVCNc3h9lvYEG49RuF4vsnYvzAYk2uOwXHzjnA4ZIvnLYZjT+pXyNlzEkosGYurZa3w4Hx2dKp+A37l2wLjZ+P5qGH4feVmzb5r42K/jvj3eHrYOvyHzs8novKgPcg3dRf+vTUMzZYBHR3/Q90dE3Gvz4avVsiIGo6hQncfzj7G9YBJQYDWQM7uf+ke89hoDeQDSwVbDdn4WWGUgi3zSrBtHT58OE7zSsQGvIbSq0LyPagKfryHOvgdwOgh+4AShVEgbx7kzmmOzNnyIq95SkydNAkBAQG62efHIKrxdeXyiXiz/BxuVDbHtY0XkaphV/Rvnheeq+diS+Ex2Na9FJJov2OsqLmLCCu5GGKuEEncw2dQ9Qrr379/jI15qgGCs5eM36YbNonJ35BIJPoN+5+jR48qcjv1EXXClbIZZXFOIhpiSOpPQyNEXKMRlsWgQYO073QMH0dhW9NBuL84IgZ3dBQPXGaLbo53hc+5eZr1w4TjjePC3sJeuIQ8EI62fYWjT4gIcbEXFlNWi8nFh4kjL8M0OwkTgS4zhDXqCXuXh8LF3lbzGijCfA6KYdbmAugili7tLWwdHwjNl5X9nXPW7MPeRYTw95lmnguPg7v7Bo6OjsoSHStXrhQaJV9oFFrtmthn4sSJym8+e/ZMu+bL8Lg0g3rE+WoW/h8Tx8rfPnXqlHL+GsX8w/55XDw+Xi+2Q32H14rnwXNV2wGfLS48V/W8Iy9cr26jfoff537isp1Ifh3eL95TtvN4J/yteOHjKa67nBR7F/YV5VOmFPlarReemj6MzyCfbWOA94L35ITDWLHK9aXmugSI6xsGi3r1h4k1zg/F23DthhKln2Z/zOvFNiL7H0lMwHbEcS6m2pQqo3CsVOGYKdutRCKR/DyyWFZ0ZDFDqpQskal9D3+cnT8Tqw4exLlHiZFOKbG5D5lt02Ju1kRI9NdN/F0vBxImSYc0yTWXNNwX5x2PAPaj0d0ijXYfQALzahi+8F/Ymif4YjnPenvNUL8jZ66Lw7Z5Trh0+LESnVFh1lXOCHBmgBa62IaxUQyP4OwsQw742/R6+BL0TOCsgkYYVcpoMt6SM4l0a/7a974FPSro/cHzX7JkiXIsTNhHjwvOyKrlOVmWk7/F3+Xv0QNBn+D1o1WV58p7zIWzzVxYaUTzjCvnzllyLrzGvAb0lCBqjDZneHg9eO15TbjQxZ/XhveU95MLLbtc9O06GSK8B3x2aGVnor94xyQpzMyzIiO8ceLoU1RedAxnVzZHHk2XSM8d1TPH0OG90ChA2H0rCG1/T42wm+vR63gZzN84Aa3LZUNSE43mEvwcz16Hab9hvLCfZrgg+2aGp7H/YT8j+xfJr8BxkaFphG2K4/vPtCl6P1CG4ffpURrZ25Rjrre3txIGx/W/Iq9IJBLDgzoXZei40L30FRmOYQBQaCORB8jIcPC1s7NTYpV/NIPr9xL5N3g8FAK4jmEZvNdUfr90fJHhd2Iqb8S3YDv8Ul4JZqxlKIuu5pWIDdhR/miuCtXNjKi5KpgklHkqDDtXxSMcGLUaaFYSZ5YHofXkpiiY2AThvq7Y65MVdS3MEdsWXjVBGo1L8e/eJxDq74at8+yx6lVtjBrcBGXNk0OjbyuJmNKnT68jxxk3RI4dL5/RHX/OzIQVC/5EJryG9+mNmD55D9IMmIcxVc2VaySJ6Ps3b96stGn2K5QPpNuq5Ffhs0h5guGMnJTgc/m1WGyOgzTgs3+lDMLwCybS/pIc8DNyjkQiMXyoY3Byz5hknx9FGiEMgG8ZIVTUDK4xXSKN95PWPg7yqgEiMurvMgnZj8RPxnTeiG9B4cPLy0uZlYuaV6Js2bKwtLTUq7wSsQEFLs7+kB/JVUFDElFzVaRMmVJJ2EM4U6V3MbVh17DIegEyTCiG2dazYb5wM5Z1L4bArf3QPqAHVmTbjsEb/JGnWBEUK1cD9SrmRcoY1DbVwU1nhF7xADv7t0Brh/eo0rIayhcvhPx5i6CsdVmE+NxVjpXeTsZi0CPsE5Uklcc348KUYVgQXBzFX17ABbMmGN73fx+MNJJPYT88duxYpS/50TFDIokOjltOTk6KkUsdo9QxyczMTPGOJKqxnfIGDRZfMz5E5WflHIlEYphII8S30SkjxOeVKCLzCh6HHDCx3QCs8tW8zWePs2sSY4XPl7aPSgBcp7WB5dWO8Imp8puhrphW2A7YuAYDLcx+oLznT5Zr+4ESnV+Cij1LZVIR5CD8K14RnOFctGgRRowY8c2BV50ZpJcBPSZ+RJGPXNKGcGaCLpKxbQzg71K5ZmlQCjCq8EIBhcYQzvwz0YzsXD7H4L0q+OxbHUPl+cDfhzKg793DeNxrFlp7TcBQ9MSQJ6MwJvEgTK8ocG2nAzan64oR2fZiDA0TRXOjgHVFJN54HBn/6YOq5gkR5OGEA49z469KuZFY+xNfggI1M8DTW4ehRjqB2vfNzoED6x4i/29hcNlxG9m79keCy3uNojJGVPgM0MBGo69tq79w74ILLj8VSJc8BP4+3rj34B7u3EqN/9kPQa0sxlst40vQoM0Sz0QmrpTEFBzXb968qYxLzFhPYzoNEYULF/5gHP/ZMf1X5ByJRGJYSCPEt9GbnBDhHlvQe9IrtHN9pwiz4s5AWH7I2fB1aNzovvk0jm2whsviXFjbfStox4gWlspcdgmhVDK+tt0H9mDQX/9g2a1X2vexSAozZMuRBRlyFEaJ3DmQJUMmpEv1Y8Ir3RAZK8mKERws1XhHCszfAxUgDrSc5aOLNd0W+YAxrvdrlv9fiZ/kTARj36nUxmTeiG/B3+X1ipxXgudKjwxiKHklYgMKX+x0fyRXBa9z1FwVDInhNeb9VnNV8FpzUXNVMMs+O3sucXbt/b1wNX9WJNQ8N8WKVkXL0X/hxvCpcDj9BCVypcbboCQoW0pz3AUtUadrU2ScuQ9n3U7jXaW26NKgBsrlKYo6jcMxfvQO3LqyBn0Gn4ZZfvMoBohHODC6Ezr0G41pizbD6d4rCM26v+tVUow4mTL/BtcA3cgrEOrjieslciH9k6vY5JEcRYung+/1zCiZJ6niKaPOOhoTfAbYrhle8NDvNXJkCcGdK1dw8eByTLyWGFlfXYJ73gqwyCwNENHBPmP//v2KwbdWrVrKM08FUh9R+6folu8deyUxA8d1dVzimMMxifIL39PQ9SvKwq/IORKJRGJsxK8Rgop+fioWWWEz7TyU9Isv9qGdVtmIWPjZWXheu4IsvTuiqvmnYrrw2Yha3C5rL2y9dRBDsvL/4Tj66MiH/48FheHNhfUY5LoIc3b5ab4VCr+tvZCV32u3EaeXNVN+K2un1di3YBz6dvodhWfcRJhmuydHx8JG2X8nLLvlC9dpNhHHZTMTrkHhgNm/OLK1OFb3mImjPsGafQfjyrTR2OpLzwvN6+XN0ZyPm2ar3WicNZFmP2M1x3oHWzuV0HxWAp223sSFaX/CxsZSc2z/waFdpMSUqati0vQpmL5tHAZOnY4p0+ehY8GkEZ/9ADQWqMkgOQhTkaOSx5ADlp3i+6gLFT4mKuSMNI0XnDlg2AJzKRAKU9+CQjkNIGq+Be73R+Bxc2CnEstYa/4m90NDCg0jsa2A8vcpoPAYKLhQkaYCfeDAAeV68BrxeHiNeK34nselr4JzbKNeT/WacmG75LWl0UcxNmoWCnW8zrznVOpULwl6qXCmlAoKDRVceO35nLFNqMYKtQ1TIIwpoT88MAB+SRIi+OVrpE2RBKZ5/ofx3d5gwYw3SJnsJbyupkCOTBFFGMXrADxJlwJJTBLgzZX92Hj0Jl6FmCK1VQeMSm+PMv280XrhQFQzj1K0MewF7h0LR6UOHVC/TDKcGzcSYzftx4pjrhiwcCXaNauFnLiJTXa90H3oUjj5voMIfgDnTYsxbdpMLNp4Cvc0fV/sE4qn/v4IH9sSNbrNg9udg9iwYg/ciuVGFs0Iw/vE58MYqVOnjuLhM2fOHE0bqYuBIwai36jBaHV+JLqdqo5J/1RCBpNQBAeHar8hiQwVRvYHHGvoQUXD94+OG3EN+xgeI/sejqnsj9T+KbpFNbCyz1LHX2mYiF0oK/D+xAa/KudIJBKJsRC/4RiTmmNaLy+0nmqGWf0D0Ovvh5jolhRvT2bQKBcAJ5zV10kjAtCxmzeGrBuGqpmf4fzszXiQ6z0OB5dBY59laDfoAQacX4LKp/7FKL96mDuiHAIcRiv/z/rTG7P98iP/lJuwOWWDY/1ckfbtDaRVwiESIMjjEBZNHIhBp9vh3FrgbycbOPcDZvX6uF19n1mwOlYO83EIj1r3gNmsWQjo1Qie/3OCjXMfZD35L1pVG4Pjtmuxv8R5PKr/D3I7zENAK0vsmJEwyvk8RWVwv2OQa21fHCtRC1drt8YqXpyaC+BY7RjOWS7AlKoZlOv1LdRBjkrcz0Kh58aNG8q9odIQHVT+6B5PwSmy1wMHc35PNUh8DzEVP6m2JTVvBJXYP//887vjOGMaXsfo8krw2ChkyrwSsQOFyjjNVREagIf+CZE5WRCemmaCecqEQPgjODmcRvJGhXGhYU+ca9AFf+YIxuVtxxHapT8sVi1BQI9e+C1RMuQqlQdJ3ddh8OzzCHU3Re11U9EoW5RADG3Ih43zQFiYhsNrx0AU6b0DZV4DpYf0QuHsViifZC0GPWqBpdU055ssE3wmDsChCn3RqVQavLnvjPOpyqLEqSXY8Co3KjXuCNtKwBEm1OzZClgwVrM+O0pbN0PHBsV+PWeFCEaAn6/muj+Et9d9eKesiA4188BUo2DpTO6KeIDGLyojNKIp4W+hHljdZjQeD1qAvvme4MjKWZj9vCU2jq2C1NrvSD6Hz7iDg4Mybuha4kreY95fesPRS0lNbszjY3/ytb6ERuqnT5/i/v37ynimjhtqXoJfnZ2XfA7vEz2UOE5/LUnlrxJTco5EItE/2J9TX+IkmuzDvwCNEHGN5oYIjfAvRIiLsO/mKHy0rw9cZotuSxcLW1vNOh/HT1/FS+HuOExYaw4ZKC5sZ5wSD87NFl3n2ouasNZs01B0XLpItOXn5sPEEfctwlb7/8Hjs0S3TbuFvYW9cHnL39ooLjr2FOb8PN+/Yut/TQWsWwnbmn3F5pOLNfszFzWXbBFTNNu5HRkT8ZvmHYXDTR/hYj9KOPq8iHh94ByxzxCe1Utx06GjMLdV920hrK37Cke3TdGcz2Kx1DYfjT+a7VeImy89hWPH4hHn5XBOnLS3FfYugZp9PhCOtvW0/38ZjYD/Sf3quIb3k+dy4MAB7ZrvQyO0Kd+LiTrbrDev1vLmwv95XPENj0sj6IiVK1cq56keHxc+A7xvunCcxgKvNRe2PV573hfeBy4aof+T+6MuGoXnwzbqs8Z7yv1E327fixeel4WLyxlx9MgZcd3ntQgPvSoWVqwo2tuvFFscj4iL55eLHj1WimuB78XLM1OEdWdH8TBM+3UV9hXNN4gH4XwTIno0KC1SZc8pmjWYKc5evyhc3P3FO5+DYliDDsL+xEPxzt1B1PywvRbld9sLh/P7xITyPYSjt5vmveaVfVfx/sLx9lXh2K+uaF2rgqhn21eMmmov7BeuFYfdHwrPo2vFbHvN+0U7hNuTYO0Ov4/wt4+F99Ngpf3zGvJ6GTNq+3rz5rV45zZftJpySFzcN0u0r2ErJu68Kp6HRL5pkq/B547PJNsVn983b95oP4l72I+ox8L+nWMg2/yvwn1wX+qYwd/gb0l+HbYfXlMulBNim++Wc8JffuhzZ686JjwDQ7UfSCQSfUTta/gqiR5ZHcMAiAlPiOhgrH2lSpW+y3pPbwglE/yJEz9k7afngHrc//333y/PSnC2jPkE6KbPGSmN8K/MmikzkDoC2z9n65mokR4cKhohRbneJUuW/MzbRBJ3qDOTRPWqYBlXZlD/ea+KLHjndx93n7/GS9/3MC9TDOZp0sEsaQLNEPUSN7ZtwrVsNVC5UBZkNkuqVE0Iu7EI1rYX0KBvbby4tAOTZq7FzLn94bjipWZdHeTNVhxV/siDNG8vYlbjeUhnVxsHJ4Vg3L6OKKgG2tGbooQdHtoWgN/tUhg1oxj2VT8Bm30lsNpiLtDLEsEnn8Jm7kRUvz0d1nsLYGnbogi9thxTb/6Bf5oUROJnF7By+TM0mdkGoQvHR/KqyIaIbAav4bFhKNp0OY0iUyegXTo3rFzshhKTFqF+uqdKW6aXijF7/7BNMZRASVLZtjaOjW6BEUHdsGR0IxRLq01uFPoOwUiMpKayZsb3wHGPeWPoMRATY8ePwLFx5MiRyhjzrRKOvwrHSHoZqh4g7Gd0aTzTJygftGzZ8hMPRYZ3xjbflnOCcW/jYPS7ZKX0uYl8j2PJvkz4Z2prFKOXnUQi0TukJ8S3kUYIAyA2jBAcrJmBn0kYv2e/qpDt+BNu1/yt2KizzXwMVPIpcFB4+/vvv7/bqBKXqKEwLi4uirCpVo7gMTOBKF25ixQpEm8hJpLoYT9G1AogaqZ18sMVQJIG4da+Y3B/fgebZ51FMssKaDVnImqG++KmlycGDBmH/7VsgX+H/4171z3x/O1L+L5JhOBdq3GlWGng8E0U+3cYcq7/B3NFTTQukhoICka6QiZYMewu/mr9GPMft8CO9o/Re0AIJsxIhJF9HqLdMGvkyFUQ+TOYwk8pL9oL+9qF4j/r2Ui7bgGa56CCHAyPZd0wMXVblJ+9FolnNIdv350o4jgnoroPDR02x2CzrxpO1xkFn54j0LW2JfKaJVKUNebsiIdhRudQlWYaZDI924Zac7JhzZJGyJYgBAEeR7Dy38XwbbsEk78zDE8S0Xcy3wb7eSrnHK9is5/kM8/fUscq5vyIq/GEY6xaJYoGa56vFGx/DF5D9s0Mx2C4HkNm2rdvHydGna/KOSz5XHURMm2Ypa2Y9h6Pto7BfLMBmCT7A4lEL5FGiO+ARoi4hq4pmgFU+05fCdSGZiixGF+B29UU1vbnNP8Rhlj0/Y7vRQPds5vaCluLpppXzWLbVAnVoHs4l5iE+2PziHAh/j53V7o2cvufdUdVwykmTpwYoy62antTz4cuvDHhMhtb8NjowsnroVFaleNWj53Xhm66vxq+IokbeC/Z/riozynvIduj6mod3cLPubANVK9eXWgGMHHlyhVlP5GfjfC3PuK6i4u4/CBQKA794YHCy/mA2Kb5nW0HLgvfa0tFTYaBhXmIVQ0bi1k75ivvH7jYi8J994uPT8Fb4e6g6VscHwgRdlM41GwlHNzfaj8LFG6zNf0NQ9oK1xN9J/UTzTssF9cCtfEjPttF95LmImVpC1HavJ7oN3+V2LLdRfOb4kMYkkQo943Pc8TY90ycmdBbLHC+JPbN6iJqtPxX7Lz2VISEBIu3MjTjh2GfyP6RC/+PDdiW1WczPscP9v08Bh5LTI/7xoLat8YHqpzDY/jQl3/W52oIDRGyK5BI9BfKa3zW+SqJHukJ8dMEwXXaVHiWSIsjr5tgUaMc2vVR4XZ/wXLQU9g6rMf8jmlwsN10QEmKGak0G0uDbkqEvzuW1ro4R8Oroxg+9gDeeSaBeYHX8A97h0LdpsHs2l7l45jyIFC9INSZXI2g893eELVr11aSaTFB5M9A74XYqrMdeSaJaIQBvUj6xfuh6cSgUULh5OSkPDsqGkFGmVEvXrz41xMpSnSaL3lV3L59+4sJX7/oVZE8ubIoz46SQNMU2cyT47XHMez0yYyKhXIjR8ZQPFLWp1RCPyL6qZ44ZjMfAy2S4unJqei0KByNGxdFipdu2LwrHfpNyY6F3W999KoYVgGp+WXfrWg3FJgwNRP2rX+IPCVC4LLnDapO6QbHEYOVyhgsgSeJkqSyRChG11uKpIOHoEedgjDxPIqV/87EuapzsaptwS+PA5JoYT85c+ZMjBgxIkbHD3pbjB07Vim7yP3rSiiEGhLC2fwpU6ZIT7kfgNVIvleuiQ1UOYd9OJNXZs9ujqDrazF4+hPU7dsEFQrlhFmoB/au2YjD7kCh6s3Rpm7hX08eLJFI4gzpCfFt4rdEp44T7nsIw22yagasEmi37BoCXKchv2bwMjFh2cyX2q3Ia40AH6l056t7kUpueiMcOWF/ZAZKrB6KSUcfaN5r9v3kcKR9n4XTIm1pUPvd2Pzhu2fhGAslOr8FcypEdiVnfoXvgUIQ3WGp5FPh/xko4NFdOTbqbPP4aBx58+aNIoDQJZMdBPNZUCjQVWhYYAwpjTtq6Up2ajwHQhdvnodaGpTnxev2s/dAEvdwgOLC9s92z3tN110aIJhHgPf82bNnyn1X7z23UUtf8pllO6CCy7aglv0zSZQWc2aOw5DBQ7HV+RGSPvfAratncNvzCd4E+mgNECQZCjX7B3WVCh2myFB5CNZOroXMCYGE2f7C1NW9URav4JejKCp06IOOF2ZixZWIfinUxxPXS+RC5pce2H4/LSzKZEOARyKk1XyXrs+FCxdWtpNAeY5pOGSm/LeJfsfwQ8swuJIpzs3viZpWy2DS5m8UW7MA2zwDIYt2/hjsJ2nsYsUDGvP4DLAvpHHiZ4kcy79//36dysVAA7oaiknjP49V8v1kzpxZ+1/co8o5hO3r9GlnpCzWGlNHWeL5oaNw87uMNd3HwcmsGjp3qYvcdxdj0PIrEWXsJRKJ3hOq0Sctp7ka/TgvPSG+SCh8tw7EUPyDlfWfKKXyKs9PjGWPGmCq2Qr0D2iOvz3XaT0h6qCL5n8vtXQny3L+1ixSyU1neFabjwFZz2Jkq3b49/ifmvNPipNpB0Xat7Y0aGsvdMraWPtdB7hHTjL3BWIrMeXPzBaoXhQsR/krs5/cT2zkiYiKvuSN+BaR80ow0ZaaeIvnpOaVyJUrl1EnB9Qn2P6ZQI2sX7/+h9rjl7wqyLdyVdCooRoNVK+KDBkyRMyyRvWqeFwALSplxZP9I1C36TakskyJ2ylsMLImsONRPawaUx5ZNN9XZv11SHmLb2gcZP4cemL1si2h9YbojN+vLMbmgoPR88VyjHZIiQGHxqNqajlP8DPw+dm8ebNShpFt+2fKeXJsoLGIxr5OnTrp7JigjpU03FMWkH381+FYSQOVLsxO8t7RY4cyiJK0VtPWCBWUEksL48SCP5GJluL3bphj8x+yb5mJmkHu8DUvhgIyYaVEotNE9oTIm84El71eaT/RPOM3VqPb47ZwGWhh1F6PUsL5IqbIXL4ess0tB5NE7XH179ooqLSUBEieJi20+cyjkAxpMiYBMligQcfimvfFYdvcAhm1VzmBeTUMX/gvbM0TII1l3U/2XThtOqQf9Bfq7TVD/Q/fzQmXDpE8IfQACmr0hqBLrKoM/QzcD2f9KahzhnfSpEnKgB3TUDnibDM7ibJlyypJ9GhE4QyaPnkSUPDkzBgNPzwfzppT+aMBgsIpXT8pePEceS3pyvsr90cSu1CBoiGJytOPKj/ReVVwP1xooPqaVwUrgET1qqDCHK1Xhb8LDh/ciC1LX6HXkSUY+7+/sXhEA+TL/huaVsuDF9qZvowZMyqvkgho0OE1p8eYh18mDD+0HMP/+gNWdW2QbOVgTH1aDVP226Fy4hDpDfGT8Jlhm+ZsM9sf2/GPjCGquzz3Qe85XTVAEHWs5LGyj5ceEV+HnpCExtX4hveO/TINEDSY0SuTbTRBqnTI6fkEAeoUoQjF+9cCYX67MahKX+xwj3lZSCKRxBbhCPJywbFjxz4sJ1zv4J32U2NGekIYALrkCaFCTwgqQjFxj1WBMDbyRERFzRtBIwRnjPUlb8S3oGBDhZN5JTgrzpkXFZlXQrdQreex6QH0vaiGqp/xquB3VqxYoZzHZ14VRg6fR3q6UEFesmQxXp2ciHqLEmHwiC6oU8gEnodX499x11B1zVy0zRvzIXfGBsdINaxwwoQJSp/+JdQQDNUAoU8wvwDHLukR8WV0tWKP6nnD8s7z5k3Cy4MOmO5nhfY2Zri/fR6WJG2Ext6n4ZvyCfys52JloxwQoaEINzWF9ImQSHQPVZaj7B1Vh6C3k9UxGzgbuSeENEIYALpohFANB9E9fD+DKhiSuKgJTyWBM8IU6DgjTUWdypUhuZXzOaRC6ezs/IlCSWMPQ1JKliyJnDlzxqLSGIx7BzbDo2BT1MojFS3CdkdPHCab4+ymzuO3F91rdsW+8DSaNwVhVTEncmUtgOQJX+GyywUlPt/Lyyti2yjwmSI0fqVMmVJZcufOrazTd6Pf96AmqTxw4ABqVq2ieRpMEKwkpxyP6eiI9c0fY9zmwlimlPHUfkny09DATEPE18p56rMBgrD/UEMzTpw4IQ3K0aAapOgVpmuw/bHdsXzozJkTkVW8xrFLT5CiRBEk278SZ21GoMfr2RjFMOE/X2N1h+kIsZsbK7nBJBLJr/E1I4QIegj3F2YolENNDm6cGLlo442t7fphq6/W6ZX17rtvhW/Eu49wfX4mivRCOF7h1rJOyNoumu0UmEuiH9ptjXBFhpJ1vhZspp3XJhWK8ps/ArPQN2uHdpbNNK+apV0znQ3VoLJOZZbuhTEBZ3UoVFE5o+CuGl5iCwpvFEYZ2sCwhhcvXihGFXp4cCaFwp6+w06R56i66dN1mQpRnjx5lOvL60xXfJ4zZ9h43jHr6uuPS+v24d5bpmoVeHduDpo4uOD2gWVYtvUoXD18ERSqW7NVsQ2z79MYRI8ffUCYVcSU8/fhfuowjm8aiV7/s4FF7mJoN3Q4ChQogGaafop2bi4ciLnweaJxk8YHQkMYlQLOTnLA5qKEf2gWtj32IXSlZ5vkQuWdg7u+J15Vk1SywsHbkFC8P/MvKrU/jCztuqDeHX8k+KMLxlUVePz8vfYbkl+BBgf2dTSM0ejKvi3qOMIqGBxjmANCH+G4NWfOHGU2XV/6kLjm1q1bsLa21r7TLSjnMAcQj69ixZpw8nyFjr27ommuF7hVog9G1MwREQos/HF22jgcqz8EttIAIZHoOOEIcF2PadOmfVimL9qA/Tf8lUIFxoycX/mMYFyZNvpzI0Gy1PCc3hPDpo1F39WeyKNd/X28x/FBndBz2bUvZzdmic5ll74eA5zCDNlyZEGGHIVRIncOZMmQCelS6a4jDwVsehHQKyImoIAVF3kiokKDCn+XClTkvBFUzPVdEYrMt/JK8Lwj55WgAE9l8Kd5dRvnjr1HkPcd3H/xAncuOSNF2jBcXbcFVx7fx/m1C7DpOuN33+HpfR8EGbg9gso1c6nQEKQfrtSh8Ns7Gn32PkKoz0Wcf5sbFUrmQIpihZErYcQsgFo6lNDoxeV7clVQUaShgtuouSrolRRtrgrNQkMFF9UVXc158kvtMw7gbDyNTg4Oy5HaqgG6JHmPRAUaYfCQ9Hjo8RAvnu5Hrz6b4WlkxrjYhMYfGrTVcYT9OGHbYT/Hcpf67EHAY+c50eMjqpFFAqUvUasK6SK8f+wTI+eJeJelBga3Lqkt0RmKO/MGYsy7rphS1wROq+dqlJq5WH3srsGPkRKJfiLw1usMjqMoKmV+CIeHmVFB87ri6nPNJ8aNERgh6HmQP0JYtZmJ806z0X2rN0Jd52hefTSf70bjrIk0n43FUd+QiK+Q8AfaMpv50W6bH5DkL4xa3BR+h7Jj0uKeyM9NHm1Fp6ya/Wbtha23DmKI8v9InH4bgjtzWyDrh1Ke+lWiM6agwkFDBIWhmDQW0F2RyjEVNrqexuzs/Jfh+VBBp6JE5YhCKxUhKuS6ruz8DJw5pMLI600jDBN6UTmk4kRBjgK8OmtNQUmdpf7eex16+yL22lgi4709WNCtNqx6vEH57M9x7lhyZM9riTr9RqBDqWQIurYKf/8+Ense8vl8D1+n9RGeErf9EWwgPTivWdeuXZXn5Wvx6rpFMHw8X6BErhTwcd6Os0/fI+jmDiy6HFG+mAbIHy2DxzbH54yKIg0VXPjMUSinYSyqVwUNNlG9Ktgu9cWrgufL41eSVN5PivaT8mL/8TsITx6KI393wcZUbTD+9/1YfPKZ9huSmICKHvs1tiG2C7YBKnz0RIoaoqGP0IjJZ4PPQlyNj/qCvpQNpoxBOYfHy/wxEfcxIdJlzYZ3OW0xo39WHO07CgcSlYC1TWmYuc7EYJbxlIYIiUQHSYj0eUvAomh2pMheFKU1r8acC0LFSDwh/oSjzwu41HPDca+3eBwQiKCXLxBhclA/88TFyEaIp67YEToWPuIOVv4vi2aFKdIUboeVB/rDIhUvWxienjuIZYzJ8N2KxaeT4X+DOqJmWwuYmwAp2y7BjSNlcNMrkHsD0pTHgHV9gfFN0XTVG7x02YtHvc9BhKxAiQWnkaSSNSzsXXCrzXvsXsbEb9ewbPFNlFi+GwMtUkbsQw9hSAaVEeZXiEmoHDN8gDNXVFSoTMQVFFIpwHI2jQoEZ3Gp7HTp0iXGvD50EQruqnJIpVBVBnkNOLNEl3rOUjMBIa8FjTS8HtEreCHwveOBrFUaom33YZi6dDL+LlwWJcKuYafVb8j06CAWLDgJv1dnMaf3CaT7nx8u3qZy+xhnl66O8JRYPRzt+2yBx3uBcF8nLNtzHV5Om7D9RoQSrE+ortM08OgPL+H/8A7GNm+AbguccWf/BqzYfxfFcmfAHa1RLrYqY6heFTTYRPWqUA0V+uJVUadOHSXfjL39dKQu3xZt3MfinxNpUKNpXtw/fxAHXUKQOpl0WowN2IaosKt5IjiuGAp8NnhODM+QfISeR8w/ow+wPareLOznTp8+gyTl+uLwnFYo7HMUC0QT9G1uDUuLivhrwCBUP78L5zwv4rhmDJS2CIlEV9DIqEiDZOdWYub+AFQN2I85Ox6idNJQ6QmhfTVw6O2QFpZ7foNNuQJIN7I66o0/88lnf12tij8jexWwzKapHbJqhNL8M24iTLv6IwmRoVxNdDTX/GteB80LPsDCActwcLUrfIUpspilQsoopTyNoURnVCjk0e2VCmpMh05QeNy/f/+HPBFUFuISKuUUDNS8EUTNG0HBIS5CReIb3l9eA85WR84rwXvCa8DrEX1eiQRIW74XZtbNq3RC9IrYWasUUj+4iddZ8+K3qh0xblhJ3Jw0HNNSZEHeVIDb/acIZwjH+Ypo0bEDeoybiWEFNmHibi88Prsey719cWHpcLQdsROeirvRXWy3W4fr73S7m+c1oRKkf7Ow2VB71mm8urYH6zZvxNhGRZA5pxXK5EihVMYgDN+JL3gt2T513atCdb9msuaDB13xx/BN2DK2JtI+fYNSZavgr9FzMaS8rCgSW/D547XXLwPg90FPQfYthmwc/xHUZ1NNgKsPUM75mCeiIlat3gKzNIlhYpoYSX0CEKgObwlyosGsxvCfOBbTBveA3e7b0itCItEJTJG5cht0aVYLZdP7YGtQTlQqAFwINjXqpJREVscwACJbymMSCtsUyn91vxz4qYjGxL6ig8q+g4OD4tJMgweTilGwjw/Ytrds2aKEipQpU0aZfW3VqpVBuPj+DLz3N2/exN27d+Hk5KQ894TXhooc3WKp9BXMmw0Bmg7Z9MUNnL9wCRedT+NRskRwS9wYy1uZ4+H5dRh3tgrWdr2HRlMyYdPKRjBHCLw39sEgdEGXixPhXK+HRupeDu/SQcjUcRnG5T+Bdu0DMGJfRxR474877r4avbkg8mdIqjMdP69P7dq1lWtBBVmveH8LG3p0Qhenwpi6oAXSnVuPxSeLYdLm/vA5vF1nM9D/DLxPT58+VUKSPD09lXVMcEevCj7z9PaKDs5Ek++pAEKDBo0j9LBK4r0e9YYkwnzHtsgrnSBiFea4oQEiNsYmXYDG38OHDytty9jhs0pjIo3l+pF351PoncWwIfYrY8cMgOcGe0x/bo2+TSqgUC4TXJ/eHjXudsGtOaVxa9F63M3+O8rVqIKiKWURT4kkrlH7G05yFCyYBy+u78KssdOw9ml5dC/jjkOFpmFfx8LG4g0QLfFihFAFb878xZa7rrFAoXj+/Plo3759jLuSxpQRglAQopGALtKxpZBzRouzlgwBYXKx+FT82cbXrVunCA10/5w4cSKaNGnymeJhbNBgxA6ZihxLg3KWToWCFZU1lgYtVKgATF6+xOsM5khvagK8OoohFS6gyjB3dD9fHbv7VkHat65YMmwfCkzpiNddliPDhGKYvy0f1vfwQc9xphjR9ibaXWsEpzq3MLT3diStZolUHs64W6Q/pg+2hnms9/zhCLpxBtfSloGVeRLtuk9h2Iq+ltNjnWubY1Wwr4Yz6vT3Rc+JnVC7TF6Yae4XvQSIsRmaKXSQ+/fvIygoSFnoUUEit/XIMBSD/ULixImxceNGZcazZ2trnH9eAE2s8xutATMuUEtJcxzVt+fve+FYxEkAeusZUrjJz6De73gQe2MMnkP//v2VCijz5k1GyO0LcPTIgCpZT2PAnszokekcDucejGkVLqPPPxsRYFoe/RcORLUvjEESiSR2+GiEuIHUnmvQ60A+9BvQCEUD3XDyYTpUqFoCGSnfGjHxYoQgdF3du3evMpMk+TVYvSA2ktnFpBGCyicrStAzgPkUYgs+9G3atFH+X7NmTbwr/Txv5sOgMYKzpTSQxIbBSJ/hPaOixpllztbRaEN4rdRQmyJFCiBxgqQIDbyLi/SUOOeCOybF8FfHNqiTbD9adX6FHu0vYmGCIVjfPBVOjW6J/ntDUHH8BJScNQ1BU1ejT6mUgHiNh+7PYFYopzbTeAThvqewet8T5ChVEiWL5UWGpDFgoQg6j2ktViPH3Mn4M/U7JNQok0kj/SY9mOjuz5wFDBnQL0Lht38E6jZdDRRKD78sNTGyeXlkK1oBf1mYo1HDhkq/wedd8ilf86qgMSo67xF6DqllBVWvCib9VI34xm7c/FnogcTxMzbHJF2AkwA0djLBsDGj9rn6bIQgDGlkm/Xx8VEm8yqUzwLHLr2xp8JUzOmQE0/dTmJNr38ROH47xiVfgvIni8EuSRgKdGogvSIkkjjioxHiJtL5nsZ/518gcSQZ0LREY/SulQfG/ETGmxFCovvEpBGCqAJAbLtCUsgfMmSI4vrPOG9dqTbAGYwVK1Yox8XZTypoTEpnqDNwPwsFLC8vL0U5pxux6urOa0bXaUtLSxQtWvRDGxJBXnB5kBiFUvrjYeLCKJolMcI9V6NxqWNocbUbvBsdQcWzw2DpvgnjT4ejSrW6sCmYJlJIRih8t/ZBg5NF0KuQP46deI8/x41Cw0SnsfhYEAqXKo4ihfLCPOX35jKmB8QRbNs6B9MTDMep9gEY0/MaGq/sj98ThyNx0sR4pDlH5ktg+JB+K0ChCHrqC59Hj/DQ2wsPk5dD66q5YarpO3Tp2dMnqBjTuKCGcvyIVwUNd2nTplUScKoVANQcFxkyZJBeFZHgRAgNnLHpnacrsE9lf6OvYQgxBY0xDx48MAgPLU5wMKEx+wKW87RtVR1nF07AtAR/ofn1NbhqZY0Qxy24FpgKFmNmomfy/Rg6wQeNZvRHvbypjT4WXSKJbT4aIdyRN50JLnu90qx9D5/9k9HucCEsnD8CzYpGlkWND2mEkHyRmDZCqN4QnNGLbSGAv6UreSKiwo5J5o34fmhUouB45cqVz/JKsC1ZWVlF5JX4ZDZYoxz7vYRJZoGLdv9gT9mRGFk9CY4Pa4fNlVZhZaPICROf4uiQbjj7v2UYYZUa7y/Pg82MLFjQ4Bi6KIaJZ7iYpCa65XkK95AcKFe5FMy/5imh9YDIOqYZ3jhMxqILb1F96gaMzX4AncYlwPDFjTCzXx8leSMTjhmWESoIe0eOQr2Js7RxkHKG/kdRBZfvMeJ8zauC+4kuV4X0qojA2LwDaNwydu8kQwwT+zRPxAiEPziGBRfzokfLkkjxLgBPgpMik5kpnp2civbz/FEsZTDSth+JwZWzGXUsukQS20Q2QkSMq6F4enIKmk5IhHFr+6JSRhkiJY0Qki8S00YIosZkxpWCokt5IqJCBWL37t2KMCzzRnw/NDBxRo+zwl/PK1FIUfBF0B0cXDYLU+asxLG71bDw+jp0L5pc+w0NYdewyHoBMm2ag0bmphDeG9FyUCD+l2s11mUciklNyiDj3Tloe6Iw+ue/hYNJO2J6s5x49/Qe3B8B2QrliRS+EYTLc1qjXdBQrQeEC8o0DcXa1feROU1qVB43GcLZUREaDVNJ98aMpnPxzxZ7g46zj20iJ6mMiWtIYYhIr4qP0KtqwoQJRuOto5acNeYElczBQ+/DmJRpdIFP80TMi+LtIhB6bxO69r6L9isGo1LSJ/AKTo/cGaQCJJHEJp8bIei5ewvbJk7F4SK9MbHVb0grc0JII4QkemLDCEE4I8MHMq5mI9gR6FKeiKhQqeYM/4IFC2TeiJ+E95gKlouLy1fyShRButQJ4fs0ITJmSQk1uEIxOlQ4i79290XVtIFwXTIZ6/M1RonJmxE2rDqSXAtAscbmWPvvU/Rf8zdKJXkN9w1j0HtLOKqVTYTLR57i9zFj0MbEGQf9zWFZNDEuL56KuU6vUFXxgNiP9kPvofrAziif4TWKaQYlxX3WEGckQ13Rrt5GrDpor/dx1/EJDZRM3sw2ElfhOsbkVaEKh8YQiqEiQzJiT6bRBT7LE6GVH0TQeUxvsxzpJk5Gx2JplHUSiST2+WiEuIHU97Zi0DqPCO+jtw9wevNlmM0+Cuc+v32QRY0RaYSQfJHYGrBVb4i4zNZNAVsX80REhdeGwj5nJ2XeiJ/nS3klyliUQOEsKXDLzR9mdWzRrklD1CiXBt4XXXH54nmcv5MAxf6yRfsSl9GlIg0T/VG3QHqYvDeF6Z3FaDMzM6aNfIOenV5j6rFeKJXYRCPk3cdV/yDcGTMCZ8tVRNBqfzTc/Q9SLO6NQQdDkDboFQr0Ho9edUtiUJc2ioJmcC7g4g38HgUjQ8LjqNDxCCqVSIFpRlYZI6ZRc+jomscMBSuielVQ6WG4FNEXrwpeWyYMNrZEjcbm/REZGvuTJ09uoB5oEfAcP8kTYdsWob4uOOiVFTWtskWr7Iigu7jkmwGlCxh3bLpEEtOoRgjno04oalUcrwPe4qPCbYJEqTIgw3fnGjNMpBFC8kVic9aAsZl8QOPSNVSX80REhdeGoSQ8VsLjlXkjfh4aoaLLK0F6/TMINn9YKUqRKpyKoAe4eN4Fly+eweHnuVDkqUAZWzPs7/UErRYD3Q9XxNkRVvjg0PruDOwK/IMD6QPx5GFKtDu0CiVm2uFRnYLYMucV2ndPjVmzruPKJUeMnPYfbKyroGC+nMhmllQPBT+B9x4b0KPNEDgVGYoF7dLi3MpVOFliNDZ3z4R2HcehWuUyBl9xIC5Qk1Tqm7JMIyA9KiJ7VTB0irBvi2+vCo4/OXPmNLo2yjCf1KlTG+WzqSoEhmyEUPkkT8TYsV+Wc0LvY2ufflj3NA0KdZuE8dVkngiJJKZQ+5y5LUag/OoJsDBue0O0SCOE5IvEphFCfTjjo3a5LueJiErUvBEUKnjchi5ExQVsg9HlleD1rVSpUqS8EokR5HEUmw48QOZaTVA3kxvs6m1BAYexaFk4LRD8Du9cRqBEfUfktjJHksyp8SQ4I1IffYb8dZNgn2l9TKjwAB06jMWk5YtQL9FN/DnzIWrnfY6QFg6YW+Yt3J8nQa5PckvoMkFwndYHx2wmoMbp3ujv0xgTu9ZBmbxplZk2Q3Z5jmvUftIQr6ea24XEtVeFsXoEGKsHCFGroRhLrppP8kRMGY63aUqhQJZIeSDES1z7rxfqujWHy7DX6DMqEWaubARz7ccSieTXkEaIbyONEJIvEtvKBGejjh8/HmPJ134Edg66nCciKlHzRjBUgwYJmTci5uDs7Y0bNz7LK8FrXb169Y95JdKlQZDnESyzn445i84AnezQyGMF9v7eFjaui7DsWl6MmF4Gm7emQqdiZ3AmTT2cWWQPy1r1sXnJDLw4MAQVrrbE1X/yw335MPTenwzVSgFXzwvUm2SHNkWCcGr1EfjntETlSkWQQecSFz3C/n7N0NThFQoVALJU6YLmFfOj6B/VkTnsiRJ3bgyzjXGFmqRy//79RukJFZNeFRHPbzplbDPGNqoq4sYo9qnhTcZ07h/yRHjfQfVcJZHfbi5sS6WHKd7D98i/6Lg5HFa+qzDmaBGM3v4fRlVNjMsnnqNQlcJIKWMzJJJfQhohvo00Qki+SGwbIThAUmGJr1k+fckTEZXIeSMobA8dOlTmjYgF2D5u3rz5eV4JzTWnm7ylpSWKFs2OxxuGosWtOlg+vhMqJDmAnmWG4myejEj65wB02rcbO/Omhp/rSa0SmRDOEztiW/nFmJRlC6yHJYaDYwcU1AxOoZ7rYNviGYZszY4ZzZxRuWMIll2rjV2zakG3VM9wBL8MApInQJCfDx49eghvL38kL9sA2UMeKIOuMSX8i23YDpmkkm1u+PDh2rWSyHyvVwXHGhol2EaNZUY8MqpQbIznzhAFGvKNzQskcp6IUW0aIMH/JmNgg0Q4OPwQso5oiUT/0attPgZqNKR7Gwej52pPJP69O2YMroO8KRNq9yKRSH4UaYT4NtIIIfkiceFWzTADCgfx4Q1B9ClPRFTYwcm8EXEH2wpnT6PLK1HnjyJ4mrke7IZ1QNVCqeBxYC9uFKiPMKfdaNun60cjV6RyoPV9ZsHqmA2cB1pEJAwLdcW0wkuQY1Z2jFiVGotsAzFpcxGs1TkXWW9sbTcdmDwKhc864W3V2sh69wx8slaE19ndRjfbGBfoapJKfUQVDI21jRqrFwg9L0lcVeXSNdQ8Ed2aN0GractQOXsqzVr25UPwZMhitHnrgPo17mPArYmwuLUGS59Xx4iG+WSOCInkJ1HHmiuXLsI87BZWHHuk/SQC0xKN0btWHhizqU/2L5J4hUoz3d5pCIgPaHCguyKVRCrzffr0UWYe9QEKkTx2zjozEzaFjPTp039I+imJWdhWfvvtN6ViCWfThHiHU5sc8O/SjSheoSYubJuGP8sWQ/I0OTHnoAtenNmGyYtnY+TIkZG8bFIgT7MGKJ3JFAlzFEaZbVuw0+M5QsVrPNi9EVvL/YG03tdQOPcjrB50Fx3s6upejG7oE3hez45c6f3hvNQZT8Nf4uamTbgcGK7MPjNMSBKz0BDMsCBVkZLEHKFu81BvnhtCte8/IdQN8+rNg1u0H34f0e7/tSvmNamJXrs+FUolsYuaO8QY4bjFHFwXPb0wo1dbxRMVyITyto2RP+QkJvTzQNN5abB06BY8L1QVFQP3Ysa0uVh97C6CpE1ZIvlpkiRPAbNclrCxqYIyKW9g0cPMqJD5IVZcfR6pWoZxIo0QkniFs/b0tqABID6VfyqJnB26fPmy4vqsT0o8ryEFDHqT0JiiWl/pvs3QDUlskRgVmnbE0E7NMHXqLAgRjntuezBy0jLkzpNHmXG7fv26kgCP94JeP6edfVDsf8WQJyFgkqkO7JdXhOfMliic2gYDL5bF0kUV8OJEIjTq/A/6dAqC6+2X2t/SHcQjL9wLm4PmNbphgds17N+wDvvdMiF3lsSK+zsTBkpiHrYnhgTRK0KiK7yG27zJ2PX4x6wUobfPYp/1VMz6K5t2zU/w2hWL11xBKA0lg3bhsXa1JHoYjsDcIMYMc0ip/QcNm6dPu8C82p/Id+cAnApYwab+SKwZmROnBozCgUQlYG1jiYxX52Hw8ivSECGR/AKmGXIjb1JvHD16C7jihtPX7iBzuhRGr4RLI4Qk3mE+A8bZr1u3TrsmfqBnAeP2S5UqpSjxDHX4NmEIun0Ft4PCtO/jD87U05jCJHac8eD5VKxYUckET8GD4QSS2MQEuUvVxfhhHVCscGF4eXkpiVd5L5jYkgYu3g/mQeE9mTRpCs7cT4T6/efiTuB5bBrXBEVTZkb5f4ahbv6MKFGjEi5tv4AnOiX8heLxzXM4eycpsqXLihIN8iPh/ccwrfw7cqdIoAj6asUCSczC53nixImYPHmy3nhr6Q9vcXleEyXPi2WThXALfISTE1rC0qozVrwOw9M9Q1BB81mF/rvwyPc4JrTsj3mrxqFlr83wfq95QMMuY5615ruWFdBk3lEcHFcvYl+Wg7DneXiU/U/GosVb8HjFWuy9dgQTmlTQrK+JXmtccXZeWzRpovlur5VY08tauw/t0mQudi/rrPxfof9GHF42C0tmdUT1BR7gL4Q/1hzXJ/uKdD6vuYUkb9682v+Ml+zZs2P9+vVK4laOR6tWbUSexvbY0uU1ZrRbphmLbmFd4mbo21zT/izKo3bvgah70RGnvW/j4u2XRj9zK5H8OGHw2z8GXZYGoMb0vTg/7y/krzYJa2wLSSOE9lUiiTeoPDO5Ir0h4tsDgV4Fc+bMUfIrsIwnZ6+/rLwLhD7ahcE9h6J/m8k44vtOuz7+4YwHZ07p3UEvCcaTJ0+eXDkfqcDELnRz5fVmG6pSpYpyLxg2wxAOJoRjoku+DwgIUNoYDV6M06ar/dZtBxGcxhRp3gUjcaleODKzBtLpVJZyU2SpPQUXX13BjgWTMKhzY9T44zcULv8bUr2MaFdS0I89unfvrrwuWrRIeZXEJJaw27MHM0r6w9vLBZv8WmGP81K0T/Eatw6eA3v3d047cex1GXRpZYoVc7xRr1995EisfUDL2GHPsX9R8u5jBCM1rNoPhd2MbrBOp4pZ6v7fI0fTRsjcvgUs7h2FX7tNcHGeisLrT8A7PClK9lkFl3nVkQYVNNs7ws6qVsRrFl8EF2uO9lbp8O6SP9L+UU6zj6U4/HdBjSAXjmfnD0XZV6TzCTJuI4QqV3AMlETIXJQPGMbJPBGDB4+C2W+2mLu2A0okS4KkPgEIDH+E3QP6Y7GrKWrP6oDXk+2w5UGQNEJIJD+MCUyT5cXvWZ/DeeNSLNvrgjtXDmLtkfuI/+nL+EUaISQ6Ab0hGPMcOdlffPG9eSJE0BU4DN6PUjPWYdtCCxzuPwMnn/5C8HAsEDlvBMNeZN6IX0UgNOg5AoKjE+rD8fT0XPyvy1ClLTPJaVQi55WgEMjkeDQU8d4QznLTKEFhuUuXrli3aSPOnT6tQ4Yjb2ztOAIHXrzC3UPXgOIVUathC9hWzY0XT58qW2TIkEF5lcQ8NJIyvGfEiBHy+Y0VkiJ1usRA+pKolWgu6imeEClQuGY5JNF8msSqKsokPIclB7LDzi4f9szaGeEJoZIsNdLBHzeuPIDziskYO+cQ7ryNrLZp96+QEBnL1kCWlc1gaTUYt1pWQY4ESZAudVLt51EJR8DFjVjhlw9W5r549D4VUq/oibbrvDW9UgKk/2xf/E7k34tIrmvMyL7pU9Q8EfTYa9myNfyfPkHCAo0xo/kNzJx/GckKvsLGXRfgvHQyHEsNwfDKyfHA4xGCQqUpQiL5fgRCnrnhjElRVMr8EA4yJ8QHZHUMyReJi+oYkWH+AroH6lLmbgr6bdq0Uf5fs2bNx+MKf4QjIwfB0XIS5jTKDVMEwXVaT22pK92NO6UQevHiRcVtnvHlVJaZSJCz9ZJvEY6g66vQu/dK3E9VFSMXDUE1848Cvnh1Gs0bLcfmIw6/1IbpSXHjxg24uLjg/PnzH0qD8l4xrIP7LVq0qOJWG+ewgofVMdicssGxippX54Efyk4ZYx3++KJLly7w9/dXQq8kP4ZaGtoYy8hyPKOR09hKdMq+6evwmeBkBRMLz5w5ExX+KIF7x7dgxbFEsCl3F1P2/Ialsy1xqW9f7ExuhqAkLTB9fA2Yy2lMieSLqP2tu/sNpLq2GEPxDxxybVSqop2yOYaKkaujGSmyC5HoDFSEdS0DPBW+6PJEhHudxboTaWBZNG1EeZ1QH9xwCUHKZEJnckREBwVPXmcqLwwL4PlFzhvx8zPuAqFPvXA/IET73gB5fwXLuq5HgUlrMK+OG4YMHYtp06Zh2tTtuBH8FJvHrVIMEHRx/VkDBKFxgbk9hg8frtwnKkuR80owhONjXolJyn2Ls1lx/4e4FzobzSt2wSJcxc6lq7H1mIeStCwoKAidO3fWbiiJTWg4lEkqfw7VePdU67ljTND4QAzSAOF3AKNGHYCf9m1UKFtIoofPxCd5IlZvRx6bjhg75g88P5kFdpP/QrYEAXh43Ry1/5mAzmlv48LWpdh8Q+aIkEi+jQlSFW+MdsXTIGGhFljTvBASZbXBGJusRq+ESyOERKdQM8DrUlWH6PJEvMtSF4u3tMbrKe3QftQYDG41AMdqDkWLpHvRp+9w9G8zAbs9X+n0AM2wAF5vb2/vD3kjGKrB84so3/UDCB/sH9UKTf7XDkM3XTPATNovceN0MGrObQ//Cc3QbkYyzTVrABsbG9g0rIisN7Zj+LG76KhRwnktYxK2v+jySjCPCvNK8L59kldCo5i6ubnFjuu1SSIkSmACkSwrfiuaGE9vuOL0wXO4HwZcu3YNefLk0W4oiU1o5GJ/JJNU/hxUSO/fv699Zzx4enoabAnd0EdXsS9NBkQXcHHr1q1fMgwbAzRMfZonYjDevsuKRlM6I//lXTj6JCcqt3yOHWdDUXVgD9StUgLPp/WE3e7bsnKGRPINQgMf4uLO/zB90Qbs3rgIM9cew52nwUZvxJNGCIlOQUGBQhLDBXQJDtCf5onoi1dJiqL3kjWY3LYFOs/egMXNgrG0sz2S/L0Y2xZa497aw7jieRfeQbqVJyIqnAWJmjeCM+0UQqjMfg/h947C4VoLOOwZg2JbBmPRxcfwfRgQfe19vSMcQa7LMXiVF5KUqI8RCxZhQtfEOLLbHchZHBYFM2DNmWDcvXgEY+3stN+JPdgWaUBimFTUvBIsj0nFtHTp0tq8El2U+0mjXowoq1nqYtbF+7i+awnsh3ZHi3rWKFskO1KYQIkrlpUx4g4154hMUvnj0IvIGHNqUBnPmTOn9p0hIRAW8h7PBlkikUlB2DRrh+5DJmDaalcEaD6lsdYwzzvm+TRPREs8fPgICLmK/2ZvgssjNfm2CRKavIXPE4FgJ3v0mbIHp13uSmOERBItCZAyl6UyaSVzQnyKNEJIdA66dOuqqzHd5Knw0S2+du3a8PD0gXnBwiiY8QWOTpiCO027I+PSf7H6eXG0qOKOiWOnYXTXKTji+167B92FM+5UbE+cOKEIIRTSqcw2bNhQUWK/PLP+Cpe2rofX203o334YlgdUwW/+i9G4YSO0GrIJN5iZPfQZ7t1/oZ9GCYZh9NmHP7pZI8nRKeiy+hX+GDAD0+tnRojmhGiooWGKRoB4ydOggcY73juGcDCPBL1baDBjGBGfI7rY0suF95KeLgwr+mFvlw8kQFIzc+QpaoE/CqZBqKb9Z3r/FhcuXEDmzJm120hiGxqjZJLKn4PGssOHD2vfGQ8M72KfbniE4bnPE1R2fAARchGbZ4/HgFZ1UdO6ENJoPqVCnTVr1ohNJd+Enneq/NWoUVO4J/kD9v/LhtSV7DCtvmaMC72DTYP/AwbPwJTJ/+Jvs70YM3kYuo48BF9ZDVYi+QzTDAVgYWEBi6LZkSJ7UZTWvBpzLggVmZhS8kXiOjFlZBjrToGJCrEuxq9yVnnIkCFKNQ8qe9ULvEKXNkdQwWEyOmR/iTtBqRGyvSfsM03ELLM9WJamNfpbmGm/rT9QwV63bp3imVKmTBklBIBxo5ETuoknu/F3uTNoetkOZd+/RGiK9zg1oCfOt5qBuid7YWGRRZhr9h8qDD6LIpX+h1btm+PPUpn0qAN+B3/XTZhktwhOD6ti6olByL5zOMahLxY3yQ6bKlWUa0KvBF2F7fXmzZu4e/cunJycPlSh4T3lsVtZWaF48eLfcFkOR3BQMExTJtfeu3C8OmqHhh7NsaBqYhRREjDpTlJZY0Emqfxx1IRhxpSc0rATcobi2eVT8DT7HSVzpkaSKGWNKcvQsC4TMP8YnHiws7NTxn+GaSihhuIFXKf3w5x0/2B+x2LAteXoXPca2rj0xOs+s/G6iQWSF22EFkVp/pFIjBd1nHF3v4lMgZew9NgjIOw93oYmRDLTMIQUborBDQpE5JUzUqQnhEQnYT18zqzu27dPu0a3oBAXOU/Egj1+mLWmKV7PGITFFz1w4cZrFKpcCXd2XMTrsrXx243VmDZtLlYf0y+Xxe/JGyHCMsHaoRMqpk6ClBkyIdW93bA/54sTdr0w/PwfsC33GjvmuqOLwxb816MUwj0v4Zq/6tapy7zCPdcjWPXvWtzK1AjTNzhgZIO7mDGwP0YfLIfRzfNj9syZypY0zugybK8UwHkPo+aVIFHzSjCE4/O8Er44PrIG0ua3QbPuQzBx2kKs2H8bJfNkxANtfL00QMQ9MZWkkoYqCk1cYiWfiA7BdkoDHCvQGAtHjx5VcmEYptElARK9dcWIarlRrNZ0OL/6OB2vjlMZM2ZUXiXfT7R5IoJeILRoT0y2LYHkvkcxaZALinfyRsvM1bC40J+wEJex79Yr7R4kEgnDxd56ncFxFEWlrE+wzj8rKmheN97W7bxxcYE0Qkh0EgpKup54LWqeiAGT1qPV2LFoXygYp6bMx6Yrj5FI+GFn9xE4kKgErG1Kw8x1JgYvv6J3sZNfyxtx5XFiNK+aDxHFKp/hzIZ9KDpuOSZXS4tqw3qj0tMj+M/7GfZPnIhVHulRUuzDTKcnytYIC0VoiC6GajAPxDL0nueHopVDsbZzZ/x7IiGq2y3BwnYt0G9qM9w/fkhxhadLvL4J9t/KK0EjU+S8Enx/+vR9lB29C6+ubcakDlWQK9FjeHgnR9a0KeDn5yezz8cTVKh/pK+kkYEGCz67vLc0PHGhcZGGKC687+p6bkfPtF8L4dE9aJDbvHmz9p3hw3seH16NcUMgbhy5jUY7b2FjzSs4dTuiCghRK4KwTUt+jk/yRLQdgGwls8Lc9D28zrrC3G4ihv5ZHoXst+Hg2OrIlDAMz26exNZlMzFp8Un4hkpna4kESIj0eUvIcIwoSCOERGdp1aqV8spwAF0mcp6IOhpF7MHL/JixtCFSJ62A6V3DsT5RM/Rtbg1Li4r4a8AgVHd2xKkHHrh4W//KW1HZ/mreiNevkKxkL/S2LoDcRTLgqtc9ODsegcXE9dj5X3eUy5EaSTVdb9oUiYHQhzgyrhkajx2HhlNO47kuXYwPeSCqIKX7Jbxu1Rkl3fcYDNsAAP+sSURBVMagxT9b8aRQZRRM8hojR47ExIkTlftvCFCZjZpXgveYeSUYP6/mlcifpxCsG3fCqEMBqGjbHX+XSalUxpBeEPHHt5JU0quFhgQaFWhkoBGRifrq1Kmj9F1ceL9pjFINUlzoLcNQndSpU2PBggUfSsPSKPW9SWt1FT63DEsyJMPKl2A/TW+ZqlWratcYGq/g43ERG6dMwJLjd3D12C7sPnoJ3kFhH6qgxFe+HkPh0zwRjTTjvQvyNBqK3lZp4O/liWQpk8Ak9D5O7vZF9sTvgNyV0aReCaRNGCU2RiIxOmSJzi8hc0JIvggF1vjKCaHCQY+u4voQxxo1TwSF3HCPZajTG5i7ryMKqr2NZqDe2rsblvpkQuk+kzG+Wja97oi+lDcizctTGO2UEvVNz2PRUhdkavMP+tlaAjvHY41ZAxQ5sQIuldui2Jp/4dVrCdqZnsHWQx4ITJkL5WrVQsU8qTVdd3yhzQMxajp2BXaC45FeKJXoDbxPn8GjfJWxdeYoZVZIV3OWxAbPHpyBw5gRmHsnJ4qEOOOQc0QyRN7zFy9e4H//+5+SVFYaI+IHeiowNEztKxlSwXA2ekgwtI0GsypVqqBIkSI/3ZequUVWrFih9HP0fvn7779RqVIlvXwOaDytXr264uVlyNAAxQoRupy35pcIu4K5tbYi39yqeL7uMJ4WLoSE128jfcehSHplr/IM0LAq+XU+zxPRFqG+J7DxVmYUdh0P+1QaGahrKaSUtgeJkUPj72c5ISJhWqIxetfKY9Q5ITjrIZFEC5uHo6Oj9l388ObNG6FRcsSgQYO0a3QbHu/cuXOVa8fXN699xTWHAaKD/U7hdu+ZeBseIK4uaiNydN8lHnttEM1tHYWP9rv6jre394dzV8+f6xRCngn3U5eFT9h78WBDZ5GvQEMx+rC3eO02R1RsuFJcPv2vqNjcXuw9e0FcOLFWDGnQQ6xyD4r4blzz7qbY+K+DOPkgSIQFeojdE1qJev1WCZcnwcrHfCZ4fpcuXVLeGxXhQeKBk4Poa11edHbQ3Ksb7h+uR+SFz6tGQFWuEZ8JSdzw7Nkz5XrznrDf5ML/uT6m4T55jyP/jr5x6tQppb3GxvXRFXhuPEeD7q+Cz4oJNReK68Euwt7CXriEPBCOtn2Fo0+IMg7pi/ygT/DZV/t6pY8PeSSc95wTPiHh2i0kEuPG3d1deUb4GuLvIVxczovjCzuIfH1XiTOr+opS9i4iRLutsSLDMSQ6DWfXGHNPqzutirpO1DwRffqOQt4WQzDK4gV2rzuM8wdmY8SZrGjp0xuZi61EIduyyChe4vZF/a+xreaN0Agkn+WNcLv2AAUrlIR5gnd48iQNui+dh1HVksHV8TCKdyoJn03OqN2vC+pYWcKycgsM72OGsQ7n8Cr0Ge4/DIrbsJXEeWBTIxG29uiKf08AVYb9h4WNsyjlOOm6Tc8cziozp4Lx8Aq3nU/D9eYTmBZvhRm7VqFJ4Aosu5pYqapBVBd+tv2oeSXU0qAM2dHVHC+GwIMHD5Ta/pz5pUcSPXXoyRYbXmTcJ2PF+Rv8LT4XvM/60E+r0MWc3hy6HvL3K/DceI4G3V8994HH3Y0YN3AOjj5xwf5Njjh4OztyZTRVngn2R5KY5ZM8EZo+56FfOMrVLQtzU+kCIZFExTRDbuRN6o2jR28BV9xw+todZE6XQuZE0BojJJLPYPPQldktjRCld7MZnHlSZwkVj4CwO8Jx2Bxx0v+FcLG3FfYugZqtgsVDxwGi9rA94tIZJ3E9MDTiywYCZxp579iW+Mr3H2bGw3zEhQ1Hhce7J+LI4Hpi8BH/iPUiTLw8MkzkG7xfXF5lK0rbX9BcpbgnPBoviM6dOyvnYXSz+2EPxcn/pokJg7uJptaFRT6bf8Saa8/E+5DwD7PJ0V0Ttnt+ztlItR1w4TMxceJEceDAgY/eMpKfhtde9ULia3y0T864s4/mMXCWVF9Q268htkN1Js7gvbbCnwt31+vC0/2ycDl7ROxyXC8c1jgL//AI2UEfvXT0BT43vMbs0/ksSSSSCD56QtwQvvuGi8b9HITTgxfi2fVjYtuBy+KJ9BpSklBJJNHCh0dXBm9VUNQ3YYoDNBVXHvvHAZquoi3FwuuvRODVJaJVqyXi4sUVonW9eqJegwnisE98qNyxCztjVUGhsEIl5aMLdLh4575KtK4/QCzdf+ZDOIbDJScxu2J7sepuxPUIf7xb9G28UniEBovAoFhwYosUhvFhaHjvI9z27xNnNfdEdT/luRg3YeKt12bRzXqhuB4aEZ7Ce/o98J7zGea1VJ8LdWH74L7k9f0x1D6G90AX+kf2czwWHpO+GOt4rPpm5P4eDPW8PoVG6+HCYvQJ8VLpuN8Kjw3jxayzT5VP2bdII0TswudcHw2QEkls8tEIcVP4H18qJk61F/b2H5eZ+z2FYU07/jgyHEOiF9BtViNQYcyYMdo1kREIDbiF/bP7Y+B2L3ysEB7/MERhzpw5ivs+qwvQJR3IhPK2jVEg5DQmDbqJxqPyY1+v+cjQeykch5pg0Or92DF7K24EhUXsxABgskImRdMooYobJ2uOs9ICr4eHx20kLtgaSxe1RpZHLjh+IxHqzZyExs/3YmbxxqiVJ4lmD29wc+ty3LROgtPt6uOvP+uj+6orCIrYfcwQKQxj0p7bCBKv4b56NCY+yQuzQC/lmDUClky8iARImjk7crwMwlvNEOvs7KwkIv0e6MJPt3C2gSVLlnyoxKBREpTP6dLPRE5MisvykQzpYeJTJkOTfA7Dg9TEwfv379cJl/vIWfQVN209qD6hUaCUkD8m9zQUeA+YPJShMobNG9y+6IX/1SmF1EokQBLkzJUAK0/dxxNt6JcaMiaJHRiGyvGd4yPHSYZgyj5bIlERCHnmhjMmRVEp80M4PMyMCprXFVefKzMwxow0Qkj0BgqKLDPGuHIVEfwAp5YNQ+NG03EtaxEkmLkKp1/pkhkiYoBm2UMqWswT0aVLL5j9UQ1577rBfGRbiNlzEdCxM5It74HWwy/iL6vfUb7CM0xrMwG7PV8ZVCdFJTRq3ggqnYMHD4Wr51vU69gbA7s3RaU8KfEmIAjlrIsjIwXLVy7YsCgHelcAjgU2x+I9c/FnwrcIjdhtBKHPcO/+i0/XfQ/iAbZ2+AM2LQZh7qkQWLWrgUR7/0GjDr1hd6wyRtbPjqEaoYpGsKZNm2q/ZEyEwndrD+S3aYIO/UZj2qKVWDVtPk61r44SphEZoH9FyFdLg1KIpVHC29tbySuRJ08emVfiK/C687rxutDQGRt5H34W1fiaMWNG5Rh13RDBNsj+iGV3DaFkJ9sGDXp8jnSpXcQOCZAspQkePlVzB72D1w13lMibCQFPnyprJHHDZ3kiDOBZkkhihoRIn7cELIpmR4rsRVFa86oRn4weWaJT8kV0oURnVGhhp4C1fv16JHt7GkOqTMe7/iPwT6s/kCPpe3gs640F2SZgVq3M2m/oFpzV7dq1q/I/Z6rM31/EDOfc6NGyJFK8C8CT4KTIZGaKZyenopPDK5RM+BIp2o/E4Mr6Xcbza1Cp5CwkDUwNIpX8SxJwCiN7rEOKRrWR444j1qTqh039C+Hm1N5Ykm8c/mueP1InHo5XThNRu/8xZK/WBj26N4H1d5f4DMXTo+NQd3ZKDK7tjlF7UqD174C36W9o06U1LjsuUYxHVI6Nt9Z8OIIDHsPXxwcPvR/hZfLCqFi+AMxMTZR+gsoOS9LGBmpZyEuXLuHw4cNKOyFlypRRFHBLS0vkzp3bqDxUVA8ICv26XF6Ss6F9+vTB5cuXlf5O158fet8QGlD0seQo4TVnKVY+GzR+GwPhvoe0Y0U9FMYtjdySAN0dBiOh+znFA1GKuXEL+yf2Sz6a8WLmzJmKd5S+wXPgZEmGDBmMwJAniQ2oq0SU6LyOFNc2Yvy5RMiXOhj+b5MhQwJ/3M7UEgt6lUMi7fZGCY0QEkl0sHk46lgsJeOfPx7XU3FyVCsx+uRTbQz/W+HuYCtsHR8o73SV6PNEqISLEM8NokP9ceLwI39xa/Nk0adbXzF64V7hbmBJK6MSXd6Ip4+ui8tH94hdJ93FU7elovcqd/H+QTSlTcO9hGP7hsLe5al44b5TjKrf/TtKfDIXxWGxxcVPhIQ/FLu6FxfI111s8Hyr/TwiuaguPgdxToi3OGLfRlikTKlNShkgwoMCxPV7Ec9jXOZxYPzx9+SV0Jd8BD8K+w8+HzxXfYD3gfdJHxK6MmeJms9CH9Gnax2zaMbNF+7i5K5twnGXk3B/8V5Zy76A/YIk7mH7U8dzXcwToeYnYhvhcUYdS760cFsmVTb0cUby67B9sM3wNaJEp4tmOSN22TcXBawHiQ3XNXKUdltjRYZjSPQKzqTNnTtXKUH39m1yVOjRHqHLpmLZgVNw2jUf/+4ohE6VzbVb6ybR54mIQARdwKzuB1BuYmdkPzIaQ1xyoEXvzqif+w5mDlqD60G6FWoSk0SXNyJDtmI4ed0TBTMD6YvVQkPv4ShSVFvaVPs9ygbvr+zAzIBGaFQ6PcwK1kGPdib47+g9hH0jRCNBqqTwX9IdXebdQYlBY9A5Rx7kTB9hl+aMIr1WNMKJTnkDxT1BuLygH2Yn7oVDLwJwbYU1rvYfiYUOozB86zVlC5ZijSs4Q/09eSUYwhE5r4QhhHCwTY4dOxalSpVSXvUB3i/2d8TOzk551VU440mPDXpuRO6X9QVeX/XY9dWT44cJu4cDs+Zh1YGreJYoPXKap0Oit68RrBH/g4KClDBOSdzD9hc5TwT74vjOE8FxgM8GvYSYk4qhfsxpxHDCOnXqfCgzzeXNmzcfwgPVdfTGs7KyQurUqbFv375Pxhn2GzL8RPIlTDMUgIVFceQU17H3RnksXTcezYum+U5vXQNGMUVIJNHA5kFrr65BCzaPLcK6Hi5CnriJ3Q5zxGyHPcLNx0dc22kvOv+zXTwMi9hel1FnamiFf/PmtQjxOS/2nH0oQkJchH3hvmLXY7UKRKBwm91U5708YhLOMPD6cGaS14gzEKdOnRRB/k9E4CeljegRU1903/VQa1XmtWou2jveEwFHhoviFjaiab85YpubrwgM1FxjZZtIhPgJl1WDRP0OS8T+Ff3F4P1+ymrOdvC32d6MmrCbwqFmT+Ho87EtuthbC+TrIgYs2KBcI12D3gIs/8l7yFlhth8u/J8lLOmBxG30DR67vrZJXm/eA10cU6KiHiuvtz6gzjqzbehju/4lQvyFu8s5cXL/drFl5ShRPy1EyopzhFtwuHJNuEjiF7ViTny0T/aVlBX523ymKWuxD4qJ4+Bzp3rlqeMMXzn2SA8JiXskTwgR/lLc3TVBtO+/weBK8f8K0ggh+SK6LDCy0+fxfRDGw4PEA6flYnA9a9F84kqxdFBLMepkRIkuXYeD2GcDtKL4tRIO7mpowEcjRHjgHeHqYVxuXBRi1EG+WrliombZv8Q0xzPC522Y5lr5iAtr/xXtbRqJvvbzxYLxHUSN9svFtZe3xKqGjcVst2fihfsh8d84W2FjbS1suq0U5887ikXbrornH4wZvL6tRV+tAYJCBH+LrxKWlO2gaYuvI94qoSsNxID93mKCRsnXByGf/QTbEJXKyG63fOZoqOB9VgQFHUYVaNhf6Cvqc6UPijKPke0jwkCsuwoFj43H+Mn4YXSEi5DnV8WWIU1Fg9GO4trziHAMVeGUxD9sm2rf+3kYaszD/pJjE39PNQzEtvGW5xjZ4MHxRh8NxpKY4aMR4obw3dVX5EYBYd20jbC1tdUsmleHy59PihkZ0ggh+SJ8eHR1AKfgxY4+YqbqsTg82EbY9PtPrJ/aWjRa5SFCPNcL21FHxcuIzXWezwfoUBF4baXo0eFfseWEkzi8foJoWXuqOPPsrnDsXlPUqd9GDD/8UOiBs0eMElmwKFkkn2hYuoz494TWOyTkufB0cxEubvfEi5Aw8c5tjqhoYS3qNB0gZu86KtYqivQz4blrizh1fbeY2LScKFDeVkzaeVMEvr+nua62YuH114rQwLYlZ9BU2BZXiA71e4lZq9aKpaPaiAbDDgofTeNjm9WX2eLIRJ7BUtuTuvA9+z22NV1SPilI02Ci7/D66suzpRoieO11UcFnG+Wx6erxxQmcgDi5SHRv0FssPOkl3kayzvN5lkYI3YH9Kfsw3pfYGjciywh85fu4hucZeeKE56pLY4kkbmDb4/3na/jbF8LXx0f4fFh8hX+gsZsgpBFC8hV0fQDnsfEYvb29xMuT40TFUSfEy5dnhH3v9eLq/ZvisseTTwQSXefzAVqj/Hk6iQ0LZ4rZDgfE9Wf+4uqiNiJH913isVc0yRmNCBoKeI0izzh8KmwwRKOB6LvfV0lYdtrVSzw7M1XU7LBe3Ly5SnQp9YdoMX6p2LBogKiZM7PIWqiq+Hv5cXHrxXtFcOF+pdAQmTDx1ueiOLBtu9h/9o54ofUg0fU+4kdg++G5qPef58aFhhYaKyhUxtesFo+Lx2QIs2pUlnld42I2NCZgP6AqNbrkGaWOfxwzjLevChXP9v8j0iKtsLAdLuwXrhJbth0Qzl6B4rXmmvD66LPnkKGitl32rTHVdrkfygHcb3wZH6JDNUaw/5aelcZFZCOEIs+77xFzhnQX7ftOERuYED1iM6NGGiEkX4QPjy4rGBx02LFzwBFhd8SG1v8Ixwf3xZGJLYV1075icLd6wqb7GnFNz+Kvoh+g3wmfw+NEfdvBYnD93AIp64jRh72NvhPj9eH1Umcc2BYU5eZDiEZjMXjJGjGl51px9/0dsaJ2DVGjUiWRpf5osXhCe2VG/1HQA3HBxVUcHlVb5CtWUdnPaSm4foNAsWdEv0gDrOFBZZlCI5U8tX1x4f8UdvlZXMw+q/2cLvfFPwqvH6+jPqH2y+xj4tPrgM+b6jUnlRoN4W/FC9+HwvP6RXHh5H6xzXGT2Hz2kbj5iQIg0TWiDUP9SSLvSxeNTqqcwvbIZzc++w9J3BHZCBHmuV60rj9G7LzmJXzuOolF7duI2W6B2i2NF2mEkHwRPjy6LvhS4fwoaHBWZJAoPfqEeKlM1L4Vd1d1FJUXXtV8ol98NkCH3RGOw+aIk/4vhIu9rbB3kZ1XVNgWVOGcCg4F9DevHgn3UxfEpcNTRP182UTBXDXFjE1jROHBRzRthLkNWNYzQLx/tFO0LTpA+W6NtGWFo897EeJ/X9zTlnqTROWBmNtihHK9jCXmlefJNkavCLWdceEzSkMF+8rYUHi4X/7GR4Ok/sNryWunGAz1CPbFqlcEDSlx2fb5W5Fneo3lufsmIQ/FiTn9RH3r2sJ2yBJx0idYWa0qAIb03BgafJ7UvvRn+gLeW/WZ4Kuu32v1fNmf61vfJ/lxPhohbggfx56ipsNNbQh1mHh5ZJgobu9i9BOJskSnRK+pUKECNAon7O3tNe8E3r1+jxKl8iC1UvcmKfJWr4fcx6/Dh12BHsEShCz5xFJ8LH94+qwfGk3qjUoZAuF1NQQpk8lHNypsCyzZqOn4UbZsWdSqVQtVqjWE890byFm6M3bc2oEuGWqgcr3mGP5oEUYvc8bTpG/gumYwavWZhb1P1iJD5kxI3HkUymd+hbNz+mDKqYfwv/cAAaF61oBiChGMly+DFW37E0Kf4MLz98q/LGtoDPA82cbU0qAagVcp2TZ06FAEBAR8KA1qYmKCwYMHK88vS8L9alk6lhjlbxhSyUVeS43SgBUrVmjX6Acsr8yygxoFAocPH1bK/LHkX2yW5vPw8MCkSZOU3+Jvss3xGIzlufs6z3F2Sn8sQgPMXLcUdg3eYX6L/3D5vcC1axHlg42mVKke8qVy5ewz2e6/Brfp06eP0j/ymejVq5fO32ueL8cOHmvU8uwSiVGiNUZIJJ/B5qHrnhCEXgM8VlqWw+6uEo1arhF31aoH4YHCx/uF3lobadn/NE9EsPA5vEUc9Y3ujMKV/AdHHQ8L90BjS1n5OerMIWcdeP0mThwiFrWsIQY7XhX+gffEsentROm0mcXvnUaIurnqKdv0K9xfnA0OF+E+jqJ9aXvh4r1TdC9sIaybjhQbL1wSZyLlQzAKNNfBlrlHAq8Jxw0u4kWYj3DZ5SJ8HjqKCg0HiX8YCiX5AGc+2GfymVXbHRfOfv1MXgm1bzPEWW91lkifz433M7L3Fe9xTLhacx/cF/fJfdPzgW2ByJn9SLCUdemJSp8dgb84MribUlWKzyHvjUQ/4P1S+0qO218L11I9CrjExPMWH7Dv4BihDx4ckp/joyeEuwj3Py4mjd4jfJSu6qVwWTRBrHcPUrYzZuR0qkTvodeARkhTvCES5G2GeZ3uY8DgA/Dn4x/2HoHu69Fv4A48Co/YXp+gZX/48OHQDNDo3bs3unTpipeZLFEpi6l2iwhE8CO4bp2Oro0ao+M/5/A8keIKYtRwppAzDidOnFCu3/nzt9B9/SFc/Pd/qJipMsY9qIDZl+9ibYfS2Ou1B4tXzkClssHwehKAK5vXIaB/HaQ5thXXeizBnimFsaXZOpx3XoCurQZi7nZX+AbrYYP6QUJ9PHG9RC6k9zmHpWefIjzoJjYtuozAVKWQN8M75M6ZU7ulhBQsWBCNGjVSntnz589DIyDjwIEDikcTPSM4+8UZ7YYNGyqzYAcPHvzqLDpn3DWCtkHOevNa0Yvt+PHj2jX6h+p9xfvM+857TM81emLRe0H1hvnSrK4648ttuC2/w+9yH3zPfXLf9HzgOEfs7OyUzyRa3j7B05dhEf+HP8V9N1OYpTKFs7Mz0qZNG7FeovOwrdOj4fLly4qss2PHjmifG/aX3JbQi4LeBfoI+w4+x/TkoEfHr3rMSXSZcLz08kGiVDewdvo0TJv2H44FJoHfvSfQ9lxGizRCSAwCCuoctA4ePAHzaiOwfXplhF7cBLvGjTH6XAqUTrAV6y+90m6tf3wcoK+haQMrdJq2Dy8YIiBe4d6xpejfqB6a93KHTZfGSNrAAgWTmEAE3cXF2y8/d6U3MmjI4fXbvn27otTl/s0a7m+9kfr+Hjw6vQuDJq9Q2k/bpu1RumkhvPe+AMdlOdDJJgjbZ17CW8ehaD9kFQI6NUD7VjZIfwdIHnIMI4bvgq9BX9xQPPX3R/jYlqjRbR7c7hzEhhV74FYsN7KkzofVS+cga9as2m0l0UEBuWbNmooxjO3v2bNnShtke6SwzZAhVWlVQzgiC94UUJs2bap9Z3jwOuzbt0/7Tn/hfWaYDu8xjQYTJkxA6tSplXMrXbr0hzCdqEvy5MmVz7gNt+V3+F22E+6L+4yqZJmZmSmhP2wvRq+4mBZHy4kJMGXINKxy3IJV/07BDqsmqKw10ueURlK9gs/DhQsXtO+ApUuXav+LQDVA0KhLA4S+h9rw2Wafz7FAGiIMGYG3XmdwHEVRKfNDODzMjAqa1xVXnxu9fG5Cdwjt/xLJJ1BI4gwyO319gEIZZ9VOnNiMM2N6YA7qoQ4O4WiGxqjtsxVXai/CrFqZtVvrJxyEx44drRmcl6NNx0kYNasbQl1uwLT0b0h7Zz0Gt5oBTD6AZfXfY1PX0bjc2h4TqmWT1sYoUNHbsmULRowYobwfP348/v77b2XGOdz3PDbfNEPFNwtQ0ak+Lk8si/dPQ5Eyc2J4LrZF/8QTsK9jIYT7X8burcdwJzA5cpSrgXoV8yKlITqgiGAE+PnCx+chvL3uwztlRTSwTINM6dMrhjF1hlby41DoZA4TT09PZeY2IrcNFO+JokWLKgYKKqSGGv/P55BKOPNrGHLsPu8zjRPRwXv8I+dOpYVGCFKmTBn8999/xvsMiiD4PnoNPLsCpyv+MM1tiarlC8DMNMLIo0/yiwSKR9CVK5p76eT0wQDB/pFeU8+fP0ft2rUNxgARGdW4Ym1trXg9SQwDdXxzd7+BVNcWYyj+gUOujbA6ZoNTNsdQUfPqPNACn/o1GxlKUIZEEg1sHozT0xcYW6wec8jbYBGiVD+oLbpMmCMW73AWF/fOEh2H7hGP9TykPyJPxATlXLv8M0l8PJ0HwtHWVji4+wgX+5ai+SI3Eah8GCoCPS4LDz0rVRrbqPH2jCv9mDdiohK/p5REvbBbHPGIFLP38oQYVaqf2PU4RPP/KTGhYhthv/eMcLlwTKwf0lK0XnVT8y3NtfbxMdC8EW+F55Ht4qzPuw+xjhrFSvuZJKbgteUzzuouX4uLNhTYjtR8B5Jvw/GN14wLc0VE9FfGCDPMDxcWkapheWwYL2adfap8yuvDuHuJ/sK2zTGG/SHHaS6Gmj+B56nmiJAYBqqc5O5+UwS6nxRH3F+K8EBvcfNBoAj1cRG7XHy01TKMFzlBKjEYOFuo6cAxefJkhIgwhF/Ziil+jdGuUircdRiLOddzoc+Aasik57PVnAEYPnyEMsuzZPpwdO3SJcKNL/Q5/N+WQc47C9DvbjNM71QSKU0EQu9tQZ+BO/Ag0Nijzz7C69W1a1clDIMx3R/zRpxXLNdduvSE5zszVC2QQvuNcLxyOYDd9f+HypoG9PzsNqys3RO965SHhaU1WgzvjGxjV+HUo1OY2rgB/tdqJDbeeKn9rp4i3iHodaj2DQnCvQM74PYi9EPmeX2Nx9VlOOvHZ5yzKAzTMHSYz4eeIJLvh9eMXhAMN2B7MU7e4PZFL/yvTiltNawkyJkrAVaeuo+b2pCmjBkzKq8S/YRtm2MM86AwZMHQPCAiw/OkVxPzYcicL4ZGAqQsWAlVC6aGScrsKJwjJRKaW+BPC3Oj91KWRgiJQdGqVSvl1cFhmUZbN0fdjJsxdQ/w17zNcOhVBqFOc9Gj92bcM4CcgnTfUxM5ValSBQ/90qPbhjp46eiKAmXyI01C5oW4gFndD6DcxD6oap5Y+03JzJkzldcpU6YorxRseD3VvBGESQSZQJACwdu375Daxg5nRlSEZhiBaaLECH/1Bu+ULVXCEXB6G3ZWt8emASkwdMoR+Go/0UseH8HISnmR36YZug+ZgGmLVmP/pUzIkyUJgoKCFAOOJPZ48OABChcurH1nuFCRvnXrlvad5FvUqVNHcdlm2VYqLHRTN04SIFlKEzx8GqSNq34HrxvuKJE3ExIq74EMGTJo/5PoKxx/GabGV0M1QKgwrIqheAy3ipwbSCIxVKQRQmJQ0BtCFc6CMthg0JydcJxYH5lur8eAOm2x5ElOlEm4GctPP9N+Q7/hoMXBmXGSjC0+fdYPjRcvRZfXi9DWfju2T5iCu91Go1PxNBrVOQxBHvuwyO4f9LdbjD0expm08vTp00ouCCaAiy7WXs147+7ursxEUyCgkWfe/P/w5nWAZosESF3RFnaPFmG0wz44uxzHhkkOeDK0LLznn4TpiYnoMPwiWtqWg15nIMlSB9NOXobz5lkY3KIiCmbKihLNqqFgmoSKJ0SePHm0G0piA+a3yZxZv3PYfA9MbhoQwOdK8j2oihiNEfSGWLdunfLe+EiOwg1skXbpSExatQWOq6ZhzI5C6FTZHPfv31e2MNRcKsYCFXGOv1TMjcXrjomMJ06cKBPPSowCaYSQRCEMrwNeIbITtr6hCmeLFi2GadIAHBnYAqOdU6JqwzwIQEYUyJsE970eIYDVJQwADs50U+TAxdn7eYu2onyv6VhZ7x12O2VCmaJpkRAC7z3WofvgUzCr3Q5d6ufA3ZnjsPy6nocM/CCcNezfv7/izszB/mvQFZSlFpkYkNUNWKmA5RVZRs/jfgK0WToTbbM8wfnj7jCpNxaTCl7F8qJjsXWyNR5WGwg7vU4IGo6g6yvR6fd8+OPv8Zj670wsmnccIeXLIk/CCAXZGGbp4xNmiTcGd3IaWvS5TGd8QWOEanD/WplXQyaBeXWMWzEMldOZwiSdNcasHITKITsxfe1l1G/QQLuVRF+hIv49Y7WhQRnFx8cHmzdv1q6RSAwTaYQwet7B//JhbD96A8+DvHBq2TC0G3sKT7Wf6iOqcMbZbg+Pl6g2eRfWDG+B+j3H4e+QA9j2/n9o8Wwqejp6alQtw4DnTIWZeQ0olHbp2guJ8v6FxVta4/Ws/pju/BBXd25Fqs5/o3n5kihqUQfdu+eGw1Q9Dxn4QZgvhLB9fC+cTWOpPOaN4IyMmjeia+8xCDbLjz4Du6F5pZxAcktM6V0ZOXMXRqmrXnii1zauN3DfdxgFV13F+rJPkLTTAjj0SoIT7q+U2RkqyHnz5tVuK4ltQt3mod48twjjcKgb5tWbB7dvWopfw21eL8xze619/wW4P+ua6L/LW9MfBuL2mv6o0GsXHms//imUY5yBTXOawNLS8sNirZ5DJGhoiVyWT/L9qAZ3GqGNExOYmhVEpT8botGfFVHQLBHCXrxA4LsnKGS0uTIMA3p4UhH/kbHaUKA8x5DRdu3aybAMiUEjjRBGTrjHWrTptw93DgxEWethOGRmiyX2dZBF+7m+wvj+Bg0aKGWeTJMmiSiBY5oNlXtPxoyBf+GPiuXwcswanH5lKGaICD7NE2ENv7Dc6DVrLnpYZkCqdMnh+SQwSghGCLx2L8Oee8Ha94bLwYMHldhSJn/6GTddCgackVHzRqRNmzZS3ojdMCtWFbWKpgEy/Yam+ULxXK/zgL6E/8N7mNymGQZu8MCd/Zuw2dkPaVMk/lBqkDXdJXpA2BXMG/QNo0Li5PB2GI4J8+wxers3Ysb/IjEK/r0FLnvsYJWyPZY6u+B4r9+MuxxZDMM+iWFl7NekskIEQl8FISz8DczMzLTrJPoGPRY5YUADhLGG1DAslF4gaqlSicQQkUYIIyc88Dkel/oNFYoXBIpVRtVc7+Dp+UyvwzFU2IF/KpyFI9jXFVsndUBd+5do2NoTs7bcwnvtp4ZC1DwRZ1zdkMI0GQo0G4LmLnMw2fE4zh5ZD/spZ1Gvay5cn38J75IatmpAd+VatWopISsxUVOfAgKTwzFvRPXq1T/mjZg3D89fmuHPia1RSq8vaTbUnnUar67twJL5U9Ai9wt4eCdH1rQpPsRbG29W/vjh9YrOsKJHgVVnrKBzQ7g3dvWvCUvLmui/8yRWt6wQ8f8uT/ietEcTyyrovMIv4ssawtzmwVrxSGiLeaf3YVwFrYdCXycEJbJBn0l18eS0OYZMbovsCMH9NV2Uzyv034ErOwdFbMvvHtmIXsr/FdBknisCfXehP/dVYQh2PXqAkxNafjzGyIT7RnzGffZaj9uvDcsAHF/QMKoa3CVheO7zDL7Xz8lwMT2GeU6YK4aePsYMkz9ThnVzc9OukUgMC2mEMHJM0pVA++yPcfpxdnQvEYQLx47h2DkvBGk/12eoKFI4Y1whEArf/SNQp/tmBFiNxp6lXVGldiNUe+WL5waYnfGzPBEa5dgkZUl0mDoQlULdcfp6KCxHzsWgnF44lKYiymR5B+9TqzFt8Vk8NcDrMXbsWMVtmbGWMQkVceaLiJo3gm1On2cmRdAt7Fk0Fn2bN0CLnsMx5WZWNBw4Bn+XSQk/Pz/luZLELSnaL4WziwtcnJeiPSvH+rvhgBMrIzyH03oPZOvSBlZJnuOS1x2c3xSAdnuOYGn7yD5tiVDGbhuOzSiJu4+CNW+t0H7UOMzo8ztSIiFSF2yJeet74LdUFAtMkcmqJdpbpcO7S17wF4lhZbcDzkvLYd8FfwgrO+xxng/rfadx/vxJOLFMzLtTWLfjADb5tdJ8pj3GyPi7RHzmcgLzC5/Ggdsy6VpM8bnB3dgQeH/7BPZ6vEbG8u3gfcMVKVOm1H4m0SfoBcGQUrZpevoYM5QvWHZ+/vz52jUSiWEhjRBGTsI8tdC3eyOUy5EKSJwRRWrYol9bCxiKIyNnq3fs2IHTp88hS6VB2LJxImyLeGFWoxaYsOMS7p+ZieHLryDIABXvz/JEdOmC4ITmqNS8Gwb2sVVCB55eOIFbmTyxqWMr9J+zGnNuvkICpea64UCvEM4SrlmzJtaEmqh5I6gMMG8EQzVYjUP/CMXr+5dwLF1rjGr7O36vWQ/VLXIipaZtsDKG9ILQATL+hlqV6KqcDlZ1s+P+ko3wK10G5ndfI3fNUEyuV+0TT4gIEiBZak1f/9gDV4KcsWL8RMw54B2NN1gonjivxwq/fLAy94Pvq7dwHtsAVp3PoU6ZjDBxHot6Vj1xvE4FlC1bGZWSaL6SpCzqVauIWonmaj6LxhMioyWaZVmHepZV0PNWBdQqEPEs0rNGGrV+DdXgbrzeEGF4dnUbNl57hVdJ0iprcufOrbxK9Ivdu3crbZltWgJFhuBzLcOtJAaJkBg3IbfFhg4txZD1x8SFs7vF7PatxMQzT0W45iM2D40CG7GdHjNo0CChGdTEmzdvNO/8xP6+DcXokxHnKELuCcfutmLh9dd8Z7BcunRJlClTRlm8vb21ax8IR9vioky3BeKw+0PhttBW9N3vJ8LfPhTOG5cLx+sB2u30F3d3d6Udr1y5Ursm7jh16pTS9vj7vO58liLaoO4THvxWBIcFiQdODqKvdXnRbdVV8SJEeWKUZ8kQ+gVdh9f5wIED2neGC9sSnxPJr8H+hn0N+zzD54HY1repaNO+rxg11V7Mdlgu7G0bCnuXwA99/sdxTqIvcHxUx0rJR9g/Tpw4UftOoi+ofZFx9Mk/h/SEMHJCL2/HmNTtMLiFNSyt6qHnoErYt+gEos6f6TOMq6M3xL59+zTv3uP1i1wolT8NlAl/0+woXyMtzt56xncGS9Q8EcrsfHgSFO6/HycX9kC1/IFw3fYESe5tQv/mI3HEtAiKhV3E1gPuehuawyoODIvgrErTpk21a+OOyHkj6CXBvBFM5qjkjXhON3pdJRSPD41F6+Hb4ZOvBWbsWoX/PV+E4Vu9lKSmfJZYVlESu9DbJCjIEALjvs6tW7eQM2dO7TvJz/JVb4jQR3BaNhtz1jrD1yBKU2fHnxMWYuq4v9G4agUUz2SGPDVbwyprYvj7+0dskT278irRHy5evKhUyjH2XBBR4XPNam+6LTdIJD+ONEJIYJok0YeM5SamiWFoOe/VuDpmW377NiVKVQ/G2i2X8Uoji4mg69i5wQcW+SJcOA0ZNU8EYy2ZJ2LVmv0o+ls2JDUBwu+cwcYzr/DkXT50mtIdhT0d0KNxO/zj8gKJtN/XN1hjmwozlf74jC2NnDdi5cqVepA3whRZ/hyDhS0TY2//rhi+4xlKdpuJOY1y4bb2eFlWURK7FC9eHM7Oztp3hsu9e/eUJHSSX4d9+8dEdgKhAb7wDXoH350TMcQ3N4r6zseUI08iNtZrTGCaMj3McxREqVLFUCBHaoS+8sIj/xA8fvxLxWUl8QjDGZnHythzQUSFBkbmtHJxcdGukeg6lPPYFxO+Tpo0Sflf8inSCGHkJMyaH9Wc12Hd2Tvw9b6CPWsOI2PdUjC0ec5WrVopFvZ9+44hX8tR6PtuFqpXrYOq1uPh02ocOpY0jiRWHNw5O09lmDWoqQjTYwCpymLChcVom/IIhtRvgV6XfkeXjmXQwDIPkiAMQbev4HaQ/tScpBDO83N0dNSZGTG9yhshBEzTFEGNpgVwrXt1/FFxALZ6v/8wyyhzQsQ++fLl+yDEGCrsezhzT4OL5NdRvSHGjBmjefcal5cOxVr31wgNAQoUKY1KNvVQKL0BVEISQXhwbjeWTeyOqoWzIWe/g3hfuA6qFU0OHx8fxRgj0S/YF3C2v27duto1kshQduDEikQ/4PiteqXxVVbriR5phDBywnzuwKlKRSQ7Oh/DR6+Ee9nRWNQsn8E1DCqA9IagS/zzV8lQeeBKnNy2GttObcLYhvkQevswFvayw/ZHhlawM3o4oJ06dQrHjx9Hy5Yt4RNmBsvspjDJ2xXrrpzFzsqusJuYCZVLpkPovS3o03c4+reZjCO+TIOv21CY6dq1qxKG06hRI+1a3YGGIJbV2759u3IPqNDTM6Vs2bJKyIxiFIpPQl0xrUAy5OvlAJeXJTDgsDOOHbJH0zxJlFlGzshIYp8iRYoor4ackIyhSkQatWKOj8mYLyJH4fTYtvo/rHR8Dot8ZhBZCyDz8TEYsP2BElqlt4Q/wZXNSzBpZQhajh6IGtUboplNUWQwNcGDBw+0G0n0CYZikJgooW2IUEagMhvv8oHku1ANwoQykwwxih5phJDgzUU3PE6SDcWKmQO3dmPRGlcEaD8zJDp16qR0BqxBzaaf1Cwdkr64iE12LVFz9AVkKP0ac9Zfge6r2TEDO0kqvYTK+pnLz2BjUwhmSbPAsn4dlP+jDIqnuIRZnf7Fu3YzsNjWG93WXkOo8g3dZebMmcqrnZ2d8qrL8B7oXN4I0+Jo57gJvVP6w0/TLxQpVQS50yZVcqgwPMDa2jpiO0msQsMphRhDDsmgEU7OWscsNOhEhGXMQKZ647C+pRWsx4zG72eHomrjBfAs1A2j/swRkRNJLwmF3+FNOFdjOpzW18JDxw245n0PD7WeejTaWVlZKf9L9IdLly4poRiS6FGNM6qxRqL7qGPb0KFDZYjRF5BGCAmS5LdAFRsbjQKqXcrlgiEGJ7ATYGfAcpXPn/vj+RE7VO2+Ba/McyNJeEKYmITj3cNniFpZzpBhqML69esVxVLJE7FqlbI+9Ik/3tbPhjuTpuBO017It7gWqsxLAbs6+ZEw6C4u3n6pkzNpDGugS+eECRP0KjGZbuWNSIKMpZpizMLeyLarByo1GYm1ro8V4xOPRbrOxx00DqqGQkOE7VydLZLEHGoy5tNnLiNnubJId3Ii5oW0guPRJRj4V3GkNdVfEwQQjEdXbyJNhiwwt2iGsY4nsK/mfYwYtAu+mk953hL94/Dhw9Jl/RtQqb179672nUTX4SQT+2LpBfFlpBFCAtPsRWFhYfFxKZjhQ6JKQ4OdAb0hJk+2R7oqI3HUcQLqZw9DoNl7+IfWwPIJ1cHK+8ZEdHkiQgraYkPdQDg6ZULZSn+ic6+GqNSrH9oW8semPqOw5UGQzhkh6DnQv39/ZaBmuIM+EjlvBGeJ4z5vRBgCXFdiSNcGKFdrEq7maoXhHashf6qEyqcU8LNkyaL8L4l9qlatqlzzhw8fatcYDmzPzNPz+++/a9dIYoqP3hDMKRKOt0EmKFGmBMyTUuQLQYDHUSybuAzOAfqT5+cjYQh554lBlqlgkt8GzTrZYd3NpKjT4Q+k0bqqS0OpfsEQA/Zz8r59HXr4XLt2TftOog8sWbJEekF8BRPW6dT+LzFGxEt47N2MXQ+z4a/WNVEwZYSyQUxMTJTEfroYV/8rHDx4ELVq1VJc4AvmfoM51WYj7cpFaJs3iXYL44WKARV5ZqtnSECWhF5YOnYohruXw5LF/ZF7p0awTTUES7uWQkoTJqy8Dl/zYigQqd3EFzSeMMfF/v37FWXeUGCSTYYQUaGgAY3ePDSmxc7AFooA1w2YNmUuZm9+gTL9xmDu+OYoprm/VIRZ3lV5bmQMf5zRpUsXpbQuPWUMCT6vZmZmGD58uHaNJCZRDZg0ZpZJeRENZgj07ZwfPruXYY2XOSxzJcG7JBXRb3QD5NErzwhvbG03HZg8DfVTvYT/i2d48uQ90hUqgrc+d5Vzln2UfqG2VamOfB3KAqVLl5bXSYdhW37z5g08PT21az7C0uasLCb7po9II4SRE+o6DaWXpMXsspcw4X13HOpeHKo6aahGCMKZ5YL50sMidzWIfJZoVLcgEms/M3aobFLhYZZx5legSxnwDr4HJqDZdgtsmNsA2Uw1befeJnTtuRpPEpdB9xn9US9v6niLM1YNS4wrNdTEVrwvTGbJcCLCRKtsxzEadvLeDXNqzEbi2dPQuVQyPD44HR13/IYV8//C48sRAhAHWGnZjztoGGSoFEN1DMW4piodUlmMXdRwrvXrVyDI4yS2HrqMu3fuwMv9DoIrd0L9tztxtdpizKqlR/WwxFNc3u+FTLUsYB7Fl1cqafoJx+8FCxYo45vky6gTAYY0Fug79OJxcnJSwokiV7NS80FEhpNk9P4j/Lx69eqwtLQ06nspwzEkSJg0MZIlMoXvrUtwcXWFq8dTnU8++KsorqozliH47nY8yZb1cwNE6Cs8DTCOShlRiTZPRPhDnNnkigJl8iNNQhOIoAuY1ckeSf5ejG0LrXFv7THcD9fuII7hwDxy5EglqZUhZ9bmfVHzRtA4yPtCgYSKBoXvmCD8/kXsyf0XGvyWHqYmyZGtWl3UOO8OnzAoln16YkgDRNyiZtmOSKhrGDDLO/tgaYCIXdTcEPv2HUXGUlbI738W7mkq4H/1CiFFrpKoVrkwjl99qF/jfXgg/NzPYN9mR2w/4KSRWW7gnm8AgkVEHyXRP4KCgmRf8B2oEw5Pnz5VXiXxB8N/6S3MROKUP3PmzKl4nVE+oxGUIc5Rl/Pnzyufc7KM2/N7zP01adIkxVhsjEgjhJFjkq4E2md/jNOPs6OT5tXp2DEcO+eFIO3nhgoFewrB29wf4Pb8g3gURYEO81iPtj234l48KdbxzWd5IoYuRt1Z89Dl9SK0td+O7ROYsLI7Mi79F6uf/4ZeoxogTzz1JmPHjlVeGUZiDNBqTu+kyHkjOPun5o34lRJeCVKZIUtAAAJDI2YSxXNf3NVmar1165asjBFPjBkzRvGAMQRBhQYzzhhRQZbELlTsaJydPHmypl9IiSpjt8FxSle06DcOnZ+vwtgjuTCndXH9ygElUiFPpXIoYGaKsMeHML5GMZRsthru74WizMp2pX9wbKFSJvk2nAjw9/fXvpPENZSvaHyg8YDeD5TBaFzgBBH1im95NfBzTpZxe36P3w/QyFz0DKQxIt6qosUT0ghh5CTIWBRVI1fGMODqGFFRZon2n0PlLJvx3+ln2rVEQGQtjTovl2H5J+uNDyZJZCdJN7KWbQcgx//6Y2W9d9jNhJU2TTF2zWBUSh9RvjE+YOUAzqquWbPG6Gboeb4c9OjCSss6FQ56rlSpUkW5Lj81mGWphsENLmJQ7xlYveE/2PVZh7TzWqK0Rku5d++eFBTjCQotivdWJHdPfYQCHA0qDCWSM59xQ/fu3RUX4H379sM0aZIIg4NpdlQdOBtL7KohdJ897Lbe1R9vCNMMKGhRBuXL5gNu3IJJb0c47+yOUklMlKR9adOm1W4o0ReohDEPleTbcCLg8ePH2neSuIQGdMpXqvGBsldEuPLPw+9zwo+hiTRK1K5dO46SkOsG0ghh5IT738BRej98WI7gwLHrCNB+bshQCFYE+30e6FEkIimlCH4E162T0abuHAQ1rACPWTuUGRZjhp2kWiawUaOWuBqQHYu3tMbrGYOw2DMdCmSJlNCTiU73LIZd/39gt2gfPLS122MDhmE0btxY8dYwdoWGSioHMm9vb8VwxOtCSz0t9rxO341JGhTrMBWLelggbeLsqDFuHsZVy6YMFDT2SEEx/mBCUt4DfS7Z6eDgoOSa6dSpk3aNJLbhzBuNPhHeEBFeUiLoLo4tG4aG1YfjRNKMeDthMY4815NKGeI1vJ3+Q+8O/8G/3jRsGNMIxdIm0n4oK2PoPaFumGdtCUvLCmgy4TgeR/FGDXVbjEG7HmnffQfcX715cHWdB2tL7rclJpz0RYw6uSrH3Bbz3F5GvH+8C7167cK3TQWhmk1HoNePnI8kXmD4Kz1OKV8xXPlXjQ9RoQzL/dJDgpNJlN2MAWmEMHIS5rFG6xq/If/vddGxe1NYpXuKi7deG3xOCJU+ffrggstFnDl5EMJ3LwbU6YtNAeUwbu9yDO88EOM6pMGLV/pYxixmiZonYt2h6/iz70i0LRHZZ+Y1PNYMw2CnVKjduQPq576DmYPW4HpQzMe0UJhmZ81Y+aZNm2rXSmIkb4RJcpiXtMafjerij0SXsdHZFw+0hgwp4McfVCYPHDigGJj0MSyDszsMKfnvv/8ULx4aU5j8mNU/2D4pdBlrXGxs06pVK603xD7g+WEMrTkY+1EU1vkzIFexiqhc4wGu3vv5MK64IwzPD9qhVOVhuJAmFYKun8CeHQdxTlsymp5CKVMagx+ngZOiPZaeng/rw3tw3v9b0mg4Xrutxxo3bdzgV0jRfilOL62Aw5tc8OWAhtdwmzcZux5H+t3Xrli85so35OKbWNFzDNbcDtS+lxgKHJsYlkzvB8pXseV1y/3SyEHPVspuHBd/JbxWH5BGCCMn3GMt2vTbhzsHBqKs9TAcMrPFEvs6yKL93NCh0qbOEgWnKYeRW1ZhcseqKGjGmZXEyFQwDS6NGY/tj4wzSWVk2EF+zBPRHeMHNsGAxWfxQps/AKG3sHNSYnQe0AzlixWHRe0O6F5kD6YejHkr/+bNm5WEaxwcYmtA0Gd+Lm9EOIKD3kQStDTC3b2jcHB7plTEIBkyZFBeJfFDzZo1lRj/Nm3a/JiHSzzDY2XOFvYdavJYlpmlEZHeHVQeKXTJ9hU7fOINkawcxh7diCkd26LfzGZ4vmgmDqSqgmTbZ2PrvXfab+gq7+B3LxD9D5yBw5+p8cZU0/c/u4xDzo8UIwTJmzev9j+J3vJ6BTpX6Inj1euhbMZw+O4aggqWlqjQfxf8OKch7mFNywqwtKyJ/lsOYNmEeZjVuR3mHt6C/hUsYVlhCHY9eoCTE1rC0qozVmjtE69XdEaFzqdRvZklMoZ7Y1f/mhH72HUFJ8bVUyoVWFqOhBMnToKcME7Z1ygs1zwjS2Z1RPU5mzCnZkM0aVgT3edOQZMKPTBudFs0WXAL71O0xYxZBbF92CKc9I14jsK0XhuK98aaVeil7F9dKqDJvIt4g/dwHttA874lJhx3xc4Px+SN927zULNJEzS0HPSpUUQSZ1DG5NjEcImY9n74EhwjaaRnGLSdnZ12rWEijRBGTnjgczwu9RsqFC8IFKuMqrnewdPzmdF4QhB1lmjzlj1Inz45TKiM+bpgk11L1Bx9ARlKv8ac9Vc04o+EqHkirj0Lh9e6Hhg52CEi7CJBCqTL6Y8nAZ+3nlBfVxy/8fKDoPgrUKGmVZoz/Wq2aEn00EDDgfP78kb44vjIGkib3wbNug/BxGkLsWL/bZTMkxE3rl1TtqAyI4lfqMyXKlVKmZHRh1kSGiBoEKMBjH2HCtsmw+FU2AdT6JLEDh+9IQ4haVJmhhCacT4N8uYzwfULXkhm0xRVc+h6oeoQvHpmgozZ0yHU6waSl66OP9I+wm3T5Lij9aJhtnqJnkOFflUvZLl+E75vH8PlwDlF/nrntBNHH2lkDZOMsOrWBlZJnuOSnxn+sC6N9ksd0OztOTgpG57Cuh0HsMmvFfY4L0X7FMpekaL9NKzqlx3Xr/jgrb8bDjhx/HsOp3Vn4StSw6r9UNjN6AjLlBrVKHlB1GtTCQVqlcUff5RD5vZLcfjvghqlyRJ9Vu/Hot7dMbJlEHbe+AMj27HEe0KkLt0J8/sAczpPhrPyi+F4+jIQr1+9ipCpreywZ48drJTXochyyxevNd+0stsB56UVcNb5bKRjOhGRGL1kH6x2scdfmfUqfaxBQOMDvfeYcyyuQ34p26qGCEMOzZBGCCMncnWM7iWCcMFIqmNEhooVFVoqts+f++P5ETtU7b4Fr8xzI0l4QpiYhOPdw2eawUKiEpEnYjuSpsuFc0enY+u6fRAJCqDxkLyYN3omHE+ewpENszFlXxl0t/KHw8AlcI+BqAwqXZwFZlJRKjaS7+fbeSOyofas03h1bRtmD2mH2mVS4UVgIVjlT6PE8UdWGCXxB5X3OXPmIGPGjEo4mS4bIlQDBI0m0VWvYT/CdsWFXhJskwzPkGEZMU9kb4iIcW4UyrReixe/D8JWx3/RsWpBmJnGV4rh7+UVfDwuYuO4kZhz9CbO79+CzQf9UCLXx2SUDD+T6Dsahb5gY4xo9RBTZrojV81yYOapJFZVUTaDRm0R/nBevBF+pcvA/K4v3qd5hxWdB+Jghj9QSdmwLOpVq4haieaiXiRPCMAMBVv1Qau7izDzZlbUrESjejpYVc8An6sP4LxiMsbOOQpv5gF75oLlDk64feAyfJObIfWKnmi7zhsikeb/ZAkQ/vgSdh83RfuRrfBbClWVSozMlbvj336VlOM1yZwdZgs7od2cixEfR0uEJ4RVz7to+b9qqK0eU73fkUWz20TpUkP6esY9DF9VQzDiK+cYDREMX6QhxGCTVQqJcfPupljfb4lwCQ7XvAkRPrumikkn/QTfsXlolHNlM0PnzZs3okyZMkIjpGkuQ7B4GxIiHu/qJ0p1GS8WLN4pzp/fLuw7jxLbHr7TfkNCeN00CoTSVjRKhBDBF8XsimVE08FTxcINJ4T7s3vi8LCWoofjPU3rIqEi8N5d4RvCFvbjTJw4UfktjSKtXSP5WZ49e6Y832z3vKaDBvQTZ1wuaj/V8PKIGGyzUFwPFco9Vp4Nic7A+9e5c2fl/uni88Bj4rHxGNlPfAlux3Mh7u7uokGDBh/6k699T/Lj8Drz2vJZDn+8S3QvNUacfBmmfBb+9qFwXjNBDHO8IyLW6CLhIiTwqfB54C7cXM6II7scxQaHjeKsf4jSl/HcJPoHx3U5vnwf7FM1irH2nSQ2UPUBtktdgGMhj0cdJw0J6Qlh5IRe3Y2JifOiQBLOgJgic8H0OL70NPwiPjYaOLvI7PNKLX5PLyQNv4YNU16gT7s/kOTuMvScfgO5rN5g5mJnvNJ+RxI1T0S7/7N3JnA1pW8c/0X2LSUU2Zc0JZRkYshOBmMdhjLZGruZsmQb+1KWUfY0wtjLmMaQP9lHKIrIWioVkqJESud/n9M9iWHGcqu7PF+f69577to973nP+/7e5/k9mDxzOwb+MhrV06uh3Tc2qBq6AcOTB+Hnb2rJWpeArDh/TP5hK64mZsrf4cMhZXr69OmiOR+nYXw+km9ETq3qE7hy9gC+tGwG/Wq1MXjUOHhs3I9LjWujatEcwzeujKFc0P6jiAiKMqD9+MHGowUArdpIKRj0HamfeB90LEtpPpJDuNSfDBw4kKMiFIgU9UfnuWTtJpg4Pg6b/wpGsJ87HLtNgF96aaTP98RfD5U0IfPVXRz12o6Df4cj9glQwcAYVl07oYleTqg6eYwwqoexsTFiYmLk95h/g1KqKAqOyT/Ic4x4V/ReYUDm6zT+WrdunXyL+sAiBMPIyWuUBpRElW6lsHzmX9BuagXDzOqwcPgBo6NPIfip4qs9qDqST8Tx4ycwYu7v+HHKV2hQHMjKzEIF/fIoqQUIaZexafIhmLtNRDv9NNw85o+Amx8m6ZB3wciRI8WwbTLnYxSLjc1XsoH9Tdy4fhmDenXCbxs84bnuT9SrEIVHd+6Iz2HDN+VDSs2g44+MRymHtTCh1BBK7yHfEfKscHV1/VcB4l3Q8+nvobQhGmw3bNhQfE9V8L9QBeg817x5c2zf/jsafv0NKi6YhW3JlfFFZV2YtnfEhCkCDpyOV4h/j8IRikE7+SAm/HwAYdeDELh/A+bO8hPLaAcFBRVa2DTzeVBFExYb/xvJjJh9T/IPGmuSAL5ixYqPPnflF/Q9fv75Z3ERTt2OExYhNBxtsw4YEeQDn7O3kRB7GQe2HYF+N3NUkT+uSdCBTpNcWvW9ebcIBowZiN6ZFVC72whMaXkHwXdLw7RvCeyY64841iH+QY5PhJ94m1ZBz5wJgm778Vhe8lcMnzgLU4cvRbzjT+iWcRTLRn6L7o7uCH78YUNdymMmKFqFyT8aNDTFsiU/49zRffiqRROsnfsDGtarJz729CnHACkj1G/RhJ9EQJqsU/RBYQxUKPqBDE9JCCET1LwmlJ8CRUhs3Lgxd+We3luZoj1UFWovUtTf4yI10LZVCZRv0BUjJ9TDLr8IlG7aA81Dt2GfMlbK0K6O9jM34Pf+GbhTsj1+mLMSv250hLkYyQnUqFFDvGZUi1q1aonVrph/59GjR+I1R4LmH9u3bxcXIwuqEsaHQp5eND85fPiwfIt6wCKEplPcHKP3jkflY6vhuuA3XGvkDM/+dTW2YVDHQx0QCREo3wLfj03C9iNJqGZdCyETB2HelcqwLrIL688kyV/B5IVOjhRO3bZtW3E1dMv2QLSbthZrxvRGr9Hfopr/JLQfMBuXbAfDsWRzWDYoCwhPcOviHaS9R4+gTpf2BynTUtg2o2Bk++DmgfWYPb43vmz7NZwmBMBi6AzcfJgqnvgImgRS3Wq1NUhScajvOnToEKysrMToAdpXBSFG0GfQZ0nRD1QWVirDqQhI0KSoCOpTKNpj4cKFHBXxmeRGQ+w4hi4u/XHHLxhptdrDEZswcLAzFno+RpkKSujGLzxD7NkD2BtWDubV3lwNJhd5ThlTTSQzUY6G+HciIyNFU24mf6DzCono0phH2aC5iSgev1HVTLVhEULDyY7aBYfBf8N4wo8YXCUKhzZMw9ht1/FS/rgmQmFPlJJx5kwwag9wRd9zP2CobyaatqmGTKOWcPihB6L/d5m9Id4DrbS94RMxZRbKVK8Hs0o6qD96Cy6f9cJXgSuxwPpLNK6YiajdM+G8NxKp7xAhKPxwxowZWLBggdIp0+pG1rMYhByrhGEzv0OdZh3Rs0NT1NcvK64u0sCHVtppkEiTTVptJ3GIJ4PKBYl0lAJBNc0JSYxQtHBE+53ekypZ0GcQJBRQ9AMd/4qGxE3qU8gPhsrNkiDGYtinkzca4qlOe6zs9jf6Ou1BSrOJWDv1K+i4fou2ukXlz1YWspCw7yfU+GoaLlTQRWbUWQTsP4xzMWli6gjlylepookxnKoPtUeaYN29e1e+hXkXlHLUunVr+T1G0Vy8eFHsR5o1aybfolzQGJjE4+DgYPkW1YdFCA0n+/E9XG1iBPy5HEvLOcN/iyOyjlyDJq/zS2FPYjQEKqF5d1tklmuIbqPGoOWFUMTW/BY+c21RPufpzHt47RNxHAMHDkZK+dqwbaCLkvoW6PH1l/iytTHKXFwHp32NscC1HQxkvZGQdgcXbz3JzUeeM2eOeK0sBkFqi1YFmPSfh71/OaDYsYM4X+oFnqTkmIeSYVjt2rXFEyBNAGmCS7nXnTt3zg2/VydlXh2g/UOTdtpXOjo6onBEERKUrkGT90/ZX/Qaei1FIlBOMr0nmWKS+ECfVRAhwuQHQ9EeUqQVCSzc9j4NKRpi3Tpv6NvOQKBYplMfcaEReLpzAVxmrYT34ZvvjVAreF4iOS4Tsw4dh2fHskhFMWTfP4c/TschVp4rz4Z9qkuHDh3UanKVH9CYtG7duvJ7jKKhNEJa8MoPIV1R0Lj6yJEj8ntqgLxKBqOpZN4TTqxyEZxm7haupj4RwjdNE+YevSeW6KLmoSklOt+GSsXl/v2vbgs7v/tJ8I3PKTLJfBxUgq9nz555SkulCaHrfhI8/7dPmNJqouB770XOEzOjBN8fBgrTjsQIT26GCZ6/7RH3gezEkPM4UzBkPxHuHFopDP1hjxCTnVMS7F39AJWLorJqtI/oQrfpuGGUDyo5Rseei7ycLl3omKT7VP6L9i9daP/R8Sbdp8foOfRceg21BSpbRu9V2OUzAwICxO9DF7r932QLmfFnhW2rNgr7Qh/ISwZrNrSPab++cdxmJgnXd04SjMt+KQxd+JdwJ+PTyikrnhTh7PxRwtqrD4RgN3vBLThZiPedINj7xuSer+lcw6gm1KfQPmTeDfXL9Ptw2eL848PPJYWHuh0nWvSf7A9iNJTshBD8FW+Irg1f4VayDhpWjMex84BVuwYop6UlmoJRTq4mQit+tPJLOc7KrIyqAhS+PXv2bFHJpzQNe/sBiPJ1weADlti06jsYl0lD+IYpWIQfsNouChMGrcKWU8cwyW0dljmPQo7tGFNwCHiVlY2MzJcoU7q0uELwvjx/2rcHDx4UzUMplJGiiCi0ltNnlBdKq6HQ5/v37yM8PFzclpycLK8MhDdyYq2trUX3ehMTE6UzRKO2R14x5BpO35lSDN7vG/MAARNHIdB6GGof3oGXEzZivHkZ+WOaCf1+VAY1J3JmHhKCdmLl/M2I/nIsXIa2gUHsYazfXxpD5/dC7UKPm42Fn0MfeGQ0QY2noXhuMxKtYo/g5QgvNE76W4zM4uGs6kJtkSKs/u1co8lQFFtYWJho1ssoHoqo09PTy430VFak70kRiOpgUMoihIaTFeIO62O2OG17DK1k10HfRWPYVGCxT28YargIIR3smvwbKBoK3SefCJowzJnjipTQHZiz9Bm6O6Zh9cEm8FpYC/tGOGLhnYqwqPwS7buOhUW3LmhVvwILEYUATVYp5/9DT8wUrk9CEzmdkxAxevRoMYeVRTwmP6GqGVTCl0Sw9/fX6bi2zhHTy8zFzm5lEH15O9yi7LDO0QTK5n5QkNAxS6ktN26Eo9zjWFzXNUO91HPY5emFU5W7on1GACI6rMea7tUKuQ8WkJX2GInJSXj4MAlJCQlIfJiFmj16I/7kH6IIev78eflzGVWEFn7Kly8vGtwyb0LpdPPnz+cS5fmENNZRhSmxlmxupi5iHXtCMMi6dw2Xrt3DM9l1yOVIjfaDyAutqHl4eIiDG847Vgxv+kQMxSsjO6z06Yrnp6ti9sJmuL50KfZVbIOES4Go9d0kGN3Yj4MxT5F66zJupb2SvwtTUEhGYR+6MsC+EUxhQIMxilijfN4+ffqIhplSTX0iO24/ZvnEoGHP/tDxCsSdInexd3EMOtjW0WgBgqBjlgRDLy8fGFg3Q/amIXDY+hDVv6gCbdMuGD1hMFIPXMD9Qh+ba0G7rB4MjBrA3KIl2nXvjGa19KFbsgiuX78u+oQwqg2dK8gslaIimNeQyEoCq6WlpXwLo2gSExNFj5wcniHUs6/4e0uXtos9MWasPx7In5EvZIXC084ToS9k122lz+6EsWvP4UG2/DkyaBGPKqWoAyxCaDhaumYYWv0BTt/TQ7+KMTh+BWjboSZ43TKHQYMGiddUO5hRDDTo9fPzE2/37t0XIVdS0G+JE6ySg7GraC8EblwJ393rMSg5AH7mUzC59t+YOMEVkwbPx5+RT3NNK5n8h8L1aYLyseSEdy9FUlKSKDxR9AtFFVFIKZdhY/IDiraRKoPQgJLK/kn9jFaF2qh1bjlc1/jjrkl5RK7xwG3HCehTu6Ts0ReI2jUR3229hTzjPI2CBrUUwXTzZhLMWpvjcXkTdBs5HM12HUCYbitM6hgNr/13lOz3eYwrPvsRnpqNlJQU0YCVUW2oKgFNBE+dOiXfwhA0/iSBlUuU5x8PHjzII2SWQZOxexF8YDasyw6FV1Awjn9fs2AjwcrkfG7weR/0T/LExO3qeX5iEULDKVq7LQY0y8aZw8GIunoSAXcM0PWbJuDTeQ7U6UulzHglV3FQLtuOHTtyXe5ppTyjaleEBrhj+PDv0VI3AXOvd8XSAS/gNdwNJUavx761bRH12zHc1dSZQiFAfgGfkx9Jxw+F1qanp4th8uTqnF9lIxmGoPZKfQt5z1BUBJWTvRVfEt8vnwOHb6Zg+5QS2POXDSZ8UxfaFOIftR9zV1WCU7skeP6wAH5Xk5Alfy9N4XU0xK+o3OUH/HQnAGfTaqCLYxY8v+mPUZN/Q1r5CoU7YEzYj4ndvoX9xFlwc/eA9/ad2H+xOmrqa4vCprGxsfyJjKpCQiKdL9asWSPfwtC4kwTCvn37yrcwhcY9H4yR9ZV9PYNwx38KbCwtYTPpD9w6MT/n9pwd2DTQRoxemOQfi5eh6+HiH4csut5/GJ6deqFvr04YS7dd/PGAIh9cduCPuXay19hh7qkn8g/KQxEDfNm9BZ6mPGMRglE/hIQDcF1cHDP9/bB19x/Y2jEE47wvI0P+OJO3lNk6+RZGEdCAg1bLabJAK+UUuk8hh7NnDsPZw1Uwe34ThC9eitv9nKDvtQhbHzfB2BltZR36HSUqG6feUNoMGRN+LrSvKU+fUjUoHYdMEEl8ogni4cOHOfyWUSjU3igCh6IiCBK+tu7+H2o3qgkDw7qwKBKMsxGPkZUVjT+W7kSVeX1QasdyBNapjsernTEvIAC/aJggkRsNEQkMWtkGgX0nYndKM0zbOBWtdPqjv42e/JmFQTaeRt/ElYhDOBmcDv2mJqhcsjY6TWsJQ9koljxoyDyVUX26d+8u7k8WqXOgKAgSCD9nMYBREKV6YfFfi9D4zg2cDTgnzpMyTvkjqEQbDLZuis7NGsFq1GBYl3iMS9FJsl4rG4+epOLZ06fy84glxm89BE+7ypA9gNRnT/E4qyTq2PWGdf2WaGqoLT7rDbIT8PefYWhQU08tJ+wsQmg4r+IjcaVTa5iXpczYEqjWshWMQqLAa/6voQEtGQKRAzuHkisemiz8+uuvYghmy5YtZb1STfSm9Iwnwdh9qjKsbPthzrbJaK2nhfh9P8Nhxk8YOeN/SOCIiHyHRKEqVarI7ykGWnUlh2+aIJLZFvtGMPmFFBVBUTgkdFIliJt3S2P0bkdkrhsE44pD8L8vZ2NC+UOySXgqGjcyQxPLF9js6f5akDj5QCNSwKRoCBIiiuq3w5zAXVji+BXKhR3GpeFd0KREFlJuXUNUoXjzpOLa0Tvod+AmfHsl4pFOC3Tv3RffDbJBiZScPqNWrVriNaPaSF5c1A41HfK1oShcEgiZ/KVOnTr/3eb0KqBcmfLQ1S6Pxp1byGZMslmTdVvUu7cfm4IuIeBiBM6v34X7TZvD4E4skvSrQ2ftMDisupjz+mI6KF9KNu0uooeaOlvwrcMqXMZThP66FUG3zuJSfB7J+9lmDLe2hKWVA3brDcdUO6PcCTst4qgLXB1Dw6HqGJZbq2D9EBOIGtyjY5i9vQ42cnWMf0CrtlKuO6M4aBWcJqEWFhYICQkRt23YsAFNmpgjK+EM1s7egmJj3TC4yB4M7xaOwcFj8Gy8B4qtWI7eBu9QjhmFILlFf2hljE+FhAda7SERgkQPyn2l0FNe+WEUCQ3o58yZI5YhpUnOsGHDRIEZL6/Be8AsJIwaB/NbATh4JR4XNt5HF/+F6PHwFwxK7IIJ4Q9gsXo8rMur97qNVCmDopVIlED2dXh3nYXUyWNhcHIN1sU0wbifRuMb0/LyVxQU8vKcsEbDpBA8bzsW/ZoZw9yqMZ7H3ymQfoopOOicwJXJIKYtEjzmzH+k8Q5XxyhYWITQcF5FBcDD98qbIadV2mJo70bQL1uWRYg8SAM0rmOtWOhES2H/hw4dEicF48ePFycKUtsTMl7gRdIpzPthB4oaP8bKpRfRfNYm/DazAwy0uXBnfiG194I6RZAYdfDgQVGMoHDc4cOHY+jQoTmTIYZREGRWSV4RlGJHYmfjKinYdKoSBvY3Rdk3BInDOPLIBB2r/A+/pI+Gn7MVNCHgn/pjGpD//vs+vAzzhG0TVzzo8RMWzhqBrw3OYYzzc8zYMgh1CrTvzcaLlAeIi41H8rMnuB//GMmJz1GrxwAUibxQoP0UUzDQcUqVyWhcoImGjFQRo2nTpiyuFRA0/ihdurTS/96SQBcbGyt6q6k8JEIwzJukCsFuM+mMLsgmgvJtDCGbGAk9e/aU32M+l4CAALGdnT59Wr4lBw8PD3H7ggULhPT0ZCHSd5HgdvK+kBnsJli4BQuZ8ucx+Qcd+7KJmvxewULtgY41agN0vNF3SU9Plz/KMJ+HbAAnuLi45OljctrWq/hjwoZdV2RnQCJbyLi+SejVcbkQnPpK3CJkhAprh88TfMMfqW0fJBuE5/bJr+KDhN8DbwjJmdniY9nPrwqbBnwpOPnfk/06BUmScNatl1AX9YWObn8LT+RbCeob6Psy6gUdk9T30/GpadDfTudeGgcxBQe1NxqTKjPULxfWuCw/YE8IhvkIKDePTZMUAym6M2bMEMPv317tJodsCgkmH47x411QzGownFvrITE6EqXKlijYUkkaSlBQUKHV3n/bN4JWrillh0p8sm8E87nQChKFOMsGnKJZKrUtMkgtYtAWIygigp70MgLbph6CzaLvYVGWhkrPcGPbSuwz0Mdjrx8xbstlpNHz1AxaBZRMKosYtEBP2wbQQTJuBnphUrexOGXeBmnL/HD5Jc39C4iMmzj6v87448UOdNp5BrfyhG6mpaVxzrwaQlGRdIzSGICOTU1ixYoV4jWljDEFR4cOHcQKXsrMiRMnxNRwdYFFCIb5CPIO0NjR//OYMmWKeD1p0iTx+m1oIkohZ2FhYWJaRmhoOPRb9odTQ12QjSqTv1BItqmpqfxe4UDHm6urK5KSkkQDU0rVoFDEhQsXqp1JLHkW0GCbhBYKiSfxhXI/377QdnqcfgsSQ1mU+XQ6deokhnuT2EYGqfS7Sr+n8DQR97OBR3fvITkrGy9v7MJU5/to0aI9vl2+GrNtUrDJaRWCUgrDqDF/oVQoSWzPvvsHfuo1GIsu6mLIb3/Ce9p0zHQqgqi4l/JnFwCP43Hzzm4smb4ex5Ou4NjvBxAYEiNWSaIywox6Qv0/Vc+ixQrqHzUBOgeQ8LJt27YczxqmwKC0LhrbK+s5leYckmiuLrAnBPMO0hDivhSWLvPYE+IdSAY2/Nt8OlJe9of4a1DH+7ZPBJP/0ISXVoppoqYsqJtvBA2saVAhmXKSTwGtchgbG4tVSfT19eXPfM3du3fF1V+KVCEvFXodVTWg46Jdu3bqkSdaCNCEWxJEqRoStXvhRRzO7/HAhuet0PLgFiSP+wmNL27A1irj4Zw8HU0naGPt1e1wMiktvk6dyPWG2OuNe3EZKFokFQ8fpiJLSMeje4l4Bj2YdmiFBmJlrfxFSIvFlRvxSM/UAtITEZ/8GInJtdDDsTVmjRohltHm84L6MmLECCQmJoqVbtR5Yk7nAyMjIx7nFCIk8k+dOlUpf3/Jpys9PV19jgMxKYPRXDJThcT4eCE+zyUhOU14Ghst5llSviXzTyhXj/KyOE/946F8bGpbPj4+8i0fxps+Efy75ydSXjhdKyuq7BtB352+M313+hsoD5WOi0+BXkevl96PvA7o/ZmPh9oP9S/S7yjtk+zE48KCHv2EKXuvCI8zX8m9IqYJbpP7CTP9g4Wz/puE+ZMXCf6Rz8XnqwNSH0BtK+PGLuGnia7CDPuWQsV+c4UNM3sKFb9cIvz9JEv+7PwkS0g+u1oYZd9HaFu3rFDWopcwYdVxIV7uU0Hfkccp6g0dl9S/UV+prud+6mvYB6Lwob5EWcf2dAyoW/tgEULDyQzdJNjb28svdJKvKNQa9YeQIHuMT+7vJykpSfx9PnYirelQx04DCepMP6WTp8kV/e70Hp86aWP+m0uXLom/syoM+GiyJE0cpUEcHZ/KCP2ukliQH9+TfgtJrKPPUWYRSZmh/URtiX7H3HNg5n0heMs0Yczmv4SNvfoJbsGJQrzvGMGi34/CzFFthYq9NglXLmwQhs/yFcIfv8x5jYpDQkzeAXn2A3/BqXknwa6jk7DlRpq4rWDJFjJTY4STbgMEe98Y8XvRPqL9xag30iSd2qS6If1tNK5hChfqU2hfKNvcRxr7KuvY5lNhEYLJITtFuLpzmjB0lr9wJzVndeONARjzD0iAUMdOIT+RfrPPmRxJJ2y68OAzf5BWA1QJOg5pAk7fm9oYCRPKMgmn70aDZ/peBSGS5P08jhz6NOg3kwSdvKJn3goa2ZmZQlbqOcGt41Bh05VgYVOvPsLMTZ7CxAGTBJ/wFPH5qgz9zfT3vxZibghbBvYWph25J7zKfibEB/0mzJq2T4iUFw8pGLKEpEOuwve+MeLxTd+PxTbNQDr3q1OfRn8TCcYDBgzgsaSSII1/lGV/SMKIOi56sjElA2TF4eSy6fBM6YmlM+1QpwByPNWBfv36iTnc27dvl29h/g3KL3ZwcBCNpj6nDjPlvJNDsLm5uVhHm/wlGMVy/fr1QquM8alQLXmqqkJtg7wszp8/L3q3UD5xYVazoXrvXbp0QXJysljtg75jfte9p/cnZ/lLly6JvwMZWambkWd+Qzm3tK9on1E+OuVqU1+TodMit4KGlnYaQte548y3Y2F1fgWcU0zRwnYIlnuNR93g1fAISsp5MxWF+loPDw8sXrwYz5+nIuHQrwhsMxmOFc5huWNfOPm9QJuhX8EoX0eScQiYNQ5TFrjBfd1W+Pr6YKXPM3Ruoi/mRhO0bxj1h9ojHYPko0M+UapuDk4eEOQ9ULp0aezatUs8T9D5gilcyGPG0NBQ7PeUAalaCs051A65GMFoKNmpV4SdEzsJ9XsuFfzPBwvBwbLLjUSxBjo1D46E+Hfo96HfSVolY94NKbmk9is63FBaqeTVXsVC+4l+W1WHQhiliABqf3S8FmQ7kSJ/6LcsrPZJnyulq7BXxKdBv6G0L99Ic3lyTvjlh7XC2YteQq+OS4WjoQcEt4FjBO//rRd6VawotFp7RSgI14T8hFYD6e+mYyc77Zaw39lWsJ2wUTh6I0kcJ+Q/6UJU4E5h96HTwskD24S1y9cLv0ckC+QIIZ1/Gc1Cioig85SqRg9IKV90fqL+RWrL1L/weKbw+UcUWCEhpWGoa9QvR0JoONmJcYiv1Awdyp7D+gVuWPObP46ci1bL+uf5ASmmFA2xatUq+RbmXZCSS9UMZs+eLd+iGGilUtZJiyWtaGVEU8p45TdUiYRWAlQdqppBEQG0mk01wKkiC0UFUBnM/C7DRZ9BkT/UPqmdFpabNX0ulTml6BBy1qZKHMzHQb8hlYildkRQhA39js+LmWH8muGol/YY2aWeIlm7BSZuGQ9tryOwdLXHs6Q0ZCEbaVd9sfLADTzLyBZfr0pQVI0UDfGiSBVYtzHH4/INYNlAF9ry5+Qrj09i5c8P0aBNTbw8fQDHE67j9+UBiJJXRpVNRHNuMBqDFA1JqGL0AEVzUBQn9Sl0fqL+hSIiqC3TNf19FB3xdnlmTbhQVR5liHChfUDnbhozFFYkpVQNw9fX9z+ryKkscjGC0VQybwk7vx8oTNlxTLhw9k/hl6GDhAV/PxJXGah5FLYKqApISmXu6hjzBqTg5ndbklZG6MI+EZ+HtAKgju2ZVs1oRZvaCf2NtOKUH38nRT7QZ1DfoExIfZU6RLkUJnlXLXPaT7aQ+fCCsGXST8LyX34Q7NzOCanxvoK9va8Qn3FV2NRnuLDxwBqhd7+5gm/4owKKIFAceaMhBPp7ek8UfOML6K94clSY3GqcsHLpcKHLgtPCk6wIYZPdTOHok1fiKjJdGM2EogWoL6O2Sf26skcP0HEkReZR1Zm3kc69qhrdoQjo91Gm86bUvgr6O2nKuZpFCA0nM9hNMJ5wSJC6vKyra4VWNHCS3aYDgEWID4MGozwY+ic0KKDJWEH8NvRZFJ7J7fbzkEQjdR4IUVvJW9aSrhU1yJAGLcoqhkmDG2Ua6KkiNGGQ+pvc8Ons+8KpTfuE8NRXdHIV3CymChvXDhf6bLoqZAjZQkboKuHLsl8KQ1cG5BpAqwrUrps3txBCfv1VOP0wvQCFlCwhNfq8EHA4THiYKfsNw3yEaT5hojEonVdo8sloNtTX0jjjtSiofNCYhL4j9RnUd7wPatOavKBFv5Oyjd+kc3pBfS8am9DnqbsAQbAIoeGQCGE6+ajwRH7/1Y1NQicWIT4aHti/Gzqh0om3ICe00gmD8yo/DTrm6ffTFOiYpXZKfzO1Vfr7P7XdqEo/IA1yNHmwqyik44XazhvCU3aUsHNALQFfrhJCM7Jl9xOEo1N6Co57w4Rbh9YK7gH3hFdUXUP+dGVHioZYN72f4LjlhlJEc9D34TEKQ1CfLXnfUH/+bxP9goTOBSSOSOeW/yJ/RYhUIditk9CWIrXE+zGCr/2ED4tqkiK75HffTabsaaOEum7BOf2DKMS6CWfPugkW0jYJer9+9oK9RT/ZtexiT2WPU8XfSBmPaencTvsnv8azeduwpvRr7Amh4WjXb4lvQ/dgx9nbSIi9jAPbjkC/mzmqyB9nPgzKPZd1TnBzc5NvYQ4fPiz+HvPnz8/3agB5YZ+IzyM+Pl5sy5pCXt8IytGlHFDKx32Xb8S/+UhQO5s0aZJY/YXeU5np1KkTZIMdDB48WOUd5gsbyuGWDUrFajKU571w4cKcdqJVEaadHLFq1RCYF3+FR8fWYGaiPeZ+0xj1Og+DY7VzmNOnL1aEqIYDk+QN4bRgD5rv8cShh1nyR4hsvEgIxu6Fi+EXlSHfVjBUqcKjFea19w314wRVTKFjsbCqAlE+f69evcScfvIjOnTokNhXKJKskFVw8ouV3yNSELJqK0LyHpr/4CWOuwzDGO/wwvV+K6ODakZVUcnIGGa1jFC1UmXolisQl5lPgs7psbGxYnsiHxLy9VDkuZPGy+RXRdWsqA0ruq0oKyxCaDrlv8SUzQ4oHbgarrN8cMNqFtb1r8sN4xMgUyEyX6TORNOhQfiMGTPEiQ5NeAoa6YQRFhYmduZc9urDiYmJQY0aNeT3NAcqG0sCFk0oSUgg40E9PT3RKIsGHjTgcHR0fK+oNWfOHLFsLAkZqgAJJmQ+qmizWE1EKolK5p9UPpAGqYcPn8MXjjMxzkIHwtNz2LAkGeNndIPhyxicWvcTvv/lCCJvGqCOYUn5uyg/w4YNE42YX3xxH1t2hsumMyQ+hMDPfRS6Oe3APd2yuLblIKIKwH9Tmlzq6+uL1wxDUD8uicopKSlvlGnOb8GVxj103sgrPtD5hM4rH7sQkxXiDjNbW9hojYTXptEw1NKC4bC9uH7UVbytpVUPjoHJsmc+RuAUS9l9S0xa5wnnCfawNF6IbUu6w9ZWtv27JZglu3aYMlZ23xMRGUZwO7ocZlunYmFgjOwIFj8M7k5+SBCvN2CTQ703zCK1bFcg5JkAbOkj+2xD2Lr+hUu+Y+XfyQ8xF6TvOhp/JdNC/rt4gH0O3eEuia7l22HhsiVYtm8unJcuw5JlnnBsoNx9IZlVUv8+depU0aiXRAMSI/5tceLfoPZI8wVqL507dxbfd8eOHZ9Vwl7V4LmmhiOk3cO1+GIw6TJY1lEOgq3BM9y49Qj/KqQy74Q6DlpBpsm3pq8uTpkyRbymiU5hITlo08SQVijpZMH8NxS9og6VMT4VGiySkEBthyaVNNmhgSwNOEhkJFHr7eObBhJUUWTJkiXyLcoPrRzSYJ32N4t0ioEEV1rxpKgIGlSSgEUDVK3S9dFrxTR0zjyEn4c6Y0NgPAwt66Niibqoqa8NvAzDuiErEfRUuatnUJuhgfKkxXswt1NFpB6diebfbUZUWXPYVgzHTq+VWJNeHnoFOLKsVKmS/BbDvEYSI2gxgsYANBahCDeKjqD+WlERknR+oLEFCR0kWtNtOn98qvjwBlYzcVCYCd2Th5Egu5vgvQtH416htL0b9vh6YZq1jmxrOTTq8z3sZX1P6zatYWfhhuDr49GoaGnZyw9B+M0Fk92/Q8zSu7BzH4JGJbSACi3x4/YJwLx+6LflhfhReJCC1LQnSMykO93hGx8JX/sJOdc1ohH9TNY32fsiPtMfdof/xpHfD8m/004cjpW9SPyuG+DQpD5KRUTjQXY20sJO4kAKvR9RBd/4/Alni7Ly+6oLjQFofCCJEbTfaf/TvpcWLCTeHivQ49T+6NxA7ZHmC/R+1F7omvpYTYJFCA0nO/EaAo8dw7G8Fy7R+clQp3ThwgUcPHhQvkXzoI6YJmQbNmwo9A6VPn/jxo1iGDGF2dMARNMFon9DUvTr1KkjXmsy1HZoUkkrH5TeQ8c1QdeU5iO1I7qmgYSvr+/nDTgLARqo07Hx888/y7cwn4sUFUFt5vjx4zlREYGhMDGpAm0YoJvbr9iyfT3GVIhDkHkdGGo/w41tK+Fn/iVMyyv/kEwqS33kiD90re0xt9kdnIwqDRvXFZjVqhl+7G+J8vLn5id3794Vr1XtmGMKFlqMIDGAwtwvXbqE8uXLi/01pWtYWVmJk0Eas9DEkCaIb08iCTovSo/RcynagV5HUQIkUNP91q1bi4IHnS9oMqmIdllCvwJKyybvLXp2kfUcgIF9O1SNDcedLS7o18cd/tEkICTi7OoV2CL7/ufiikNXbzks7bYiOrsU9CuUlA3yE3De9yjgNgtOFhXE9yWKGLSH69pFsKc3LqKPOror0NBuHs7nPPxuKBKi2FBcGd0Hvb6RvpMdWuoXlX9XQLthd8yptB7VixZFOctDaLlhIJoVoxe/FQmh4tD4gPaz1K5I6KJ2QO1BKq9KwoStrS2+//773KgSenzNmjVitCm9jl5PopXG9mNybwhGQ8lOjRUiYlLFkpxvQ81DU8xRFAkZI5IJkSaaIpIZFLUb+g2UDclY6L/cqTUZMsSi34h/nzchw0H6XfJeJFd+6iNV+XhPkhsO0vHBKJa8RmNv9ztkCk1mbc+ubxJ6dVwuBFNFDRWB2jz9TUlJj4TM5y9Ew7nseF9h6FdrhatZ2UJm8m0hLPLJO8cVioK+Axn+McynQMci9XnUj5PZIPXhUt/+bxc6jun51P7ovED9pyKh96bzsKZCvytdVBXq82n/0WXp0qVim5k1a1buNk2cF/wbWvSf7EdiNBTKO7M+ZosgZwu8bQlDqp2sMxDVPubDIdWcwrNohZEUeE2BVg9ohTgxMVHMa1PGsDIKwZTaM0VqNGnSRLzN5ECrPBQxwqeFN6Fj+tGjR+LqWd52TW2e0jQoAkqV+0ky4Txy5Ii4iscoHkp3GTlypBhFI51TsxPOYN+dbKQs80DyjA1wtqDQatVAave0gpdzjnuBm97DMDbVHvMNzmLhuli0mOyKn7rURfGclygcimqjnH+KOmEYRUIRD3mhlW2KqCgIaDWdxil9+/aVb9EsKMKEIvPUYWxGXg/UR1LKBqVvKOOYuLBhEULDEc1vZt/D922rv87NqWKL4UMsUJFFiE9GmsxRnpemhFnRydPBwUE0hFJmYx1JLKGUEW7fb0KTUTLzpBQW5r8hszMyIEtPT1fpAYYknFJ4KAtz+QP1O3v27BH7SDIxJkPQaiXvYNGw1XhqPwtTen6Bitpa8mdLpCFs3Wz8r8l0OFsr13lEOsfFxsaieuVHWGXbDhMe2GLWwmkY1akqEg7vgJ92b8zrnT9G1zRZ0dHRESsiMIy6QP3Epk2bRINoTcTa2rrAx2Qk+tD4lURNRZGcnIyKFSuKIin1VdJ9RUF9HwkcBSWO5RcsQmg4JEJYbq2C9UNMXkdClKsJ8waVUIxFiE9GWikiJVQTBkm0ckC5blRVgDpGVYAm3OPGjRMreJBpFavUPLD/WOj3otxOdYh4Uqe/RZmhvpJ+azI5pf6y79c2uPLnRmzIHIqNjsZ5JuwCXt74FQPGPcEMvwmwKKtcfhHSOY5MOJcunogg/1vQbVELqX/vkfWtQag80AYZa2PQ4ZAbuldWfOk9yudX9QgkhmEKH4qqMjY2hqmpqXyLYiDTXFqElCIpFUl4eDiCgoJUPxKMRAhGc5HyUimn822oefiqcG5WYUO/Hf2GlAemzlCOG+XmUq6kqsE+EW9CebF8zH8YkpcC5QWrA3Qs0P5n8h/qMykXndoP9Z1Xg84IjzLfclDIuCps6mUqtJ35pxCZmiUIr+4Kvo6OwqYbz+VPKHwCAgJen+OS/idMNu0iTPA6KtxIfil79LlwY9NQYahvdL54Q9Dn0uczDMN8Dqrqw0F9oKqj/FbMTL6ibdYdznGXEJZB7TkLCX+6YdGpB6IDD/N50AqNbIAphv2rMxQ6SKt6FF6satjY2IjhxJSCQPtLk0sV0som5axzZYwPIyIiQrxWl/SFZs2aifv/7XxoRvFQ1BVFjFHqmr5+JXxhbYMBrb7Bjotx8vLYVDHDDTstF2Jh8yuY/t0UbFi+AMv0B6JL+laMmO2Hq8liLb1CharH5J7jKjZC61bFUb6BORrokB1+MVSqpoegyES8ynm6wpDKK9aqVUu8ZhiGYVQPFiE0nKwrf2JB8TqoT7WDoY0qDfRw3OsM7uc8zHwmLi4uYh1+dR3Y06SdUhoobUdVc9Poe5NpEJVYatq0qZjrrImQGENw3f0Pg/wT6PhWF2hiTF4FFObJFAzknbNxY443zdFz+7FmaBsMmrIZCZmpePi0DeaO64aWX0/B5rk14bOwNKaNrYxDcwJgUDMBXj9MwZarT2TvIiArS9HT/A8n9xx36xm6TR6ISHcP+J4NRvDJXVi6Nh2uPYz/YXr9uZAHC0GGgQzDMIojCwl+E+HglzMeyjcS/OBQzx0houqchhB3B7gHBcLdUtomEQs/h/5wkF3c/bzh0N8BDv94jurCIgTD5CO00k4rRZQDrG7Qyjk5vtMgVNXzcmkCRmaMVNGEzNYoR5D+Pk1Cqruv6kZHBQVFz5CJljpBte4pz5QpWKj/JBHQuEUb7Fn6Pdznb4LlqAGwLl8UEB7g9I6jMPZyQt3DS+GcYooWtkOw3GsqOlXLwFW/uehjvaLQBqXSOY6iIYrU7od1K9viWeBO/HY0Fa2XzkT75P2Y7fo7orLlL1AAVIGJ4L6KYRjFkI20EB94h6TJ7ysLpaBTzQhVK1WGbvXKqGZUFZWMdFFOTWbvLEJoONpmHTAiyAc+Z28jIfYyDmw7Av1u5qgif5z5fMg4htIVyElfnVixYoV4TeZg6gKZ8p0+fRrTp08XK2hIYb+awP3798XJBPNh0KRL3VJXqlatyukYhQRNqDdu3CRGRZw6uF80fRTTw169QvHmUzCr0d9w3WmOvSutEDF9Gn4Nu4Lfp03EL8dv4OYXdWCoeO/HD+Z1xN8dlK3dFvauczG5hz4iFg3DD35J0Ev3wtK/4hSW5vngwQM0b95cfo9hGOYzSQ/HOudpGGbZC2vvPMdtj29hqNUd7iEPEec3VnZbC4bD9uL6Udec25N9sLqzIbS0zDDMLwIX3GfBLyEFIXQdew7uZjawtTGDvdscOPnFIitklew6DIFTLGWvscSUM6nyD36bbDza54R67iHy1LxKaLdwGZYs84SjVXcsXLYEy/Y5ogGLEIxaUNwco/eOR+Vjq+E61wsns+tA5+oNPJA/zHw+FHIrDdLUhcOHD4sT9fnz56tdCVJN9YmgMHxlLq2qTJDbNaFuqSuUY0+CKVN4UJ9z6NAhseoEpYctXOoDE9u6KPMoCdmlniJZuxG69a+Kwyu8ERhfBZb1dFDCrCb08Qw3dy3CIr9wJGcVrKtT3mgI4CGOTu2O77Y+RPUvqkDbtAtGTxiM1APncE9B3ys+Pl78fRiGYRRC6XqwtesIt+Df8UPdYig7ZCOuHW2OiOgonNt/CAmypyR478aZkh3hYt8PQ6y/gI2zC+wNwnEi8hGy8RQpqal4kpiR835og5kHw+DdrjwepKQi7UkyMlEOjfp8D/tOndDii1owK3UX0Q9eAmnXcOyAlARfBJW+WYfbzhYKT2NTRliE0HgEZGmVgn7Vsnh26S8EF7HC6PHtUFX+KKMYKNeaBvfq4DdAE7AZM2aIpS3JmEwd0USfiOPHj6tdekF+IZXb4nBwJj8gYZci6AICAvD777+jS5fuuPjcHL5ePZG+aRUOvpQNlrdtwfbN36NC1F2Y16mM7Bu7MMU7DVUeb8EP47fjalrB+kRIQntoaCzMWpvjcXkTdBs5HM12HUCYYT+sGXQbS/6IVUg0RExMjPwWwzCMIiiKcrrP4WI5Ajvjgao65VC2QkUUgz5a9OwCA9kzDOy7okH0Tvy4ZQ+2Bl3FGffViOk4CHUjEqBdOwszGn6DeeflIkQJXVQoXQRFqtaE7owOsJv3t2xjIs6uXoEthw/jXEIN9JhTHh7VS0CrXC8caOmM75pVkD3n7UgINUdeJYPRULKurhVayZpBxV6ewl+bxwj2vjHyR7hEp6KRTdrFEnhUnk2VkQ021eLv+FA8PDzEY4Gu1flvpr+RyjQy/w2V88p7+sy85CG0sbAQLCw6CmO2XhXS5NsVRuYlwaObh3DpXbWUZZ92yWOM4HHp8z+V2jf9XepeVliVoFKw1OfSfqFruv+aVCHYzV5wO3tB2NSrn+AWnCzb9ly4u3OM8OUvl95Zejs/6dmzp3gRMm8IWwZMFvwfZeU8kH1P8HcaJPwSmppz/zOhz+CxCcMwioDG5qpW7pdKg4t9rYrDkRAaTtFG9tgdFgD3BoGYOe8oku4lIKWAQzk1BScnJ7EE3sGDB+VbVA+KCKDVrg0bNohmjpoA+UTQiiRVASGfCCkUX52QfAD09fXFa+bjKTPUC0EHxgFegbj1n0sYzxDquRj+DwpmrSMrdD1c/OPk996PphzTqoQUFUHVWChaqUuXLnkis4rDsMU3qHNpLTZZTsBICx3ZtpKoVq8WHoREIvHldeyavA5BTxXoCvkv5PofnUtE38mGWNK5N0ZOWYR1Hsux7HJTWNUuKX/m58EpQwzDKIq+fftizZo10NLSUpnLzz//LF5UHRYhNB2t0jBo3AmOS/bg9KltcHy5Gb3H/o57z57Jn8AoChpMStUXVHEiSyaN9N0pDaNJkybyrZoBpZ1QTX/yiaBJgLqZ90lu8+wJ8ek82zwc1nYewPCWeL5uiGxgYwfLMZuxbVInWFp2wqQ/TmLrkMU4GXccc4fsRKwACIknML+vjfj42G3X8EQuFuSIBuE4OVf2HpZ2mHuKSjECr8I80dbSUrZtCDxDH+HBSTf0tWyD4ZvvA9n34J/7WSE4MX8Exnqux9yBLtgeSyGi6Qj17Ct7XPb6vmsRev8E5trQe8kuY/3ZB0jJoT6XUsR69eol9sMjRoyQ9ckPYdCqJfSTn6NSaixuJTxDVtotHNpzBi26NUDKtiXYVNkEJQ4uhUdQkvyd8o+8/kelmk3AydObMWuYNV6ePoEyZjFY21PW1vqvwKlHny6+SVWLTE1NxWuGYZjPgfotSnsTBEFlLvR91WEcziIEI6cIShpYoLfzavzPsx0erF0i384okmHDhomu3tu3b5dvUR3mzJkjmo9NmjRJvkWzoBMVGcaRT0TDhg1Fc051gdzmad8yn44YCRF8GJ6DjVEKJdF4/BYEz9JD0CkSHB/j1I5oNB4OrJrgiVudm6OaVjaehh7FfYfdCA5aCuMdgbj9KhuPnqTi2dOnyEJZNLTrDev6LdE0t/RBMTSfvQ/HljfGndhonN+dAocDR+E1tCqQfAUBuZ8VgWrDegCbtyDCbiS+NSqR83JYYvaBA1jeOBGxz7Jlb2eNoTPnYvnEtmJFJKkajLoZbqoLFKni6uoqRkWQcGhkZAS/fWfQ2vVXePXLxv4JtqjcdjbON5sHD/PzcN3ZGHPb38LcH5Zid2gCCsIlQvI/ompQWiUronqll4i8+TWmLF0Jn2MXcXr9QDQqpSV/9sdDpsEMwzCM6sMiBPMWWiiqXVR+m1E0NIikkpYU2q9K0RBbtmwRnc8p3FaTQ7YpmmXVqlViREvnzp3h6emZuzKnygQFBXEUxCfw/mO4BHTLlwT0m6Bza6oeowtrOwvUs+yItsUsMaJnbdnJtwjKN2mPqj79YWk9GdcHtkMDw+rQWTsMDqsuyl6ThPO/bkXQrbO4FJ935bgISpUvD23owbJzFhbbtc+JhKho9vqzuhkhctNp1J89CV8c2ICdYiSEREmU1y2GjOhruJwWhM3zFmDVoZug2Lf09HTxGdTOGeWFVsB27NgBHx8feVTEWCSXs8Tc3efxOHg75vYujgNz/WE5qxVuLQmApas9niWlIYtq4V/1xcoDkfkmSOSNhoDsExOO70eIUx98WZ6Gm0VQsmJVVCrz6WMMqY1yf8UwDKPaaAkU18Ewb5CGEPelsHSZJ9Ysp5JhjOKgSSvVgKcSYzSpV3Yo9YBW/mnAa29vL9/KUCQECRG08rdkyRKVnrhRiDcd57x/PxzKy6QUHXWaDNHqNUU6nT9/Xr6FUXaof548ebIYfUB9dL9+/VDy2QX84gu0q7AHrveGYOd39zBmKrB4ozEODloBLFgB+2oZeJRVBlV0SuLT4xLejXTOOH36NFrWrYqosrVQt6xiFjfID4OEFx66MgzDqDYcCcG8SdpNBAbeRs5aA5MfUCTB/PnzxZUiZfcWIMGEBrg00abBLfMadfKJoAlM1apcmPdjoPSVu3fvyu+pB5SWQ+JoXihFgyZ+1A+oQ9SPukEimBQV4eDggIEDB+LW46qYOLIhnqa3xxInS5TVrwmzqxdwwHsF/uo2HM3Ou+Krdg5wHtwD3yw8igQFm1HnjYbIqGCoMAGCSEtLE9+bYRiGUW1YhGDeJDVcNpi5DYNvh8s3MPkBTWBpEkMpDsrMpk2bxAnq7Nmz2Tn/HdBgW9V9IiTxpFatWuI182FYWVmptPD0Ligtp0aNGuJtSjWiv5F8B2jlmSozFFwf8BhBHq6Y9YsPDoQ9RFZGGLyd52DtrtOISisIZwPVgvYLRTGRXwJVuKG+aMvWAFgM7IwvysqGeUX1YFRvJ0ZsNcWEKnvwzd/tsOdvf2zz34dVFufhuvQMUuTvpSgkbwhFV4MKDw+X32IYhmFUGRYhNBwhLRaXQ0IQIl0uRyJJ1izKVM8ZiDL5h7RSFBoaKt+iXND3Iu8KSsmpXr26fCvzNqruEyHlWNNkk/lwqKrEkSNH5PfUA+qPmjZtKt6mFB0S1ySovDCloFBVBmrjJLjlmwiTFYXTv9xA+bq6uLNyIlYH/I1d10vDqNgRjHH+C/clUWLrHwgMiUEaR+aLUD+9ceNGsc+mqAhK+xPPL1oVYdrJUdZP9UXpiOv4qqMFqhV9hnvRL2DYaTRm9GuA8vL3UBQk0FIlpcWLFyu0P0xOTubKGAzDMGoAixAaTnbiNQQeO4Zj0uUK0LZDTfCad/5jY2MjChHKWOuXBo0jR44UV7PYE+S/oZXIsWPHIiAgQBRuxo8frzLGo8+ePRMrtnCky8dhYmIirvSqYrnddyGJoY0aNRKvaUJL4hpNJAkS2ah9kzBBKUgkuNGKe15hgjwlpAobn0ViNK6klwVeJOLR4xd4HncdN/W08PxhCp6ULA7t6JAcUaIaEHfpHP6YvxQBCXLzzqxnSEn79BKQ6gD12RQVQfuKRKWFC1ejzkBnjLOoitpmJrgSFoWnz+7i2GIH9PW4Af36lfNlMOjk5CSKV4qMhqDowbJlZW2DYRiGUWnYmJLJRXgRh4uH/LDtYl1MntsNhrLBJRtT5i+0kigZeJEooSwsXLhQrENMqQbslP9x0D4dPHiweHvbtm1KZVworVwr03dSZdTJ0JNEBBIXaCX9bSjqgUSXtyOiqD2RLwZdU1QIiTISJLDSinXdunVRs2bNj4imEpARtAiW23WxpF1VCEamqHTMGZ5Ca1TaF45m2zzRIfQnWOyvh7UOX6FR4wbI2jsBG2ovxcpO2ji7aAw2lrRC5Vo9saCHLqKDL+Dyo2Iw+qIJzGtXhFTsVFOgfTdjxgzx9oYNG9DEvDaubpuD6YFaqJEYixpzNsDZQkd8PD+gdkXVlU6cOKEQoZNELypRqg418hmGYTQZjoTQeLLx4tE1BHrPxIBWbeB8sSZGjG8HtqgrGCQDL3KkV5YQfhq0Tp8+XTTPZAHi4ylsnwhaiabPJCGJzARp0C5d6PtIq9fShVax6blkPiiJFMyHQQIE/W6qDvU9NFF8n/ksedi8S0Sgtk6PURQQiZaU2kNmrSRe6+joiL9Nq1atxFQfamvUHulzKOri/REkGYi+dgPN2tqhW69esLMogbgrFWDb83uMsH8OvzO3cS/yPjpa1EaRuMu4EJ2J6g2q4eiVKCQc88DipIEYVj4MCdmPcXzWGLj+dRcZz25h/7SxmHf0HrIQh4CZixFwX4qcyMALBRszKhO0f6g/IsNRioqYPGUBDOymYttce3wju+2UjwIEMWjQIIVFQ0j9U+nSpcVrhmEYRnXhSAgN59W1dWj7xQ+42ssTv/WKwM5yU+DTOyc3nAaNHAmR/9CkkQbpyvBb08SAKj2oSvlQZYYmdmTsSekZFMo+bNiwfEt5oME5CQ80waMBP6VX0Cq9sbEx6tSpkztol3wfKFSboEljZGQk4uPj31jJphD8bt268Wrjf0DHi56entJFMn0sUmlORa1W54WOA2pvZChIxpdkcEltlKB2Sn2NtbW12E7JFFNXtwLSYqOQXLE2jKiqgpCG2Cv3UcqkLnRjfTFiRjTMXh3AXbu5GNmqAWoY6aNMwm4M/GYz0qq2wI+bRyBz/niEWTbDr2fMcWJNd1TWkr3Nk0BMs/gLtqd6I7jdn2h5bj7alc9Ggt949I/thnnlbiM4syF6fNcJDRRYzUGZyBsVQSIzCRQFgaKiIaifIxGV+i1OH2MYhlFxSIRgNJjsZ0J8WICwaXJvwaKusWD3yzkhOTNbfIiah2xiLN5m8hfZJFWQDcgF2eBKvqVwcHFxUYrvoU4EBASIx9Lw4cOFpKQk+VbFIJv8Cj179sx9f/os2YRP/ujHQ9+P3nPBggXie1JboD6A28P7oWOXjhtVhtoQ/R0FBbWzS5cuiW1L6nOovUltjtofPXbjxo1/tr3sVCEm9JRwcNsaYcFkd+FQfKYgZAYLbnW/EqYcTRCy6bbxj4Lf71MF4/lnhRfylwlZV4S1rX4Q9pzeIHQasFOIEU9zqUKwWxfBwsJCsHP7Uzh7cKPwS8A98enqCv320vFNv72i+6R3QZ9Bn/e54wl6Pb0PwzAMo/pwb87IeSU8jw8WfN1+EGxH7RPiZVsUMWhgPgxpkObj4yPfUvBIAzyaHDCKhSZTNLmiC93+XEhskCZuNHnMj4kETf6oTUjfm9omixH/hPanKh83kkhWEJPRf4M+n35Damc0OabvJF1IJPlXYUJIEsJORQip2YKQHbNTGNBpk3DjwTFhVo8fhHV/3xLi46OFcN9pgu2gHcKt826ChVuwkEkvy44Sdg74TvDYu1b4rud84Uh8rmTxmsx7wslNKwS3dX8JN1Kz5BtVH/qtpWO7IM7zktD+Oe2Mvie1BYZhGEb1YRFC08mIEHZM3CgEv6BloUwh3n+pMP9YnPBKdo8GfwUxOGFyoME3/eZ0TQPugoRWz+mzC/pzNQkafFO0Av3ONPH7FGgCJr0HHZsFIQrQZ1B0hDRhodvMm9BxQ5MjVRNp6PsW1CT0U6B+idrb+4QJmtjSsZRX2MtOjRHCbiTKzmbZQmb8WWHL/InCUHtHYaLbn6KIkHV1rdB2gKfw9517QsyFdcIAi5+FI4+eC6lXNgoDvlolhGbkRALmIDsn+o7NEyURLByasUg4lCBKGLKHXwjP5ZGDqgjtfykqgvqVz4mi+i+o/6PP+ZyIG2oDdGEYhmFUHzam1HCyrvyJBcXroH4JLdk9bVRpoIeTvwbhQc7DTAFStWqOHSjVd09JSRFv5zeUC07MmTMHskG9mBfO5A9k8kklD2WDcLG8IeVJU748XT7EEJJM/ho2bIiKFStCNqAX/UMKIi+aPoP8DiifmwwIyWiQjCzpezM5UClC8tVQZCnCgmDFihUwNDRE165d5VuUCzLDpLZH1UfIo0Y2ZhH9JU6fPo0OHTq8s1To6s37cf/uRUTevAVtA2sMmb4Cv/pswgpnO9HroajJ99g9rTqCNyzAgr1ZGLKpOS5NW41j97VRNfU+kl7QXFmiKPRMraBzOhTPzIdgfJtMBO99imKlaeiUhYQ/JqGj13Gc9nDFrF98cCDsPpKD1uHHWSvhfSAMiUpueEnHtqurq1htIjExUfSMyS+jVer/fH19RY+czylrS74hDMMwjOrDxpQaTlaIO5ruboYzS9qhvOx+9k1vdF2gg80+vblEZwFCbvEjR47MNWxzcXEpEGNIGrg3b95c/NwbN25w6cYCggziaPI0fPhw1K5dG+fPnxerC7wLmuzPnj0bbm5uCAgIKDAzufdBggmVIKXJKwkpH156Ub2R9qmqHEckQJKgRBNQVTcgpTYplQolYcLLy0v+CMRjrHXr1v9SKvQV0qKCcOT8fZRv2gG2DSqAJHkRIR0pT4tAO3Ybho95jilrSmPqvLLw2jEARlppCHF3wFbjIag+cSuwciiK+25FbMUURBiOxoTi/vgZw+BR9m/cbTsWveuUlL+pckL9zJ49e0QRnARpOv8ouh3TZ7Rp00YUlUjQ/Fjo9XTJr6pNZBKdnp4uv8coAh5TMAzzPliE0HRehmJVxxXQWjwTfaunI3jjYuz6Yh62DKiLoixCFCi0OrR48WJxsknCAE1M/wt6zaNHj8TbVAHhYyaEkrO/BO/rgkWazEvC07smgzQopsG6vr6+KEQoy4RfEkao0sGGDRu4ioYcihAhMYlKIipzeVtqV3SsU9uiCaE6QscXVeS4fv262JdKlV8IEnlNTU3/IUwIL57gcVYZ6JXVFu8j4xzcx51Gw/56ODr5FuxWVMC0C+0R5GwBbeEudg2ciWcjOuHEkCMwW9UGT7fuRVx2MrLajEX7p37w1BuCEX8dgd7mlehtUBQZYVsx3S8V5pYmMKkHnNmSgPbTv8UXZZUnKJV+NyqlSr+Xj4+PWLZVkRFXFGnRp08fMZrr7WOE+hWKdKH9RtC+k6ICqeQrVfspW7YsatWqpdDJLZ0LHR0dxds8aVYcycnJYoRNfghaDMOoPixCaDwCshIvwnfjNhyKKYVmX9vj+26yE70Wl+gsLKRB2tuHJk0caDD9dpm7tyEBQyp7RwPt9538abBJYcwS+THgZN4PRb9Q3X6Jt6NfpImiubm5mMahjPuFIiEovJrC41W5RKWioEnU+PHjxdvKus9owkVleKldbdy4Ub5V/ck7wX1bmMjpM9ugSbWiuHD6JPyDs9BswBB0b9UKbU3ScfFCTpTEV1k70HHuKyxc2AvVH/8Jl9EvMHHZM4zYo4sl7apCqKKNiyMPQX9JR1QWqqOl+V1MbRuF8dedYaH9Aje9h+PHx33xY8NnuH0/CltHbkKlLYfhO7A0Tq+cgh8zxuLMdGuUEL9V4UG/FaUW0XlI0VER0jFC/R29J7XH4OBgMQpDimChz6THKPWCIq4ISneKiYkRz1vSfqP3oLQcinT5nGONyocS6irIFSYUIUb7l9J+GIZh8sIihIYjpMXiyo2HyJTfFylXE+YNKqEYixCFBg3MaJVIGgzSIIkGXjQ4o0EXDdBoNShv9AO9hqIiaOXhzp07OHXqlDioowE2rXh27979jZUnKXycPAoGDRqk1Cu36oi0UkuiEkW/EFIovyoIEBIsRLwJHbMUcq6M+06aABLK3q4KAvo96JiLjIz8h7hr0cwcTS1bo1NnW9SvU0ecEOvqlkFi2CHs3BGAq/gCXzv2Rf3Tk7FAZz58ehu9kc5oIHsPSnc022qGMys7Qxex8HP4FvvNfoRDaxNUifHAyODKsL50G5m1shB9LwalHLZjs/FJzJCiJUxKIsw7Ci2mFU60BPVD5BdE5xE6TwwbNkxhbYbem6KGqO+gcxQJAJQeRML4f32GtN+oz6FzI+2zzzmPUeQHpe0oSmhhXkPnOWo/BZFeyjCMasEihIbzKioAHr5XkCW/L1LFFsOHWKAiixCFhiQ+UHoGQSJCu3btPjocX1plWrNmjShi5B2o0Uo8iRg88FIOaFBO+4MG4Ko2USQhgiYDFMWjLCkjhYkyikiqJGwVJtRn0or7u4QJEoGtrKzEtACKMjMyMsSrR/eRXLE2jMoWhZB2DzeSddDQqCy0kInYXU7odPxLrB/bHo2qPYBPy3UovqQnKsY/hVaiP67YrIDT0/04Vt0G+tvm4caQ9egRNjE3WuLOo3vY47gOZShaYkh9ZIetQvu9QKvwmyjathmamH0B49q1UcNIH2W1c50sFI4UnUdiweemX9G5bdOmTaL4QJEM9Jt+rnhJ/iYk5H5qCklBiRBZIaswNvobrOttJN+iKMifZCmiB9gh0tYaLncM0HaaD7bP7wiDT9au6D3H4JhZZ1wZEy+P5pFva+UgG5RchG0QbZM/XRTZfsJ+kKdGGTyHgEizKdjaoxx+ZRGCYZh3wNUxNJyiNU1hUa4Buo0bCLOnEbhy5RoSyuiIJpVM4UDiAK2kkgAxdepUsSoBrRJ9yuSOxAYyMqQVJ1o1OnLkiBiKTVEQNJBkAUJ5oP1L+4u8FiiaRZUmiiSS9erVS5zk0iRD06F9ScctQccyrQYWJtSnsADxYdAxSH0j/V40caK0DakiB20jjwKakNOKfenS5TB4nDO2rloiTtRvxafDWBQgiCKo+OVYrO5WEtf2r8eK3ecQDB1U1K+PVr0tUORqJTSrXwW1e42BY5NXuPGnPuoYpiL8RBT08AqobAHbKo+R8fMoNFqxBn89fIHEO7dhYNodM36dCKv4Pdh3/DR+X7cVZxJfIu3mOYQkvBQ/WdHQ302/AaX5UQrZp1bHkc5tdB6i35N+X0VET9F7SOc4EkSV4ZjLP1IQsmorQt5YOcqDjhuCn/vDbrcvzj5435Pyg1LQqWaEqpWqoZFZXRhVrQwj3TKvTV4ZhmHegkUIDefVdX/MiiiBqiWy8Sy6KFp1q4eg/WFcorOQoAEUDfJoQkeTGBr8KWrCIA3USNigNAxa/eEJo3JBExla0aN2oGoTRSrvSvnbJKIwOeUPacJPxzJNWGnfFjR0fFOECvUpJGSyAPFpkKhE/Sf9hjRxpgDS9wkTUqlQT8+1+DsiEdUbNoeT6yIsGPQNpm3oiCJhf2Cd1200nD0ddtWL5XxAYjSuGDSBse5jRJ5vAIsGRRF36TyCQiJh3XowRkzJwKqN/0NoxGNY1quMUjol8PJ+ZdgOHgPXJT+hU7FTmD9oCNxOxkOQ/csI24JpfndIylAY9BvQ304Veug8QhN9qcTzh5C3He7YsUMh4sPb0HvSeVM65khszx8eIXCKpWxfW2LK/47C3ckPCVkhsus9CPNzEtuAllZ3uAdshYN42xC27ueRJr42E3F+Y8XqY4bD9uCSr/R86SJ73YUr8BtmJrtthmF+EbjgbpvzmO1ynDrlDecJ9rA0noxZnQzlz4lFtvjeMlJcYFnqaxzo3wctq2Tn+Sw/xN7zwzBD+gwn7A07BFfbnNc7eIcjhVKHbG1hozUSm/bOhq1WOVi6xMjf9F1k49E+J9RzD5FH0lZCu4XLsGTZekx1XohlSzyxz9GYJxkMw7wX7h80HOF5Gp7oV0AZVEO3Ve74rmlVlJU/xhQcNFmggSsN1GhgSyZO+TVZkFa1KMyYwv4pTJspfGg/0ESGBvmfEvVS2FB7JfGERJT8G/yrFvSb0LFM+5T2LU2OCmqFlladBw4cKO4T6lMoWoUFCMXxLmGCfApoX1PECZUKJbFXEiZGTpqLU2GR0K9jgXH2FrBoVF00gBYx6IE1B7+H8cPbr6Ml+lihxG39nGiJb0ai+6GfMM6rHOoYlgQy4hAR1hAmNUvI5oLR2DfNCyV6dcDFszeQjAxEhxxFPIqjqPztFQlF1lH1F4qKIA8HErMpheXfoDZIpT8Loh3mPebo96fPVjzl0ajP97CX/RYtqmsDD1KQmvYEiaK5VknY+8YgM7gtdp65j2x7X8Rn+sNu50ncFGfriTi3/xASZLcSvHfjeIK27PmRiPedIL+uhyuXz2K/N1UICYf3+uOIzW4N3/h4HLV6gMRaNrCzcEPw9RkY7OICe4NwnIh89FqE0FmEo1cWoUZIOOLTE/J81g7s/T0QWZ4xsrbqCZs7hxA37hyEzM0wW3Mo57tZzcRBYSYq+j/BuPhkBLvVACoawazUXUQ/eAmkXcOxA/fFj6HpQ6Vv1uE2VYqRb2EYhvkYWITQcLTrt0Sfkz7YfDYSyU/v4ui2I9DvZo4q8seZ/IcECBIDaNBKq6X5sUL0NnnDxUmUYCGi8KFVasqRpkG+qkLtinxkZsyYwVE2eaB9SiUJKf2JJqU0ccsvMYLel96fVp3JxJaO84LoU5ic8o60r2miTZVH3hYmKA2BJsZGRkaiMEH7iYTnM2fOITklEVoVv3wdLbHxBupMdc2JlijeGEOXOqJyDXMYV9ZGdvQ1nDQ3Rs0SmYj73Q1jdz7Eg6epKP/nFURlJSL8RBLMalaUfyvFQykrUlQEidlSit+7IBGA/kYSvguyHdJ+INGDvCcUL0Q8wNnVK7BF9jefiyuPOror0NBuHnKKar/Alj41UMzyOL61qYoiW/rAsNjXOPDtV2ggztb10aJnF9G41MC+Gyx13yEVVWiMno6mshumsB9gAX1xpF4KFfRLyEbtZaGrtxyW3Tyx1301YjoOQt2IWDzOVSG0UcF4IBaOiobrwquo3UP6rO6ytmcL7bE1ZG2vI7aVaY9qHi2gVWworozuIn63EvoVUFo2+mvRMwtjDSvmREIUrYsec8rDo3oJaJXrhQMtnfFdswqyd3w7EoJhGOYjIWNKRpPJFjLjzwpb5k8Uhg79UXDzjxBSs3MeoeYhm1Dk3GHyjeHDhwvNmzcXZIM0+ZaCIz09Xfx8utBtpnCQDZbF460w2oCioXbUs2dPwcPDQ76FyYtsUiq4uLiI+5uOO9lE7rOPvaSkJPF96Hen96X3p89hlA/a17Rv6Ny6YMGC3H0mXWjf+fj4CJcuXRL362syhbTUF7IztiC8ij8pbAqIFF5E7hS+77REOHEvXoi8elBwsxsl7IwKEtyMfxIOJWXlvCyfob+H/g7pu+f9ztQH0PbC7NekvpWOj/fBx0v+IfV3DMMwb8PVMRgIaZE4feB/OPegJBq16YrO5pXF8DpaqeHqGPkLrRDRKg1FQBRWCD6tWFPYNq3i0eoWU/BQmD6tWtMKqjpAueIUqk2r/7RqyvwTilig1WPqA6j6Arnzd+3aVay6kLf0LkHHaN4QdopconK8ly9f/s9SvIzyQ/uXIgWoZO/169dFzwWpIgftV0p9sLa2Rp3cUqE5+1d48RBxzyqgul4J2b10XFv3AzaUtcH9BZfRab0TbBvVgpF+2QIJl6f0n5EjR4q3ycxT6gMoGqGwI3HoOKMIFNmE+J1mzBSRQscfGzUrHurnuEQnwzDvgkUITSfrNnaNnIVLnUaib61n+Hv9dqSNXIVpLfVQhEWIfIUGbRQyrQyDNJrUUIgw7++CR10n7OomrOQn1BfkFRTyQoaff//9N8zMzP7xGE2cWrdujcaNG39W2URG+fi3UqF5hYmcUqFGcpHqFTJT7uHyxTBcu3kV4TGN4DS/F2oXUOItiSk00SehhFI06NgnzwxlgCp6kDhCpphve1J8lghBhpRjo/Hdut5i2oMiySnp2QkjIn+ApctxoO3POLp9GtoZFJc/4+PJCnGH9bEWWI35mIp58He2QlmxvOYyYLE7eht8qmTFJToZhvk42BNCw8kK+x0/l3fA5G/bwtLaDmNcWuPguhOQrIeY/IEGaz///DMWLFigFPnaUi4/mef9l8kYo1jIyNHDw0PtVq9dXFzEfGxq68y/QwICTdYkHwFaFafJ3KVLl1CuXDmcO3dOnCDRNrqQYEXPo+fT61iAUD+oP3i7VCjtd2oTkrD3ulRoaVH0W7hwCfwDQ1CuujH6OkzEkoUFJ0AQNLmn77xu3TqxUk6/fv3kjxQ+JObFx8djz5498i3KRDbSQnzgHZJTP+Of1IBbcDyC7S7A56yiape9xHGXYRjjHS6v2vG5cIlOhmE+DhYhGGiXKJYbrqmlXRyl5beZ/OPgwYPigIgGRsoCDXZ79uwpDiCZgoEiUPbv3y9OINQNEtdoxZZW95mPg0RBEh1ogkl9BYlUFDFD2+jC6RaaiSRM5K3IQYIVRdNR/523VKgkTFC6H6UjFFRVFvqc6dOni9/v7YiDwoS+y4oVK8QqHe8W2rPxNNA1p5zllAM44T4LfgkpCKHrsD15Sm2exe28ZTgvpua8Ok5e/tJwLPwu7ZY/X7rQ687gVp5ymXEvQ+BeT/7YQh/84jwNwyztMGVWb/E19Jz4XLPJGLhYGsLyQHM4tKzy5mfF3paX86wHh70XEOjaOef1Dj64nnIB7mY2sLUxg/2m7WJJzmKWLkgR37MG3I4uh9nWqVgYGCP7618hfse38s9+T+nQkIf/KC/KJToZhvlUOB1D03l6Bgv6bUOln39Cj+rpCN64GLu+mIctA+qiqOxEw+H5iodWhqnG+tSpU5Xut6UBJA1gaWBbWB4VmgT5AZAfCOWAqyM0AaKqL7Rir6pQqsT27dvl9wqW5ORkVKxYUZzQ0YRSX19fvF8YDBo0iCMuVAQSN6Ojo8WoCTr+8qbxUNoBVeogMatWrVritSKh1AZCWcPv35UmJqVj1CuXiF+m/oL7Paeie+QW3OrxE2pt8kTKIEvsX14UizfVxG/WR2E2JR7bi/6ETTV3wfpoVfSLLIEunY6iSZ/1snczQKfl01AltBqWLIbsPA8sFq8f4SssxfAtd2TP6YdN1ybi8S/38d1SHaycdB/tGgXgiq0HnMqdxboFznA544BzvxWHdxylYyzCsWYjoeuzBo/H/4LvomfA8O3P8ukNgwQ/ONDn+XRCvPsYHPtqODDsIJqd+RmNjkzGVMi/s5iO4YVTtqvxo+FZzBjkgEXHv8Zvp3sifsMU2WcPwaFF9DdOwGL8InuddD0QPfd/hz7S33BjCxwblJTdfj/sCcEwzPtgEULjEZCVcA47vHch8HYRfNFnBJzsjMX65aR+swiheGhVikoYUuk8ZVopkhgxYoQ4SOVc/vyHBsR0fClL3rSikXxPVNXvglZMKbd9w4YN4spyYVCpUiXxt6PvQmaUhUF6erpoOqisfRbz39Bk8O7du+L1u4QJ8hapW7cuatas+ckCNLVRPT09UfxQVsFK8uChNi215RwR4nuUC/9FnNwbTD6EYy38YdsnCA3btsK4lTbY36Q/tsgm/W3dfLGxjg/qiyKAHdzOOQPejzFwJjCreR94wxGbdrXDCa9ScvFBEiGyMLHnSdj1WQ3Yb0bgLyb4c2osvvOsid/G3kZLK1+0GvYKCxcArv8rCfvi+ug+sQaOPu+WI0KQYFD1MEY4XsHAxY2ww25Azmcd+RE6y75FH+9w1F16EGuTV6DTosMwkD6jwwnYBjmj6QM/jKDvlwDUdTuJ3+QihLNFaaRd34ox7U6juXMyxvmXkH22Hr7qJ+Ck7o9viRDjsRDL0Vz8G7yxq3MQvo8fievOFu81P2URgmGY98EiBPMmaTcReB6watcA5ViEyBeUfeL5rkEao3ikAfv7HNvVBRIzlcF89VPgAfRruIKA+iEJE8HBwaLnBKWGSZCnC5lefowwoQqRXVIkIqVmSH0St+38g/tQhmHeB6drMW+SGg4fn3DkZDkyikbyAGjXrp18i/LRrFkz8frixYviNZM/REREiNfqPvClyQytjDIMo1xQ39OpUye4urqKwgEJzySK0uKDjo6OKCiQIE3VN0hMpMk6baMIp3f5KtBjyr5oQcI6LQBQVA/DMAxTeLAIoeEIabG4HBKCEOlyORJJ8scYxXPt2jXR/FGZ/RZokEZVO3jimL/cuXNHnKCrO1RGkEoNMv9GGkLcHeD+Hnd8KqtnmWsA9ylQ+Twylst5/5z3C0TQPz4zCwl+E9HfoT8sHRzQv78DHCzdEfLpH8yoENT3kzBBQkJeYYLOBSRMEIsXLxZTrCiKy8rKShQmaLWbRAkS2Ol4V3ZIWCHzTJWFyoJ+6HGZdhP/kx3nZCZJQtJrI8nP4J2fT31MfzjI+hkHhwE5fYjss17JH2UYhnkbFiE0nOzEazh6aC82rViEn+e5YU1AGlp3qAkOws8fKOyVTLGUHWNjYxw5ckR+j8kPwsPDxXBndadOnTpiGVJNg2r8O/nFyu/lNyRikJv/504viqCMTtWc8nqNTFDLqCoqGemiHI8UNBYSJt5XKpTMlSUkoVEVIrvIfJkg8UQ9eF+Jzxe4uXsOFj4ejJBXglhN5fa/+De85r9Khr4LLtHJMMzHwUMLDaeoUV0Y3olG+e5jMXvqEJgn38KrerVQQf44o1hoAEf105UdmhznzQ9mFA8NgKtWrSq/p75Iho6Ui62ykOu8uJJIpfbOIyXEHWa2trDRGgmvTaPlJet24ZSXE6YEXkPgFCdsjs6UvTATCYFzYEuvNRwG76sn4O7khwRaSXTai5u5JQFP5NTqf3Xpddk+2ec8TfhfnrJ6mYjPLY+3G5eOzkFnh8XYOKU/HLyvIZ1efnkZ6onfk6Ie7si+h6W4+qmlNQ1B6e+xf3r0BxzqSauaRVC+3dSc8npTp2DpsiVYts8RDXikwORBKhUqCRMkPERGRqpMZBcJK1Q+mPwwVIrsuJwSnMUs4ZLyEPu7GcqObTMM2+6PNWKJz6/hfuGavGSnbLvfJVw5oY9x42xhkHsMk2DZHba2sr7Bfj02Sc/dGwivzv98P7dD2/OUA72b5/Oz8Wgfl+hkGObT4f5Bw8kK+x0/l3fA5G/bwtLaDmNcWuPguhO4L3+cUSw0sVeF1W9y5CfIw4LJH6gtUIk8dUdaGaWyryqNvS/iM/1ht/MkbtKo22omDgozoXvyMBJkdxO8fXGrWS9g3hjMu2oFG6Nisq2JOOuTjHHxmcj0b4Q1B2Lx6kEKUtOeIDGzCMo0soOLfT8MaWHw+mTcQfY5T7bBKiIaUWcPIG7cOWQGu0EHj3Fu/yH5Z+3FJaPvMApeGBnaBdOHmiBH6ikue/ldPDnaHBHRJGvowd7tN/gedcbXLYrLtiUhGykIO3Zc9r+cSj3gc9sZFv+9PMow7yU+Pl70kVAV2rZti7S0j1npVwIenINP3ChZPxQMN53yaPqjC+wNwnEiXhdt7DrCLdgfztWvY793uOzJ4fBefxnlWifCw+MYErKB7IQzWOH+B6JlvYXVzEMQlujjpPTcjRGo8dPb77cPg9NPihU1SIhdv9cfm3M/vwgqfbPuAyMrGIZh/gmLEAy0SxTLPYloaReXD2aZ/CYr1BNtLS1hKV3aeiL0P6Kpxdf0XYvQZ7IRBbLwwH86xvrH5Tz4r8TBf+x0+D/4sHBtqZwi5QMzBcUThHp+j4HbbskmirSv18Nl/2F4uvjjQc4TPpC32kVW6DveQ0CWbEC7efogWRu0gd2oFThw+6ls6/t4Jvtui1+3n2ch8Ozb6QPbnpqwpQ8Mi32NA99+hQayDrOEfgVZX1kFLXp2gYHsYQN7O3zZwAr97WrA6sceqC+eXfXR0qEiPAyLodjXERjdvSnq665AQ7t5OI9XeHR2K37csgdbzyWI+zyX0hWgX6woKrX4Ctpja8gjIXTzfFZn1L+1E/sbLYCvxSEs2JwTCZFDEdnLK6LYixhcPH8FW1y+Q595gUCHwajk0RJFtSrC8kBzbPiuCUgmeTMSgmE+DUrHoDS+HFJxa9sk2HzgeS2Xd/ZVikHsT/P0VySYkHBCEWkqk5ZRxQI9tWfL+iGKRHiKS8tXI6bjINSNiMdLnedwsXSE9xNT9HSkhQ5T2A+wwZffzsS4V+4wLKqFohYbgK8sUR2loF+hZM77Sc/tXwO3l739fiPxl74tHMVOpysGdG6HXrmf/3YkBMMwzEdCJToZDebJaWF+Jydh3d+3hPiYMOGPmQOF73beFl7JHqLm4evrm/M8RiHQb3rjxg35PeKe8MeYwYLHpTT5/X8n85KH0MbCQvhyzHbhZlqGcP8PV2HMH/fkj/4b9Dmuwh/3M+X3/5t/fldGkfzj9316QpjzrZMwZsw64VLaK9m+Xic4/x4geDj/IdyXP+XDyHyzXWRe+ud7ZF0TvPuME7wvPhBeZGcKqVEHhbk95whHH2fJn/A2acIlj0XCH3HB4nvFydphN4+/hWDa9gFtSlXbUmxsrNCzZ08hPT1dvkUzSUpKEpo3by5eM8y7cHFxyTNeeCScmDNGdl5Lkd//QN7VV300r4S0S9uFrW+dU8X+NM+50sPDQ+jdu7d4fJ8+fVq+lVE01O9T22AYhnkbjoTQdMp/iSmbHVA6cDVcZ/nghtUsrOtfl0NkChxaaR6Cvn3tYDlmM7ZN6gRLy06Y5B+JOP8p4oqSzSR/3M8GygxdipXGhzFtxQkxxBJIl69S00r6Qmzb9tPr6ArxMgSeoU9lzzuDOXbWsOzrhuOX92GSjewxmynwv3cBnp16oW8vDVvZViqykXrpb9yy+wETrG/jj5Bk+fYcsh8cx/y+NmKbGLv1ELyHLMbJuOOY23Z+zvWQzQjcOkLc3zaTDuCB8BJBc3rK7g/E/FOPxAiH7AT/1/v86nWEVO2Ibk0ro4SWNsrWao2vOzzEtcjzOSuRtCLpvAFrB+Z85iT/e3lW6h8j0GsvHmzejb/TZFuzY+Gf215v4KLUjsfmz4pmQUJVbCjvnXwtcrwVNPPSpUsX0YRQipBimH9HD61GDUFRL2fMP3lH1idI5yfZdfh+jBXPSzbo63keUf4uYr8lnqfCctIj3uirZOeqnOdLF3pdEO7kOS8mvJT1V23ljy3fifXzPbFyuD3mLnYUXyOdO/Py9OlTJCYmyu8xDMMwBQ3PNTWdlzewd2k4TJyX49dfl+A7+MPj9IN/Cctm8o+SaDx+C4Jn6SHoFNVgf4xT2//CwYBzyJDdyzj1BwLjKPBRF01HL8R4eGP4vDP0QhmpeJKahqePX8pul4D1bF8cmN1Zfl0D12MpWNsGsw8chVfbuwg6eQKnxDc9je2B92X72xLjZZNbz6+r0ZsxBU12HI7vC0TESkcMXHkMAfv+zjNozkbS+f/hvsNuBActhfHOW2joWBRrJ6xHgmk0Vk3YhNT+tmjeciCGWusi41I0EoXisn2/H0FeNjh75bFs/8reI/jk631+PgvV7gThfAJtAIS06zhzuij0dYoCj54g9dlTPH6lg2ajBsO6xGNciqb3kNBFu+F9UWVof3xZVnYKSbqMgNz2ehpxgrwde36NKjkvUGns7e1FV3lNvpChLokxDPOhFKnSAj8scYLO2u0Iy3ia5/wkw3o2DgStRtuDQYjMlvqqFjh4Jl7WU73VV51+lPP8A7NhLV5PRdXrN3A2z3nxaJTsfZvLHju2CI1ji6NJ26YY6rUZP/UdnNsnPnjHoKZ///6imeakSZPUqFIGwzCMasAihIaTdeVPLCheB/VLUCElbVRpoIfjXmfYmLJQKAHd8iUB/Sbo3JpWHHVhbdcatp1byB6RPWrdDlaVZJNEoogBvpo0ExOtyQisGKrUzMLab0di1WX5IO+dUCREe4y53grfdG2H1uKbWsHOShdaxXRQvtTr7oBqvjMFR3bkCeyuOAPHgoMRfH4fpiIQgXFShfUi0LPqiKo+/WFpPRnXB7ZHE6t2sKnaFqMW/YRepb7A120r40HQDmy+XxfWBveR8PS5GAlhPeYOBnaqJnsH2XtYfvV6n7fphHErmuCU0wAMGTMc/Qasw8vRU9CntgFq6mzBtw6rcFlIwcX1u3C/aXMY3IlD8vuUSb3GedprE1TSkrdjhmE0BsljIQfyIGoLyzajsKOqKZrVfyU/P+WInrLOCXbWY3C8qzXqFMmJ2rIefg5dbQz/2Vc1fZfZZXk0znNebFFV7mpVqjx0tanMbAY2D5+IDf6/yfvEBNxLlvrTHFJSUsRKVTY2NqJJpepBVS4c4P4BZTSzQtzlVXM6wzUwLk9U2ydC1X0s3/aRiYWfQ384OHSXXQagv+y2pXsI3vzVGYZhXqMl0DIHo7HQyanp7mY4s6Sd7LQumwzd9EbXBTrY7NNbLAXn6+vLK2AKpFevXuLKqrL/prQqRLXUuXvIP6gtjB49Gp06dZJvKXiEjIe4evg3eKw/iscmQ7Fofh/UK67Yyu5SW0pKSuJwfoZRU/z8/BAUFCSW7FQF8va/kydPxvDhw3Mr+agGJEKMwTHb1XC2KCvfloKQVf7A6CFvVLuhcZ71MVuctj0G01V1cEo2viOvyX9C77kU0d/NQm+Df6l5QSKE9THYBuWtqvMIga6LEJCRhooGekhMfIrIhmOxqFUReHt5qUy7YBim4OBICA1H26wDRgT5wOfsbSTEXsaBbUeg381cLcKolRErK6s8q0XKS3h4OHr27Cm/x+QHNOAt7BJxWiUqw/TrSVj/+25sntdb4QIEIVVYYQGCYdSXOnXqwM3NTX5PuXn+/LkKl0h+iYTAObDVKgdLlxgIMVvQmaIcDMdg+0EvOE+wh6XxEhzaM1ZcSDIc5of4bCDFxRKlLP+H/g4tUCU7Gn7DzKClZYZhewPh1X0WAmP/hyndtyKawiRSj2GKIb2nK47c8MUw8fZY+MXeRaBrZ2i9szpGJbRbuAxLlq3HVOeFWLbEE/scjXmSwTDMe+H+QdMpbo7Re8ej8rHVcF2wE3dbsDFlfkImWUeOHJHfU16uX7+ODh06yO8x+YGpqam4cqgUaJdGmRL5c9RHRkaKedcMw6gH9+7dw+HDh+Hp6SlGFFAURI0aNXIfU3Zu3LghXqtW5IPEA5z1Sca4+GQEu9WAVqUv4exmD4OEa4jXawE7CzcEXx+E9D8PIUH27ATvnTgcmwkdt8O4sqk2Qi7GIf1BCPZ7h8seDYf3xig0mwTMs1+Iq71bwIhOA2UaoY+LIzoNaYpSIYfhLb6RH9bv9cfmuFGIzwyGm04RVPpmHW47W+SWeGcYhvkYeK6p8WhBW98CA1xXwHvlGHyZ+T/MnP2XePJiFI+JiYm4AqPMAzVaJZo+fTqaNm0q38LkB3Xr1sXx48fl99QXElqkCQrDMKoHpVSR6LBw4UIxms/IyAidO3dGWFiYmFpIURAU6UTRc4GBgfJXKS+nT59WYWG0Clr0zMJYw4o5kRCP/oa77LqjvQ4iYjKho7cclnYHod+ji5hyYWBvh5b65CWlC+Oh0zAqwh0Lr1ZDD0dT2TZT2A9ogQYtusOueGv82LdezqTg0Vms/tEbh7dewnOLTnAU36grBnRuh17as2H4zkgIhmGYj4M9ITSebLx4dB1//7ED69bsQGK35Vg9vhMaVSqJIuwJkS/QyhH9puQNoYycOXMGrVq1EsPoS5UqJd/KKBoy/9TT00NsbKxYClJdoRKPNOgnAziGYZQbEqGpT6KUPBIQ86ZY0MTd2tpaFB3I5+Xt88OWLVvEqIjff/9dvkU5ISFl/vz5uX48qukJoRqQgOXFnhAMw7wDjoTQcF5d24CO+l+gr39VfD+uC2o0aQqTSiWh+MxwRoLEBwpjpcGeMkKRGh4eHixA5DPSyuG1a9fkW9QPqexdo0aNxGuGYZQLOg+FhoaKAsKIESNQunRpUWBYvHix+DgtRFD6Aq1X0USSBPQmTZq88/zQvXt38fwhHffKCInsFy5cQOvWreVbGIZhmMKARQgNp2gje+wOC4B7g0DMnHcUSfcSkJLFwTH5SdeuXcXrU6dOidfKBA0eaeWrMCs2aBI0oN+zZ4/8nvpBIdy0wsimlAyjHFAEFk3EJT8HEh0o9Y7u165dGwEBAWIkxPnz53NFhw+NEKDjnKIlaOVbWaHzG4vs+QGX6GQY5uNgEULTeZWNYvpm6DpxFfbsXYlvktag+8g9UP76DaoLDX6mTp2KGTNmKF00BA3QaBDJYakFQ7t27cQBuyqYuX0KtLrar18/+T2GYQoayUSS/BxIdKAUMEq3I4NkMh+mVCkqn0uig6urqyhAf056GImOdB5RxmgIEl8oUmPQoEHyLcyHQaU/tyLkX80fSkGnmhGqVqqGRmZ1YVS1Mox0y3BULcMw74VFCA0n66o3usgmnK0HTcDPK7bj5F0BtQzL8Ykjn5GiIZRpFZwGqjQhHj9+vHwLk9/QYJ9SMpQ9h/pTkMKeqSIMwzAFA03+yZfhbRPJqKgoMarh0qVLouhAfc7YsWNFrxZFRiqRgE1CNvksKBMk+E+aNEmMguDIrLdJQ4i7rejfo2W7AiFP7+WU4qQSnw6bcfGU9ztKf+7BJV8u0ckwzKfD/YOGo23+A/53ejU6GXyBntNXYbOPD7bN7yq6KjP5B0VDbNiwAQ4ODmI+bmFDq2UUmUH5v+pskqiM0IB93LhxYpi0OiGFPfOAn2HyB5pYS6IDTfpp0kh+Dn369EFKSooYcUeiA5kMb9y4UfQjIj+H/D4m6XPj4+PFSChlYcWKFeL1sGHDxGvmbVrDV7bPjlrdR3TUWfhQKU4hFf5mxxBYovk7Sn/uwSWzlVyik2GYT4ZFCI2nGCp+0REDTcPh8dslJLEdRIFBg0GapI0cObJQw/FpIDtnzhyYm5uLK2VMwUIrkRQNoU7lOklY47BnhlEsijSRzE9I5KDqE8oislNUFpWdJuGfvSD+jVKooF8CqNQCDtXWw1CrHL6+0g7djStB9x+lP7uifvAELtHJMMwnwyU6NRwhLRy7Z/6IH662gc+CLjAkWapcTZg3qIRiWlyiM7+hQSWlP1C99RMnThT4AKmwP5/JgVJhKGSawqTVIXKAcs8p35zCvRmG+TQoOioiIkKMZiAPBxL2iObNm4vHGKU6mZiYKG30GpldSmU7C+s7kghCxps+Pj7vLYvNJTrzD4rU4RKdDMO8C46E0HCyE+OQUK0TXDuVwI0Tx3DsmOxyLhpp8seZ/IUm/atWrRKjEAYOHFigERF5BQgaJLIAUXiQGRwNgqUVTVWG2hKFYnMUBMN8HAVtIpnfkAjZtm1bcSGjMKL9aAJMkYYUcfg+AYJhGIYpHDgSgnmLV3iW8gwldMpzJEQBklcQ2LZtW76vyNCAkFIwJAGCfSAKHxowU2g1TTQoRUMVoXZFRnjcbzDMf0PHfHh4OK5fvy4aRZKRK0GCZOvWrdG4cWPUqFFDpaOj6Nw2e/ZsMd2M0iEoPaQgoBQMEnBIgPiviCy1iYRIOw/3r4fhyri/4NPbSL6xoKASnT9hP9Jlt8vgOQREmk3B1h7l8CtHQjAM8w44EkLjyUBi2BH8HngNj9Oicdp7GhzmnMYj+aNMwSBFRNBqDU1EKYSVBm/5Aa20SRNESsFgAUI5oAEwhQyTg3thrBp+LtReSdgio00WIBjmTej4UEYTyfyGzm00AaW/h9Ii8tuskn5nSgMhAYL6U01KCcu6cRI77TZjU4ELEASX6GQY5uPgSAgNJ/umN7qOuoqOVhFYd1QH37m6YmKPL1BRW0scJPGKZsFDIgFVqjA0NBQndIpaFacBMFUsoPxM3q/KCxnOESRKqVKKjJT/fejQIbXwtWCYz4Emw2QSefnyZZw6dUrsdwnyc6AUBWtra5iammqUDwFFJ5DISuc2EiYU/beT/8PPP/8spoN9TNSFekRCUCSCLfpsaYOlM+/jr1MPcNxoBLyKeWK4N+Douw9zsBJWfVYjAW3hdm4u4J2I7zxr4rex0Rg4E5jVvA+8MQa+QYMR2a4lXO4YoK3bHmyoswNt6HX2sv7dbBe+v9IQA2PuoEw3XWzXGoPr/1Ihg8Yd7AnBMMy74EgIDSc79TEemDeBjans5PvFV2hXMwORkUnsdlyIUJ4vRShQDjCt5lBuMAkTn1LCkQbCNPCjiS2tulWsWFHMKWYBQnlZsmSJmCZD6Tm0/1QBEiCozCilErEAwWgi1D9TX0vHAvXZVLmCVv4p8qF27doICAhAbGys6OdAEzLqgzVJgCBIUCeRkv5uOh/R5J8mqZ8L/e70XvR703mTzp8FlfahPBihx3gnWLgNxVfly8Bq5iEIS/Rx0jtc9lg4vNf/jt9/14ZnfDKC3WrkvORBClLTniAx8xUenTsMb7H2ph/WH45DdgdfxD/ZBquIqzi5n16XCcFnCDo7zcKPMftx0c4Vk128uUQnwzCfDIsQGo6WrhmGVn+AMw+qY5RxHPZ5zMOkKb/hjvxxpnCgFXAKI5UEA4qMIJMyEhNotZlWfKTBG01UpckqhfHnDfmlgTCtPJHxJQ2AafDLk0TlhvYP7T8SIjZt2qT0QgR9VxIgyMtC0yZVjOZCfa1kImllZfVeE0nyelAFE8mCgvo3Og9RlAhBYgSJNnRe+xhBgp5Lr6HX0u+uo6MjviedN9lkuRT0K5QEqligp6Op7L4p7Ae0R+deWRhrWBGWLjGywZ8e6uiuQEO7eTiPoqjUohMcxdqbXTGgZaWcyUHpCtAvpoNmPel1xaBVbwkCzh7EAYyBu1MTpPo5cYlOhmE+GU7H0Hiy8eLRdfz9xw6sW7MDid2WY/X4TmhUqSSKcDqGUkHCA4X2kpEZpVVI1K9fH/r6+vj777/lW3KMzUh4oMEZDfJ4UKZ60CSHjj3aj8qamiFFQKiymSbDfAg06aW+NygoSDRZfJeJJPe1Hw9FkPz555+imCmVIKU0RBIVjI2NxfsSZOAZFRWVm9pCv32/fv3EUqWfI65TP0YpIjzWUTwUpUKRKSTEMQzD5IVFCA3n1bV1aPvFD7jayxO/9YrAznJTcl2V2RNCuaEV8lu3bmHo0KGiodm5c+dQr149jnRQI/IKEZSmoSz7ltreihUrMH36dBYgGLWD2jetqkdGRoqiQ17RlybIkp8DVYJh0UFxkCARExMj/u7k60C380KVQkgsqFOnjkIFH/pcR0dHUcynlEVGcZBgVxAVvxiGUT1YhNB0hHQkXDmNg7+txxrfa6g63gfbRjeHDhtTqgS0ekSDZBqcEZrkBK4p0AB5ypQpYnoGTfwLe8JPwgi1M5ok8OCSUQekye+7TCQp3J9W5DXNRFIT+Zh0EObDYKGOYZj3wSIEIycbLxIu4a/fNsHzdif8tq4XDFmE+GRoJY1qo+ddQcsvaMWuUqVKYk5yfkPhr8q0Iq9JUP6zg4MDFixYACcnpwLfB9SmDx48KJYUpNVgKsfJg0tGFSHRISIiQowgIw8HKQ2gZ8+eor8DhfebmJiwh4MSQN5GBFdXYBiGUS/YmFLDyQrzFic2Dg7fY9TUVdh/5RkMK5WQP8p8KrSaRjmtpPHl94VW52hC+q7HFH2h3Oft27fL/0qmIKE6+yQ4kbt+ly5dxCgYEgYKAsrrHThwIBYvXiy6/NOEgAUIRlVgE0mGYRiGUS5YhNBwtL/oj2WyicXiH9vIJjRt8KPstruzLarKH2c+jbS0tH+YaqkDlAv9dp4uU3CQ4EQTpalTp4qCQJs2bUQxglZ2FQ0JHCQ+SO7zUuk7mqAxjDKTt0IQiQ4UEt65c2fR1JBSiSgCIj09XTyW6D6lOHF0F8MwDMMUHCxCaDraZVHJwAAGlXVQqpQOKstuV9UpCS35w0zBkhXijnq2KxCSlk33kOA3EQ5+sTkP/hsJfnBw8AOV+X4/9H55SmplhcDd0h1BQe6wfLvMFr1ffwc4WC6A366J6O/QX3zOK/nDTOFCKVIkCEhiBK3s0ioviQafEx1Br6UqLOQWTwKHJD7QKjGXvmOUEanNSqIDeRmRaSGlDRF0jFAEEYkOGzduFCOKmjRpwm2ZYRiGYQoRFiE0HCEtFpdDQhByOVI20YjMuX3zEdd9VhRp57HK+9LH/Z7Hf8TXY7biuihEFBJldFDNqCoqGemjum5VGFWtDCPdMixOKRE0iSIxgtIzaGW3fPnyomhQunRpjBgxQvSQoIkZrQrnNVyTRAoKUaftFKZOz6XX0GubNm0qRruQCSZN3Eh84FViRlmgqB8SHd5usyTGUQoc+RiR6EDpY5Q2RMcIRRCx6MAwDMMwygOLEBpOduI1BB47hmNXgLZtgSt0+1w00uSPM5/DM4Ssm4sJw5rBeOk2LDGzga2NGey9NmCYoRa0DMfCLy4NcX5jRRNQw2F+iM8GdNwOwc/sd/yw8Ih4H68uw93JDwkUueC0B2F+TuJq3+tLd7hffgZs6SN7H0PYuv4Pcff8Xn9GTBDcxc9ugglB79uzr3A/b5RE+XZYuGwJlu0bCauOU7FsiSf2ORpzh6Gk0MouiQU08aIJWNeuXREeHi5O1GhVmC7UVr744gsxsoFuU4g6bZ8xY4b4XPL7kMLUafJGIeo8cWMKGxIdKMKHonMoNYiifkh0IIGtdu3aokdJbGysKMaRn4MkOjAMwzAMo7zwnELDKVrLGt0a6UCr3Bfo4TQJzs7OcB5iAR3548znUAbmtm1h4RaM6z82QlG0wcyDIViiexHelDeR4If1ARcQtP+QmEaR4L0Th2MzZbcqwfJHT8zEL7Ds9ye9EfAgBalpT5BID6Mk7H0jEe87QX5dD1fuPYfsDuIz/WF3+BLCzx5+/RmH45AtfvZlbB/QBKUiovEgOxtpYSdxIIXejyiKqr3X4bazBbTlWxjVhCZgNBEjIYFy3kmYIGGBxIlatWohIyMD586dE1Ms6DGavNFzOUydUQbeZyJJJWrZRJJhGIZh1AMWITScrIsb0cdfC02LHYDTtgjO+VcwRcrpQs/la9htvovsErqoULo4qrToBEcD2YMGXTHgSzNY9+wC8a69HVrqFxVfhyLV0M51GTbZVwG09FBHdwUa2s3D+ZxH3w1FQhQbiiuju6Hll3k+o2UlFBE/uwi0G3bHnErrUb1oUZSzPISWGwaiWTF68VuREIxaQcJCYmKiGAlBEzcSHjjFglEG8ppIShE67zKRJD8HNpFkGIZhGPVAS6ClMEZjISNEy61VsNYiBI4hFtg8xATa5WrCvEElFJMNCCm/llZVmY+DBtWEuv12NGHw8vISV86Z/IHCzym/3c3NTb5FcVA0BE3yyHTywoUL8q2KoWfPnmK74FB45n2QHwm1wcuXL4spQHnbuIuLi1h9x9TUlNsQkwuJUwSfcxiGYdQLFiE0nFdRAfDwvfLm6ncVWwwfYoGKLEJ8MpTDvHnzZnFgrU7s3btXDH2m0H0mf6BQ9ODgYDFiQZVQ1e/N5B8kqEVERODOnTs4deqUKGASzZs3F/0dLC0txRQhFh2Y98EiBMMwjHrCIgTzXig0lkWIT4dMAWm1T52oUaMGhg0bxr4B+YiqRtFwlAxDfg7R0dFiCsWRI0ewf/9+cTtFyZCfA4kNJiYm7OHAfDAsQjAMw6gnLEIw74VFCIYpeP4pQmQhwc8ZU/ETfHobye7Hws9hGbDYHb0NCsNGlD7/J+xHuux2GTyHgEizKdjaoxx+ZRFCoyDR4dq1a2IEDBlFSik+w4cPh7m5uVjFolGjRuzhwHwyLEIwDMOoJ2xMyTAMo+ZkhayCk1+s/B6RjbQQH3iHpL3jsf+iFHSqGaFqpWpoZFYXRlUrw0i3DLTkjzLqC5tIMoVGdhwC57nC++pTpF3bi9k/TIbHyTg2UmYYhlFRWIRgGIZROjJx07u/ONEzHLYP94UX2NKnhux+Z7gG3oeAP9HHsBi0bOfgfwGLYWZrCxutkfDaNBqG4mt24ZSXE6YEXkPgFCdsjs6UDeLvwLuzoew9zDBsuz/WOE/DMMuvsTwiQ/y8hMA5sJW9VstwGLyvJyDE3Vb8fC3bZQjYPipP5ZRKaLdwGZYsW4+pzguxbIkn9jka88lEzSATydDQUDGtTBIdGjZsiD59+oiPU5QcmUxSMCWJDlzilclXHpyDz1VzdKx5HesmnYGJ05e4N34HwliFYBiGUUl43MgwDKN0FIVhq2FwszdFwokoPMwuCXvfGGQGd8Thi4nIRnf4xicj2C4SlxJfAVYzcVCYCd2Th5Ege3WCty9uNesFzBuDeVetYGNUTNbbV0YrZxfYG4TjRLwu2th1hFuwP35sVEL2ikSc9UnGuPhMZPo3wpo/byMLrWWfEY+jVg/xzHY1bjtboDCSP5iCgUwkyVCXRIcRI0agdOnSYjqFp6cndHR0EBAQkCs6UGg8pQuxoSRTYOiZoIO2N+y/dkfq5B9lPWAsQr+oDl0exTIMw6gk3H0zDMMoHa8Qf3oTXGIaw77uPdx7ki5GQhT7OgKju9dCUTESoiK+vtIOdjWLoYR+BZRGFbTo2QUGslcb2NvhywZW6G9XA1Y/9kB96umzH+K0+2rEdByEuhHxeKnzHC6WjjlREtBHS4eK8DAsJv+MenLBoRQq6BdD8l9j8kRCMPlNVthadF+Vv783+TmQ6EAiA1Wq0NPTQ6tWrcR0C/JzINEhNjYW58+fFyuedOrUiUUHpvAo3hADF0/HkK+bo+ylXVj7vwx0bF4RYFczhmEYlYSNKZn3wsaUDFPwcHUM9UdIi8SZw8dxMTITVVt1RQ+LRHi2XISMOYswoVt9lL3vB4ehKZh+0BENFLRUwCaSjCqSa0w5byBWdVkFTHeCTUV5TFaxymhoZoSybEjDMAyjcrAIwbwXFiEYpuA5fPiwOFHs27evfItqQN+bIENC5l0IyMrKhvaLq/B2/gV3bb5Ft/pZuLrzVxyzmICBIVOxOr4yitcZhAUu9XFu0AbobF75yRVQSBSiEsFBQUFwc3OTb80RHVq3bo3GjRuLHg/s4cAoM7kixCRrOEwFFvv0FqO9GIZhGNWGRQjmvbAIwTAFDxkCbtq0CTExMfItqkGNGjXEsP7q1avLt2g62XiRHIs7V68i9EoEnpdOw5p7HbCv0Tb0jByGc86WIDcO4eGfGN0mHJ1+jMDvutMwv/JRzHIPQ7kSd1HKaTuWtKuU83b/ArUZ8mu4fPmyKDzkFR1cXFxgbW0NU1NTTqdgVA6OhGAYhlFPWIRg3guLEAzDMB+IkI6Ei8dx8Mw1PC5VE5Wj1mLVjQood7Eqhuz6CT0qh+GnIQ/g5HoX4672x5k3RIjr+H4zMMyvGc4ssUXpxAvYMmsq9jRfgwPvqDxCJpIRERFiScywsDAxDYZo3ry5KARZWlrCxMSEBSFG5ckVIZYuQVZCMPz2n0ZM2itxG7TN0GdcZ9QumnOXYRiGUR3YmJJhGIZhPhIhLRqXo57KffGe4OqvzvhhdyJqWrVF2/p18NXPRxG8dwWcWgBlDGqiUo0v0KZ0KGJq2qH3UQ8s8z2O4KCD8F70J3Q9B8KyUTN0u3oX97O1oK1vBUePg9hn31A8SZOfA6W7vG0ieeTIEdHP4fTp0/8wkWQBglErUi5ix28nXgsQDMMwjErDIgTDMAzDfBTZSD2/Hl1sZmBfXAbwOAgb5+lg/PQhaG9tCcu2FqhVXAvQqoR6lg9x9tpj2dm2Osw7JuFsbENM3j4FFk+u4HhoKmqPmIc57auhSPl2WPJnjhEl+TkcDjyB5UsXwcrKCkZGRujcubMY9UCRaSQ6JCUliQaT5MFhY2PDogOj3pStiRa2trBtXQX3Nt1DFRvZ9eYreMyxvAzDMCoJixAMwzAM81G8xP2799F+CLBl8m7czJTNhIqVRekSUnL6KzxLeYoslEb9Zg0REByFDJRCbbP6uBmXgiIVTdDZcRycnfqjnYk+Im/eFKuiUOg5pcGRYSSJDikpKaLIQGkX6enp2LhxI+zt7UXRgatYMBqFdiU0sLCAhWVTGBtkIfP5S7zgoAiGYRiVhUUIhmEYhhGe4u7lu0gTV1afIGjBICwIeiI+9E+eIOryLSQ/B4pfmA6nrcXQZ0QoFi3cjZPBZxHgPQMO047gvlAE5Zv1gWuNYniOotDtvBi+A2vicmgotmzZghEjRuSKDn369BHfmXx4yGSS7Jqo3CmJDk2aNOEqFgxDFG2EwevskHlJwNe+I9Ds04rHMAzDMIUMixAMwzCMRiBkZUFcPCUTyZC/4L3KHe4bTyEhW7YtNRhru/SCy767yEIZ1Gykg0OhsTnPf5tXiYi6bI7eA0dh6dlAuD7ejv2N52J5hyK4diIMj6r1h8eKXqiuBTzOro06dV5gm6enKDqULl0aTZs2Ff0dateujYCAANHPQRIdKN2Cq1gwzFukhGCru+x4dV+BdX9cRaqQgoi/gnCXoyEYhmFUEhYhGIZhGPUnKwTLrJbiQkbKWyaSpZGRJSD7/l1cad8eZbYswY6bGahiaonSx68i/l0550/icF0whbXVF6ilVw8d5q7CDJt6qNu6H7oP6A59rUT4eq1hE0mGURTsCcEwDKNWsAjBMAzDqB9vRzsUqYw6ZuEIvXjyHSaS2UiJuoZwMb/iLOydNuJSZVN0vHoOF25cR0jgEYQkvJS/sQydLzHD1xEmRSUTyTNYs2opm0gyTH7BnhAMwzBqBYsQDMMwjArzCmlRZ+Dn7QH3db4Iin0GAc9wc9sU/PRHKup9aQtbs7J4ka4H0zZFcfxayjtMJB/hXlQiuvX+Fo5LD+KOaxqWzb+Dau1C4LHoVxy7+xTp8aEI9N+K6YPawLBhN3w9ahybSDJMQcOeEAzDMGqBlkCJqAzzDmiATSZptJrHMAyjfGQj7epWOC+IhM2wLqifFY6day7BYnZ3hH8Xim9Cp8G6aAqiwkIRAWN0wG8w31obq6vvwi+pffDT1zXw/PIf2HihPr4pcQKpI9fCyaS07H2zkJaSAaFEEdy5cQOXL19EwL692P77wZyPleHi4gJra2uYmpqyhwPD5BNUMYZY6joAW72O4YF4T462GfqM64zaReX3GYZhGJWBRQjmvbAIwTBM4UJRDkE4fOwiIl8aopVdZzSJWwXro+1wbro1SiAWfg7jEDl+C5wtysuen4WHfzqjTagxum+OQdeL89H22Rl4/eIBjxfDcGIWMHdwHEb790WxvwMQcD4J5UxboF0bM+iSoJGehusREWI0A6VTeHl5id+iefPmor+DpaUlTExMOJ2CYQqIXBFikjUcRkRi0BxbVBK3yChWGQ3NjFBWCmpiGIZhVAZOx2AYhmGUAuFFHEIO+GCV+wpsPBWLp1e3wXn6YTyraYlWtR9j59jJ2POqNswPheKOmA9eHGUqFhdf+wYljdHX6TZ+WbYHp+O0UbdBNZQKicL9Cp2x8i9HNChaHrXfMJFchwHf9kclNpFkGOVFrw4aky+EdGnMAgTDMIyqwpEQzHvhSAiGYfKPV0i7ewuJleqjdtmiQNpleI9bghu2Q/HNF+XxQvYvftUKxL8d5RDRGj8eCUB5r9UYYFQET88uxwCPLAx3aodqzy9j185EdF/ojPZVXyDqdN5oB3OkxtxGeHg4rl+/LhpFXrhwQfwmw4cPR+vWrdG4cWPUqFGDPRwYRknIjYSYYI1p886hbD19lBC3yOB0DIZhGJWFIyEYhmGYgiH7DvzG/YB1Yc9kd5Jxfu1g2Lj4Iy4rC4/PbMG8ysMw3b4jrC1aoK2FMfTeFeWgVRmNOz7G2QvXcDPkJE4XH4BtMyzwJPQsQlPqYYTbT2hvUBzPXxRDZhVzVK5dGWFHd8CwVFHRRLJPnz6iieTUqVP/YSLZpEkTFiAYRhmRjVbj7+nDkkt0MgzDqAUsQjAMwzCKQ3iB5LvXcPlWIl4IAjKCFqJeu5/xZ+RTZFz5C8s892NfSCyysx/h7pVGGFJmNybvuIlM2UuLlS/9epVTKA3jDiY4umw1fE+eQ1DAr1jkWxme31mivlkdBHgsx6ZjkUhHMVQ06YSBI0bBumFFBP+1CyNGjEDp0qVF0WHx4sXi21FU140bN0DBf0uXLhUjvEh0KFWqlPg4wzBKjpiOYYLqZarDpKnsmitjMAzDqCycjsG8F07HYBjm40hDiHtvjLpigW64hsR+q7HG4jyGfrEOz7uVR3ocYDukKX4/0Qi7V5TBkiYeyO5fGoeWZWDkyfEQ5q1H2qjR+Lrac1zetx0XWszCAuMo/H7kGl5WMcdX7b+ESaUcmeLx48eIkJtIkofD/v37xe1sIskw6kNuOsas4Qg8D1jZGiL5Rgoq1i+KGwfjYdjNAga8nMYwDKNysAjBvBcWIRiG+U+Ep7h75TEqmdVCWa1XeBzgim+utMPSstsxGS4IHAFsbLsG+pvGo/zlZJh204L3l4Gw3VwRM9aVwILx7dGgZASWzTiLNnMHoXTIcZxPLgfT5m3Qplk1lJQbz927dw/Xrl1DcHCwaBQpiQ49e/ZEhw4d0LRpUzRq1IjTKRhGjeASnQzDMOoJ68cMwzDMx5ERBu9pfoikChWpwVjbpRdc9t1FFopCp3ZDlJwzHXP+SESdzBQ8FKqjSZcHOH+vEjr2bQmD0tXQyPw6Qi7egdDEClYmNaFXpzPmbvgRNrUaoPWAUfjJaRBql3uGv/b5YeHChbCysoKRkRE6d+6MqKgoURilCIikpCTRYHLs2LGwsbFhAYJh1JWyNdHC1ha2skubhhk4vPAw4gyqQZ9HsQzDMCoJd98MwzDMu5H7O4SE3cWDMwvQZEEQMmh7sRLAxUCEPsxC9v27uNK+PcpsWYIdN5+hSB1zdKzeFhO2bYNzmZ34Yd45VGhaH1fuPkK2+KbV0WP9Rjh9Nx+HRpmCFjGfP3+ByPgHOPzHPnHlk6Kw2ESSYZhctCuhgYUFmtVMxZ/LL6Ltfh+4DTDlEp0MwzAqCosQDMMwzDt4hMCpHdF78W4c/XUS+vprodFfp3DmeggCDxzD5eSLOBeRhJSoawhPfg4UPwt7p40IeVEdzXo8RtT9kvji+8XwGPgFjLouxl+OxvITjhYyhWxcjbiOXVu3sIkkwzAfjJZeU3w3zhThO/6Hq8lkZ8swDMOoIixCMAzDaBBCWjQuRz2FaAaUEYQFTRYiKONd1kAVUL9ZIxQzaY8+PVqgWHw5NC+7EfNW/g93M+uhu6Mx/rh4G/eiEtGt97dwXHoQd1zTsOzni2i0yBtOJqVlM4ayMDKujpfJj3HmzBl4enqKppEkOpCHA92vXbs2AgICEBsbK3o9SKJDgwYN5N+DYRiN534AZg1xgMPQ8Viw/yoSDo9Bq45rEZYlf5xhGIZRKdiYknkvbEzJMKqP8OIxou9E4HpoGC5mNMWQWv5oMTgNnhfc0LvaQ/g5TMHDKV45osFbvLq2Dm17HITlBEcM/bYVsnx+wO5ma7CkXSUIsbswcHgCOhlfwstRa+Wvz0JaSgaS0pJxg00kGYb5THKNKaf1wvoVhxAn3pNTwgJDpvZEfTamZBiGUTk4EoJhGEbteIawdeOw1Gs6Grf6Hs5jJ+P3DHP069EI6Xfvo/0QYMvk3bj5shJM2xTF8SsPcyIj3qJo3SboUrYFBozsAXN9HdQ2q5Pr7aBl1Adeu4ZhwJKNaKd9D35+ZCK5FO062aIWm0gyDKNIXtzH3xfLw8auPp7ueYr6Xen6Fp7yMhrDMIxKwiIEwzCMqiIaR4bjdEAAzgcsgWXPhTgQSakWJVC5soCjRYYgLHgvVjg1RkqZaqhXKQN3L9+CaOFwYTqcVl1B5cbmuHo2BDduhiDwrxAk5LhHigiCHhq2eIjohxTzXBS6nRfDd2BNXA4NhZ/fH5i7cB7KlirxDxNJ8nNgE0mGYRSKXh00tjBB9TLVYdJUdq0t384wDMOoHCxCMAzDqCRPELSwKzrO/h03n5WFvkljtLp0HD6TnTDN9zqKGzcFTlzDAxSDQb26CDt7A8mvEhF12Ry9B47C0rOBcH28HvPvGqBdwGos2nQMd9OfIf7iMfhvXYYfujVDi6G7IDhNQcOkq9iy5bWJJKVTkImkjo7OO00kyc+BTSQZhlEY5Uzh4GCKckUbYsC2b9GwmCFsf7aFIY9iGYZhVBL2hGDeC3tCMEwhQlEO0bdx9UYcSjW2hYVBcfkDGYjym4UpDwdgeWUvDIj8BptstRGZrY34GbtQce0kVD7gBvcbRVDikA6cLs5HOxzHlBZB+OZYM+wceBcjjzjBhPKos54h5UUJ6JSVLylmJyBw73lEZWsh5WEMTgUeecPPwcrKCpaWljAxMUH16tXF7QzDMPlFrieE6wBs9TqGB+I9Odpm6DOuM2qzJwTDMIzKwRoywzCM0vFmlINu8WAsqNcNs/68hbSMCPgv24g9+0KRZmKJsgt/wbpTUUgvYgDzjg9x/m4FtB73C7yGWkJPNxp3778Eypujv2t9FCvRBosPjcwRIAjtMkhLuY/Dhw9j4cKFsLLuifYDemH4wJ6iAEEmkqdPn871c3B1dUWnTp1YgGAYpmApWxMtbG1hK7u0MRZwesP/EGdQDfo8imUYhlFJOBKCeS8cCcEw+U02XiTHIjLyCUpVf4rtnU+i/blpsC7xCgl+49FXinJAeTxfNQqbnjdA6fQEJNoORK/fQ1FzuwMiu+1CnT0jUTM+Bs8en8DSp0Pwh6MxikBA1ouXQMkSyJs6ffPmTYSHhyMoKAjHjx/HhQsXxO3Dhw9H69at0bhxY9HjgdMpGIYpbHIjIZYulf0v69MSz2PT7K1I/XYaJn5V7Y2+jWEYhlEdWENmGIYpQKhk5t1roQiLSsLjwBlo0HsR/I56Y2LfAyjS6ApC7zyXPUsbVUzzRDmgIhq2bAD9Aa5YOuFHLBj0DVp2SUFEnC7M2ofAc+VOnI97iTI2s/GnKEAQWsgUshEumkj6iYN5EhYlE0nifSaSLEAwDKNcvEJa5AHMm7wfOmMX4CcWIBiGYVQajoRg3gtHQjCMoniMoFXrEd+6Mc71XIYnI9uh5IUQ6H/fHVfWPMOEtY1wbIQfyndPxelq87FjQC1oZYXAvelv8iiHe3iZfhaOp2xwbkk7lEcWEvwmYmjKWBzMFR1kn/L4MWJiYnD58mWcOnUKXl5e4vbmzZujV69eMDY2hqmpqWgcyTAMo+zkRkL82BpOLR1wpFY72NQoI24D2uDHTY4wZzWCYRhG5eBICIZhGAUivEjErbCriI09iIm263DtFW0tifLFr2B/ZGk0+7IqTNr3Qo8WxXAzqybaPvfGAs/rMFkxB8PbNHldLvPwY1RrJ0U5vEDxus3Q+cpd3BdLaGrDoMcybO6uj7NnzsDT01MUGfT09MTKFRT5ULt2bQQEBMi+RyzOnz8v+jlIlSsYhmFUiiodsfjsVZza7iFW5lk8fxBqhiXghfxhhmEYRrVgEYJhGEZRvLqN3eNd4XX4D2w+B5gWD8f1h1myB0qieoNaOH/9Feq1fY5VC7xx1cQV7r0s0aSLCVoOsEcv88ooWdsM7XPLZVZE2xUnELjuZ/wwpDssGtnBeUMn3D0iN5H8sjUMq1RCq1atcOQIm0gyDKPGvErDw7h4xMdLl4d4ijf9bhiGYRjVgUUIhmEYRZH1CLdvlYdpqz74obs1TL9KwLmIFNkDRVC+kSWsbj6BbpPmKNuyP0b2agJ97bKoZV4dN6OTIebF6XbGyohA+CxxhmNfS6Tevpnr50DlMY2MjNC5c2dERUVh7NixuHTpkujnQKID3bexsYGuri69E8MwjPqQFo1zx47hmHQ5EYLbGfLHGIZhGJWDPSGY98KeEAzzsbxCWtQp+G3fiW3nDTFuyDNMOtIYv0+xQOrpX7E0pgd8hj3G5CnPMX1zfxhpyV8m4/nz56JJZGRkpFi5ws3NTf4I4OLiAmtra9HPgYQINo5kGEYTyPWEWLIIWdlFoF1U3mmSZ471MdgGOcOCwyEYhmFUDhYhmPfCIgTDfCwCspIS8KhMeTze7IQllV0xvcTf+CMiFeXq2aJ3d3Poa+cMotlEkmEY5t/JFSEmfQmn7w6j3thh+K5bUxiUSEfsjRRUbFgdZfOIuQzDMIxqwCIE815YhGCYj+dV5F44fbsQCe2mYemM3jApW1Tcfu/ePURHR4spFOThsH//fnF7z549RT8HEhtMTEzYw4FhGEZOrgixdAmyUi5gzWAHrLpvgj6jR+G7rq1gZlAarEEwDMOoHuwJwTAMo0CK1umLjecvYt3Ylrj399EcE0m5nwOZSIaFhf3DRJL8HNhEkmEY5n1oQVvHANX12mPmvHa46dwZ5v23IEKsPsQwDMOoGixCMAzDKICbN1+bSFIU0ftMJDdu3MgmkgzDMB+D8AKPrl1CaMwhePx6H1/vvYrE/42ESU6gGcMwDKNicDoG8144HYNh3o1kIkl+DuHh4e81kWQ/B4ZhmE/ntSdEW8xaegfNBvdGl2bVUJJzMBiGYVQaFiGY98IiBMPkQCaSERERuHPnzjtNJC0tLVGrVi0WHRiGYRRIrgjhOgBbvY7hgXhPjrYZ+ozrjNocDcEwDKNysAjBvBcWIRhNhU0kGYZhCp/XkRDWcBgRiUFzbFFJ3CKjWGU0NDPi6hgMwzAqCHtCMAyj8ZDocPjwYTaRZBiGUTKynz/FvWfZgF4dNLawgIV0acwCBMMwjKrCIgTDMBoHm0gyDMOoAtl4HnsFOxPqwcHBFOXkWxmGYRjVhkUIhmHUGjKRDA0NxZYtW3JFh4YNG6JPnz7i45RyRCaTlJlGooO9vT2aNGmCUqVKiY8zDMMwhUzpemjXrgHKyu8yDMMwqg2LEAzDqBVkInnmzBlRdBgxYgRKly6Npk2bwtPTEzo6OggICMgVHZYuXSp6nrChJMMwDMMwDMMUDCxCMAyj0pCfA4kOJDJQpQo9PT3Rz4HSLczNzUXRITY2FufPn4erq6vo58CiA8MwDMMwDMMUDixCMAyjUrCJJMMwjKZQBGXqWOEHsxQEznOF99WnSLu2F7N/mAyPk3HIkj+LYRiGUS1YhGAYRql5n4lkSkoKm0gyDMOoO9rFUCbpPHyumqNjzetYN+kMTJy+xL3xOxDGKgTDMIxKwiIEwzBKQ14TSfJz+DcTSfJzYBNJhmEYDUDPBB20vWH/tTtSJ/+I7ohF6BfVocujWIZhGJVESzaYF+S3GeYNaAJIkz4y7mOY/IBMJCMiIsRoBkqn8PLyErc3b95c9HewtLSEiYkJp1MwDMNoIBQBR5DoLKRcxE7PLTh8Rwv12g2A48AWMNDWEh9nGIZhVAvWkBmGKTAkP4e3TSSPHDkimkiSn8PbJpIsQDAMw2g42Xewe6w7IswdMXfhGLRL98HQJX/jqfxhhmEYRrVgEYJhmHyD/BzeNpEkPweKeqAIm7dNJMnPgUUHhmEY5g0ehOGvxA4YbNcYRgb10HJgPzTZeRa32BOCYRhGJWERgnkvLi4uqFKlivwew/w3b5tIkp/D+0wkyc+BTSQZhmGYDyL9JbKkBOKsTGSwAMEwDKOysCcEwzCfBJlIkknk5cuXcerUqVw/B4IELGtra5iamqJBgwbyrQzDMAzz4eR6QiyZgrOLxmND2UEY9WUZ3N27AYebzsWGAfWgLT6DYRiGUSVYhGDEPP3o6Gg8ePAA8fHxiImJkT/yGh0dHRgbG6Ns2bKoVauWGFbPFQk0CzaRZBiGYQqSvMaUyHqIsICDOBHxAlVadIRdqzooy76UDMMwKgmLEBoITSaDg4NFM0A3Nzf51pzVa4JWsN9GEico3H7//v3itp49e6JDhw6isSCVSWTUCxKnrl27Ju5zaitv7/emTZuiZs2aLDowDMMw+cJrEWIJshKC4bf/NGLSXonboG2GPuM6o3bRnLsMwzCM6sAihIZAofMUMr9nzx5xBTvvRLJRo0YfnZdPE9Pw8HAcPHhQfD9aDaccf1oR50mpakL79O7du6JARUaRFy5cELcPHz4crVu3Rt26dT+prTAMwzDMp5ArQswbiFVdVgHTnWBTUZ6AUawyGpoZcTQEwzCMCsIihJpD4gMJBYsXLxbvk1Cg6MgFKbJCEjgoooImruwFoNxIQlJQUNA/ImLIy6Fx48aisSSn3TAMwzCFQa4IMckaDlOBxT69YSBuYRiGYVQZFiHUGKpSIIkPU6dORdeuXfN9QkkTWxIiaFJLk1n6XF45L3zeZyJJESxt27ZlE0mGYRhG6eBICIZhGPWERQg1hIQAOnGTj0NBiQ9vQ9+BhAia7Pr6+hbKd9Bk8ppI5vVzYBNJhmEYRlVgTwiGYRj1hEUINYOiH/r06YMFCxbAycmp0KMQDh8+jBkzZsDc3ByzZ8/mSW8+IZlIUlrM+fPn32kiyX4ODMMwjCqRK0K4DsBWr2N4IN6TwyIEwzCMylJEfs2oOBRuP2LECDH9IiAgAK6urkox4ezUqRMOHTok3u7duzfOnDkj3mY+D4o0IcFp4cKFsLKyEkumdu7cGVFRUeLvTBEQSUlJosHk2LFjYWNjwwIEwzAMo5qUrYkWtrawbV4WV9bdQxWbKri3+Qoe8zIawzCMSsIihBpAq+ADBw4Ub9PElCb+ygRNfjdu3ChOhskUk74j8+GQwCSJDrQqpKWlJRpGUsRLSkqKmHJDokN6err4O5P5KBmPsujAMAzDqAXaeqhTpwSiA0/iKm4i/EwowqroohyPYhmGYVQSTsdQcUiAoJVvSndYtWqV0vsuUCQECREeHh6iKMH8EzaRZBiGYZg86Rg/tsWkscdhNnEM+ps8w/mT8dCzaQ1z/RLi4wzDMIxqwSKECqNqAoQECxFvwiaSDMMwDPNPckWIhTOQnHQPf+/eBv+Lz1Gjy2CM6NMM+tpcGoNhGEYVYRFCRaHV8jZt2qicACEhCRGnT58W/Qo0CTaRZBiGYZj/JleEWDwKu+xn4uqAqRhhWRr3/nDH3Awn7B/fBMXFZzAMwzCqBIsQKgqZUBKqKEBISEIERQCQh4G6Qn4O4eHhuH79umgUeeHCBXH78OHD0bp1azRu3Bg1atRg0YFhGIZh8pArQkyyhsPQFEw/6IgG5APxNBBTbC6i/yVnWGiLT2EYhmFUCLb0UUG2bNmCsLAwLFmyRGUFCIIiICglY+TIkWJKgjrAJpIMwzAMwzAMwzDvh0UIFSM0NBQODg5YsWKFWkxchw0bJqaUTJkyRb5FtSDRgfYJCUMUnVK6dGlRdKBSqYSvr69oMkkBR0uXLhU9PEh0UGXxiGEYhmEKlKo2GN42CTcfZMnuCMi4FYmX07vDjKMgGIZhVBJOx1AhJB8IMit0dXWVb1V9yCPByMgIAQEBSlde9G3YRJJRBt7nKyJB/iJUPYUqqVhZWXF7ZBhGJclNx3AdgK1ex/BAvCdH2wx9xnVG7aLy+wzDMIzKwJEQKsSePXvE60mTJonX6gJNkChiYMaMGaLQokzQZO/w4cNYuHChKDLo6emJPhYkQJCJJBlrJiUliRNBEoZIROEJH5NfkI8KtUMS7dasWYPy5cuLKT0UbZP3Mnr0aLGMK0Xo0HPpNZQipGzHF8MwzAfxPBpHjgNmravg3qZ7qGIju958BY95GY1hGEYl4UgIFYFW4GkCrArRAp8CTY4GDhwoTuwLs2ynZCIZFBSE48ePv9NEktItOJ2CKUgo5efnn38WIx7IR4VEhQ8Vu6jv+PPPP+Hp6Snenz9/vlr2IQzDqB9vGFNOBRZvqonfrI/B9rQtjrWSXQexMSXDMIwqwiKEikATCFp9p+oK6opULYMiCwrC74KED1o1joyMFEUHNzc3+SOAi4uLGMpOq8m0ksyiA1NY0LE/btw4UXwYNGjQJx8b1N4PHjwomqQuWLBAjKjids0wjDKTK0LMGo7A84CVrSGSb6SgYv2iuHEwHobdLGDAMb0MwzAqB4sQKoAUBUGh/1RRQp2hFV4yb6QQc0VDv2NMTAwuX76MU6dOwcvLS9wu+TkYGxuLogPl0jNMYUOiwfjx48VKOGREq6hjn1KM6BgjQ9jZs2dz+hDDMEpLrgixdKl4zTAMw6gHrB+rABRKTUZz6i5AEJTLTiu/ishdJ9GBoivo/UhkICGnadOmYm587dq1xdSW2NjYXD8HmpixAMEoA5IAkZiYKLZXRR77JDocOnRIvE1tnkQJhmEYhmEYhikoOBJCBSB3e03J46bJF5W5fF/UBwkL7wtHz1sxgNJWJD8HEnDIa4IEiEaNGqlFaVNGvaHVP/IkOXHiRL6lTEhCB7Fq1SpOzWAYRungSAiGYRj1hCMhlBwypKPJNJV+1ARoIkS57/9v717AqirTPYD/MclRUUExhYTmpJPa0eOFjdpBA6wj3gonb+kozIiWJpp2RBGzxjBTwWMJjprKeCFtVFAkRiEzvFSEgOZQouNMBgjexUuageyz3m+vjag4k8pl783/9zybtdfaa619gcX+1rve7/3WrFmjL7lFPou+ffuq4pFCpnKVWBopEqiR2g1+fn74/vvvVXFLGUbz2rVrKiAh8xLUYACCLJ1k7kgAQv62qzIwIPtesGBBWXcPIiIiIqLqwEwICycnJHKSsHLlSn2J7ZNgg2QtSADBfBJmLlopJLNBRgkwYxFJshUSWJPRV6qz/otkEMlxY6sj7xCR9WImBBGRbWImhIWTETGGDh2qz9UOnTt3VtOsrCw1lUCMOQBhFhcXp0a2kBiaNE7M9RwYgCBrJg1uGbmiOuu/SI0IOZ7efPPNu2qxrFu3TmUZ2dnZWd1N6sBIQJOIiIiILAuDEBZM6h/IFf+nn35aX1J7SHaDdKcQEoCQkyRZJgoKClhEkmyOZPvI8T5+/Hh9SfXp16+fmsoQnmby/0cCgFLEUoJ91naT/xdLly7V3w0RERERWQoGISzYkSNH1LQ2DqEn3SukG4qQzAgJOkjGg5xcxMbGquUPpCQTkW1MV0pdA9fi230LYYjMRIn5MUMkMmXmajoifX+HmGM/yQwyI31NV1h952B34c/aqpFo4xqM+JM/aw9nIybQC4Hxedq6pbiauRi+fjE4Vio7vYxjny5GoKt+hbaN7F9bFh8GX3XF1hW+M+Jx7Gqp2mfZa5H9HIvHDF9X/XnDEH/s8t37sxuP+Lyv9dct2yQjMrCj/pgvIjOvatsUaa//t/CLydH2Km+z/PNU5Pb1734PMxD5rv556LfWU6bAQ+2zovd2WdufH3wj07VPUuQhPnAK4gvveAXqczS99jZvRWC0+qzUA9r2gYhM233b7y7n9OFb6y+MxQL9MdNN3vvJu953G9/FyNQ+a20OhfFTtN/ZD3d/ZuWex/T7ktdQ9SQAIfVQaqJuiWQQSd0UyXwwO3fuHHx8fKy2jopkk5iH4SUiIiIiy8EghAU7ffp02dX/2kbqO9zrBOKhMyAcI5BRnItobEbSD8X6wvJKcTn9E3zqXhd7th/WT5zdEZFRgIwBB7D2q9NqSf2232LRqJmIDJ+N9bmPqmXABaRv+gruLdOx/WARSo9twaR5lxGYecN0hfb4NHT55xa8kfA4FhTIshwsa5uE/uGp2ul7OaXHsOmNJLRckImbxpu4sqwtEvrPx66sTbfvz7gcL7nUvbXNpChcCNypbSOPfY5pHg7A5Sxs+rQBWu5JwUF1Av5v3LH+3e9hAabN+hzGgjgEtJbP0oijo1vBTttU1r37ve3TPsOfkRoShIkx2frnWYHSMzh6agwyrtzE8QmtK/7nVPa7O4jvLp2+tf70UZhxvBgFca+idUQGiuW9/+bo3e879Q28MHE9cszzpd/f/ZkZmujPY/p9eegfb1WSrIOIiIi7uh1Vp4EDB6pASM0P2akHnZI3ILCiQJQ5UFhGglrDEBg4ULsNxzDt/r8OshERERFRTWIQwoKlpaWpk/HayNnZWU2r5ISoKAQGe3cEYygGPGGvzRpgL1e97Q0IKZIVLiAj+QyGz5wC79RPkH5ZTlhzEWJwhSHJE4HPtJCVUG9AGFaM/hGfNp+GFZM6qWW4fBjJ3/bFzJndkLrpAI5nH0bLSWPQ28UcpCjBaW1ZM/8X0U0ta4x2/QbAKy4Lx8ufNZ3+DnuaDcDL3Vy0g7QOHNr1hr/XN9j72QFg9HD4lO2vnDPaNi3HYFLvx8sd2KW4nJGKb4dPw0zv77Ap/YK+/F7uXP+Mer23v4d7uYkzFb63b5B30x0Rn/0fOq4PxbzduXqGxR0a98SU8EexZHA4dp+5xylk2e+uC5527XVr/cKf9RXMKn7fjhE7Ed9xGybM24UCeRGXjlXwmWnU81RfJoRkPXl6epbVQ6kJkvEwduxYpKen60usRX04Pu6Gls6Po33H1nBr+RjcmjbklxsRERGRhWI7zcI5ODjo92oXcwq4jJBR6fSr3AVrA9G2QR1tVq6cG2EszkCEo3b6WrAXH61fgaD2XRGUtBUf7TqpndLKSfR+rHY/hqwC82tqinZjliN5Wnc0UvPFOLkrHuuTgtC+fRCS1ifgcPOncSoqxnSSXFqI9MVLkAIXnErYjnR14nwZOTuS8MXgrmhT/op7o1boeCoJH6cXas9diqs5u5HwRSc8+5wnsP4vSC28AFMXkfG3ujU89jS8T8Ugare83p9RmL4SkVvTseujrUgK6or2QSuw/qO9ppPveynNu2P9L1Hy9H/d9R4S7uxKodjB4YknKnhvneD2iDbb5Bm8seF1IHwohq6Tbi53ehQu3SZg6bzGWBB7Ab+pfwI/nNb2c/U7fJ50yrSK+t0VI9P/IN5LOXtr/ff335FJcuf7ML9vZxjeiMZsfADD0E+01/TU3Z/ZtuPVngkh9U+k60NN69Wrlwp+Pijp8tLR1xdedq9g1erX4GpnB9egeOTlxyNIdecZjy3f7ESY6mbUEYEx2Sgqt83qLW/D164RDCG5+h4rUopzW8ejTVm2gzN6z1uEBYtWIHTaPCxaEI2tY9rxy42IiIjIQrGdZsFSU1PRooXpqnttdfbsWf1edSlBfnIKnGPPqq4HN/PnADGpyJMT2Cad8Pt5g3Ek7AN8fq6Ck/DSXCTHNEXspZvatjeQH10Xa/7eFR9MuoFw13qwe6QPlqI7+gyagCj/k5ghy+zaYcLRAfjrbB801nZRlpUxMReDogbg1AwPPGL3CBpNOAr/v4bi+a7DEKX210w7UTsKn+l90KGRfhjXeQrDosbgZrintk09eCz9GT0fO4wY5w9wSYIsN08gGklIySu+9TyB8Sg0ba2UHv/srvU/rTNQf07ze/BAtxYVnZnXgYNHUAXvrRfMobQ6Ls8hbNl7CHDRF5RXGI9Aea+GGLR6pheGzGmMqFbafhoNQtIz0/C7rk30DAV7uAZfgXfzvbfW79667DlERe9D3rdS53H0DluE1QHasVXnP+76zJ7t3upWJkT5IE8lkCE4K5Kbm6vqoNS01q1bq/87D6XbbOwwzkbTvSnqb6swZiO2bNuNkuhc7biIhtc/duLkpK9hLF6Djn/aiWPy8erbOCVewqSCi8iIcAec3NCxokCU9nfm/NvlOD7NA9UQHyKiGiBd1OT/5cWLF9VN7t85eg8REVkx7USLLJT8eo4ePWqaKT5ojPL2MHp4eBj/e2Ks8cvNM40Tt+ebHntgV40Ho94zbj9VrM/fr/LbF2n3f298ef0x403Tgw8tJCTEGBcXp89RVSjOiDC21v7O5G/NdHvVGFfwoH8P9+OKMSPCp9zzareAOGOB/qitkvcpf9dlx7XO39/fmJycrM9dNh5bP8X439qx7uEdZTxY/tdxartx4sTtxlP6bGWT1yWvUabyOuV2P+TvySMiw1hsvGHMj5todNH25RKwxvjtsS3GMS7ye/YxLty53TjTx0W738EYsPpvxosVbCPrRWScNB6Nm2n0UfMuRp+ZKcaCGxnGCI8Fxp2bXjW2Vtv8a/JeiMj6nD9/Xh2/5punp6fx2rVr+qNERGTt7OSH9g+eLJBU59dOBkyFGEsOIdp/P3om/BZ5U2bg23aPI/+JyYh+4XF97QfxIw5FRyFv6DS8UOGVbXnaFZiZNxARFT5Pue0bfIl3XtmIM806Y+yCcejcsHySzSUcWrETCBoILP/Xz1fe9OnT1dXhbt26YcmSJfpSIuslxSfNpOis1GCQ4/u2Yx3nsfedt3H4xXcR3LmJaWWz04kIDgdmR7+A23OkSvHjob9gK17EqM4N9WX3b+/evep1yddCaGioGrpTRs6wVvK58iuOyDrJEMGTJk1S92WYbhkli4iIbAO7Y1iTH9dgbA9/zEc/eLcE8tdOhJdhNKI+WYkRBgMMXjOQmH8A0X0GYcigPgiOXYdgWV5288KQqG2IGeGl3e+DqYn52qmLprQQe+eOUOt4BW/AoZS52n5lfR+8vk962hejMHGGadnED7Hszu21n1cOfom/D5iA13scx/bMi9ouEzHVS/YxDVt2x2LuygiMfX6FGrbSeHYP5g4x7SM49jtcOhQNH/V8oxF96JLaI5Gtc3d3LyvAertm6PnqaDyyahrm7v0HsqLnI/H0JRyS6VntAEqbgwFyLM/dju1zBmjHzQC8k5KKP8+NxvtjA/DO/DHaMu1YnpqI/Kxyx1bWd0ic2ke774PgxBNlx7SsV2g6kPGrX/0KP/30Ew4cOICCggKmPxNRjRk5cqSaStFeCYgSEZHtYCaEBas4EyIYneuW4HTiLEy59Acsd0/EH894wf/UBsxacwojVvwvMPMz/FdcGJ69lmS6ajobCC+bXsfoIeexftZqZI+IwiLsQYFPeyQvr4PZ0b1RGD0dnzVsjsRMZ0z164x2ztlYdc4TzybHazuYgxdaXMfx1Fi8X377wcOBha9izj7TCAT1es3GMt90fGj3milTo+y1/wFY/gGyHa8irclERPc7q5Y/8449Pi7oj7eafIy3Lo3EYj3rwpwJwasfZCvkmI6KilKNa3PxVTFu3DjVyL7tb/3HTESP/SsaGq7D3n8i3DesxqWXOpmO1ffdsNl/D9q/7YCtiwvhFz4WbjvnYn/P9/AHhwP48/vzsSb7RaxYVO7Yym2B4jQnPYviJBKDf4c5aTJgahdM+Tgao9rUU/2u27Zti/Pnz2P58uUoKirCwoULTa/nIUnRyh6fd8dSzEUowpE4rRsc1PCai4D5kbeGmr1vso//RQKkYGxDXIcR/+w4A2nTPFTdE37FEVkvyYZwdXVlO4CIyMYwE8KCSfT/3oUZ66JZk0Zo2LgxHinKwoo1p9ClRyP8I/8yjPaOaFz/Hr9aYxGyVvwFp7p4wuUfJ3FR2ufNumJYyw0YYPDGxBwPPHXxOK6mrUH4nBVIzrshK8DgV4L5A3rA4PN/2LL89u2NufuwyelNfJ6RgYz0rdoJRiq+aW6A/Xx/GAxDEH3YDo6NN2Ls6I+RZ6yDxp2fQ8u1w2DoMR05I3qjjYycoP0p1tfeS/nTEEldf/LJJ/U5IusnJ/fBwcG3BSCEk5OTfk9IgMAHBu9XsbFlB3T9zU0se/kVLDksx6JGMiHUsdMJF9etR9rfv8LBglI4ON7AmrFT8GHiR1hzqjV6uBQi/+JNbQP92GrcHn72UdpxboBPdAE6+3VHPe3Rej16o7uLvdr1iRMn4O/vr17fkCFD1LLK9zNSQ4IwMSYbEgJ5eByik8hWScCWWRBERLaHmRAWrLZnAtzeT57Idq1btw7Z2dmVlnXwoOSqo4zUIa9DsiJWrVqFhfOGI7LLZCQ1vgy3P0yC/VuvIgYTEff1FOCPv8XgmOsIiEvBfMf1GPncH5HqMgarPw3AhZfDTNuMmYlWsdPwXmohWkfsxUdYhX1dRwHhH+DC7JnounYz8Mp/YmXPV5Diou036VkkdB2OdfprAlzgE7EZHz65Ed6DlwJjNiGp/2cY+v045PybETJYE4LIuuXn56NBgwZ3BW6JiMi68WKRhZN+2bWRNDyEND6IbJ0MjVm+aGVN2bVr1z2GCvXG7B2ZWNA0CzFq3M14rNiyA9tK5qDAeBxrX7LHV2svYlJBMYoT2+NPSXm4ad7GKV0NyVmcEQFH086AJs/gjQ2vA+FDMXTdT6jToiemRQTApfBb/PNMCRAQp/3vi0OAmkbD/W/fYm/CTn3Iz8042PF9DtFJZGNkWM4vvvgC8+bNUwFEubm5uaFZs2bqvhSplsdkHdarISKybgxCWDA5GZCrkrXRuXPn1LRVq1ZqSmTLunbtqqaHDh1S05oggb+EhATV0L9LvaZo0uBRtOjeB2NctHmXfhju1xuD6r4NV+3koE3kSXQLdEKUqz3sXziC1wa44ZGybZ5F3WB32BtCUGTam1LH5TmELXsPAdr+Sk/vR2RILv4nwBFH8q+oMflu54iu/n2hnjqgH36T8br2nJkoMT1IRFZMAgrx8fEq2DB16lQ0btwY+/fvV5mQ0oUtLy9P3V+8eLFaX9bx9vZW2zAYQURkndgdw4LJCUmXLl1qZTqxNC527NiBlStX6kuIbJtc4avMQpD3S7piSCbEtm3b1HxZd4wa7iLyMNgdg8iySTvnlVdeUfclyODl5aXu/ysSeJD2wfz589W8tBd4wYKIyLowE8KCyRB+wtw1oTZJS0tDr1699Dki29e/f3/VJaMmjndp1Etditdee01fAjV8aGpqqkqRtkZyYhISEqLPEZGlSUlJURdaAgICsGfPnl8UgBD169dXtbJkm0GDBqkuG9JFg4iIrAeDEBZMCjFJpfr09HR9Se0hJ2PST56otujcubM6aV6yZIm+pPqsXr1aTcsH/uT/z9y5c9G3b9+y/tnWdJMrpWPHjtXfDRFZEgka+Pn5ITk5WY0YJIGF+yXbhIWFYe3atejZs2eNdmcjIqL7w+4YFk5SpL/55pta1S1BGifSoLh27doDNUyIrJV0gWjbtq1qmPfp00dfWrXM3b6kD/YvvRJJRPSgzP/n4uLiKm30L2krSTYXu2YQEVkHBiEsnPkEQYoz1ZYhqqRvvJArHES1jTSiBw8eXC3D00rXDzkJkHRouRpJRFTVpAuFFMCt7O/4cePGwcnJyarr2BAR1RYMQlgB+cI2nyjYOumbLsNy8qos1WbVcVVPjrXJkyer+ywAS0TVwZzpWBUXViSoKvUhDh48qLq3ERGR5WJNCCsgwQc5KakNQ1FJP25PT8+yIQuJaqOgoCB06tRJBR8ldbmySWN9xIgROHv2bI3UoCCi2knqPUk3jKrI7JSAbVRUFJYuXaovISIiS8UghBXo16+fmmZlZamprZIgiwy5FRoayloQVKvJ378EByQAKX2nK7Pyu3TxkuBG8+bNsXHjRh5rRFQtJPiZkJAAHx8ffUnlk1o6MrSwtY7qQ0RUWzAIYQXkJEFORuQKgi0zB1nMQRei2kyOe6nTIFcNJX15+vTpD9Wwlm0lo8o8JJ50wWAAgoiqy+7du9WIX1VZ30rq6Eg2ZUZGhr6EiIgsEYMQVmLkyJEoKChQfcRtkWRBTJ069YGH6iKyVZK1IEUqL168iGbNmqnCrfczFJ2sK8EH2XbXrl2qvzSLUBJRdcvOzlb/z6qaZFpcvXpVnyMiIkvEIISVkCsH0k1BuivYYprh5s2b1XTo0KFqSkS3yNU9yVyQAEJRUZHKZpDq8pIdIYHJlJQUVTtCbtJ1Q5ZJsELWkXVlmF8p9rpt2zYWbCOiGuPg4KDfu4K/x06Fl8EAg080DpXoiytBhw4dkJaWps8REZEl4ugYVqaqhraqSeaK1hwRg+iXkUDkkSNHVFAiNzdXBR+kr7WQVGS5Euju7q6CFwatkV9bhvclIssl7RfpCmbKhjiPve+8jcMvvovgzk1MK1QSCcJKEIJDdRIRWS4GIayMnGxIobrk5GRVgMnaSTcMqdIvJ0tsMBAREdkmydzq0aNHWZeM0tNfY0X4Kpwf9g5C2x7F/ImzsO1EQ/SY8j7e7bAPc/MG4j23TzDzh//AE0v/hNQG19DipVF4dMUS7Lvhi7dieuLzCeHYh+fw9pZwvODyqNovgxBERJaP3TGsjJysS6E6Pz8/lUFg7RYvXqxqXcyZM0dfQkRERLauTovumLBgPByX/RlJe1NwKnATMtIWot3G3Th+sxTnLl3Bj5cvw9RTw4DJ6z/BW05HURyagIyM99D9h/3Yd0N76MZ+bPjsB5Sq9YCcnByVCUZERJaLQQgrJFcRQkJC1FQyCayVFMubNWsWYmNjWYySiIjIhklg4FathpNIDPaBwftVbGzZEYaefdBy7TAYekxHzojeeMq1FRyXBSFwiT40ub0jGtd/FM0NPWA/3x8Gw8vYVL87etXTHqvXDQO6tyxr0Kanp8PV1VWfIyIiS8TuGFZKgg+TJ09W95csWWJ1J/FSPE+GHWQdCCIiItsnI/VIodxr165VWZtF6uXISEB5eXlo1aqVvpSIiCwNMyGslHyBS/BBqt5LMMKaMiLMAQipa8EABBERke0zj8yTlaVnN1SB1NRU+Pv7MwBBRGThGISwYhKIkAJMZ8+eVYEIa6gRsW7dOhWAkLoWtlBYk4iIiH6ZqKgoRERE6HOVSy7GyDDmMgIHERFZNgYhrJxE+zdu3KjuS40IGT3DEknjQGpABAYGqi4Y5urYREREVDuMHDlSFaOWCyiVbceOHWrar18/NSUiIsvFIIQNMHfNkDG4ZfjOqvhyfxiSoSGZGpIFcfDgQXbBICIiqoWaNm2K0NBQDB48uFIvmkg3T9mnjLhlbTWyiIhqIwYhbIR86YaFhak6C/JFLONx13T3DMl+kICIm5sbnJycsHPnzrI+oURERFT7SCbku+++i1GjRlVKO0X2MXXqVNXVgxc5iIisA4MQNkbqLEhVaCEn/5J9UBNFK+WqxIgRI1T/TKn/sHDhQnUFhIiIiGo3CRp06tRJBSRk1IwHJW0NaetIHYjg4GB9KRERWToGIWyQ1ImQk36pvSB1GBo0aKCmMnRVVZMGgXQLkeKTzz//vMp+YP0HIiIiMpPszZUrV6rggQzbeb9tFFl33rx5qq2xdu1aBiCIiKwMgxA2TNIS09PTVTBi165dauxs+dKWQEFlZkdIKqRkXJQPPpw/f141Cpj9QERERBWRdkL5NooEIyQzoqI2iiyT9ousI+tK++bo0aMcDYOIyArZGTX6fbJx8uW9Z88ezJo1S81Ln0yDwYBf//rXeOqpp9SyX0KuQOTm5uLw4cOq5kNCQoIal1saAj4+Pgw8EBER0X2RNoq0J8xDeHp6eqJ169Zo2LCham8cOHBALZe2i7e3N+s/EBFZMQYhaiG5mpCVlaVGqpCrD/KlLySQYA5GdOjQAQ4ODup+Tk4OioqK1P3y43uHhISgR48e6Natm+oCQkRERPQwpI0ita0ky3LKlCl47LHHMGfOHDRv3lzVf+DoF0RE1o9BCCr7wj9x4gSuXr2qlqWlpampcHd3h6urq7r/5JNPwtnZmUEHIiIiqjKSaSltERnKUy56MPOBiMh2MAhBRERERJVG6jps2LBBn3swqampiI2NxdmzZ9VoGtLd80E5Ojqif//+HCaciMhCMAhBRERERJVCsitlVC7p8inTh2HuIirZEA/DHMiQYpZERFTzGIQgIiIiokohAYNVq1apocItybhx41S3jvspxE1ERFWDQ3QSERERkU1zcnLS7xERUU1jEIKIiIiILFge4gMHIjLTVDy7JDMShsjdSIsMLFtmUoLC+CkYFjgMhsBADBsWiEBDJDJL9IeJiMgiMAhBRERERDagDho6toRby8fg1v5p/NqtJZzdmqIRW7tERBaF/5aJiIiIqHJd3o0Zrnawcw3DrmMpCPN1hZ1dRwTGZKMocwnGx+ehRE1zkBk5EL6+BtgNnY6Rso3deMSf/CfigzqqbYLi83HPAmbntiOwjTnboQ4a9w7FogXR2Bo6AwsXLcCirWPwFFu7REQWhf+WiYiIiKhyObTH4JAx6DO6C+pnJOHkpK9hLF6Djn/aiWMlN3G66AquXrqIYrVyA3Sb/QkKRvwM++hcGI3L8VKdQ0iIydYey0bMikOw+097HPnhPEpRhG8+T9V+6pxfxNrj0+BRV58nIiKLxyAEEREREVWu019h6RsxSFl/ENcNA/B4VHfY2f8ef3utL9q1egJN33weA8K/1Feuj+ZNHNCi+7OoG+wOOztfROa3g/+YDtpjHRAw3Ateg0bDOeoZPGLnBEOSJz78XWfYy6a3ZUIQEZE14BCdRERERFQp8vPzERwcjI0bN6J+/fr60pp1/fp1eHt7Y+fOnWjatKm+lIiIagqDEERERERUaaKjo7Fu3Tr4+PjoS2pWamoqQkND8dJLL+lLiIioJjEIQURERESV6sKFCzh37pw+V7OcnZ2ZAUFEZEEYhCAiIiIiIiKiasHClERERERERERULRiEICIiIiIiIqJqwSAEEREREREREVULBiGIiIiIiIiIqFowCEFERERERERE1QD4f5SzwtN1Nho9AAAAAElFTkSuQmCC;" vertex="1" parent="1">
          <mxGeometry x="250" y="40" width="1057" height="575" as="geometry" />
        </mxCell>
        <mxCell id="CJhXHhptt_YIDlltTQ6f-5" value="" style="ellipse;whiteSpace=wrap;html=1;fillColor=none;strokeColor=#FFFFFF;opacity=0;" vertex="1" parent="1">
          <mxGeometry x="370" y="220" width="30" height="30" as="geometry" />
        </mxCell>
        <mxCell id="CJhXHhptt_YIDlltTQ6f-6" value="" style="endArrow=classic;html=1;exitX=0;exitY=0;exitDx=0;exitDy=0;entryX=0.5;entryY=0;entryDx=0;entryDy=0;edgeStyle=orthogonalEdgeStyle;curved=1;strokeColor=#292929;" edge="1" parent="1" source="CJhXHhptt_YIDlltTQ6f-5" target="CJhXHhptt_YIDlltTQ6f-5">
          <mxGeometry width="50" height="50" relative="1" as="geometry">
            <mxPoint x="150" y="260" as="sourcePoint" />
            <mxPoint x="200" y="210" as="targetPoint" />
            <Array as="points">
              <mxPoint x="360" y="140" />
            </Array>
          </mxGeometry>
        </mxCell>
        <mxCell id="CJhXHhptt_YIDlltTQ6f-9" value="" style="ellipse;whiteSpace=wrap;html=1;fillColor=none;strokeColor=#FFFFFF;opacity=0;" vertex="1" parent="1">
          <mxGeometry x="941" y="223" width="30" height="30" as="geometry" />
        </mxCell>
        <mxCell id="CJhXHhptt_YIDlltTQ6f-10" value="" style="endArrow=classic;html=1;exitX=1;exitY=0;exitDx=0;exitDy=0;entryX=1;entryY=0.5;entryDx=0;entryDy=0;edgeStyle=orthogonalEdgeStyle;curved=1;strokeColor=#292929;" edge="1" parent="1" source="CJhXHhptt_YIDlltTQ6f-9" target="CJhXHhptt_YIDlltTQ6f-9">
          <mxGeometry width="50" height="50" relative="1" as="geometry">
            <mxPoint x="720" y="290" as="sourcePoint" />
            <mxPoint x="770" y="240" as="targetPoint" />
            <Array as="points">
              <mxPoint x="1000" y="220" />
            </Array>
          </mxGeometry>
        </mxCell>
      </root>
    </mxGraphModel>
  </diagram>
</mxfile>
